<mxfile host="app.diagrams.net" modified="2021-03-30T14:01:11.448Z" agent="5.0 (Windows NT 10.0; Win64; x64) AppleWebKit/537.36 (KHTML, like Gecko) Chrome/89.0.4389.90 Safari/537.36" etag="NSZWu1W06hEUWham5P2Z" version="14.5.3" type="github" pages="10">
  <diagram name="ContextDiagram V2" id="t8hwh8F3plbCmKXn5Lk4">
    <mxGraphModel dx="2076" dy="1160" grid="1" gridSize="10" guides="1" tooltips="1" connect="1" arrows="1" fold="1" page="1" pageScale="1" pageWidth="1654" pageHeight="1169" math="0" shadow="0">
      <root>
        <mxCell id="gmjSNCvaZHBrkTGCBHyH-0" />
        <mxCell id="gmjSNCvaZHBrkTGCBHyH-1" parent="gmjSNCvaZHBrkTGCBHyH-0" />
        <mxCell id="FUptKpNbvVd9W_uUIe6t-60" value="&lt;span&gt;ผู้ใช้งานทั่วไป&lt;/span&gt;" style="whiteSpace=wrap;html=1;aspect=fixed;fontSize=12;" parent="gmjSNCvaZHBrkTGCBHyH-1" vertex="1">
          <mxGeometry x="52" y="96" width="300" height="300" as="geometry" />
        </mxCell>
        <mxCell id="EdqVBh4EmT3sIRKprOQ1-0" value="0" style="swimlane;childLayout=stackLayout;horizontal=1;startSize=30;horizontalStack=0;rounded=1;fontSize=14;fontStyle=0;strokeWidth=2;resizeParent=0;resizeLast=1;shadow=0;dashed=0;align=center;" parent="gmjSNCvaZHBrkTGCBHyH-1" vertex="1">
          <mxGeometry x="662" y="516" width="510" height="180" as="geometry" />
        </mxCell>
        <mxCell id="EdqVBh4EmT3sIRKprOQ1-1" value="ระบบ HostDog" style="align=center;strokeColor=none;fillColor=none;spacingLeft=4;fontSize=12;verticalAlign=middle;resizable=0;rotatable=0;part=1;" parent="EdqVBh4EmT3sIRKprOQ1-0" vertex="1">
          <mxGeometry y="30" width="510" height="150" as="geometry" />
        </mxCell>
        <mxCell id="5cFf0iJ0rfZGFlDJeXcW-0" value="" style="endArrow=classic;html=1;fontSize=14;entryX=0.5;entryY=0;entryDx=0;entryDy=0;" parent="gmjSNCvaZHBrkTGCBHyH-1" target="EdqVBh4EmT3sIRKprOQ1-0" edge="1">
          <mxGeometry width="50" height="50" relative="1" as="geometry">
            <mxPoint x="352" y="136" as="sourcePoint" />
            <mxPoint x="920" y="500" as="targetPoint" />
            <Array as="points">
              <mxPoint x="920" y="136" />
            </Array>
          </mxGeometry>
        </mxCell>
        <mxCell id="ba_mgGBv873O_KpgqF5B-2" value="&lt;span style=&quot;font-size: 14px&quot;&gt;ข้อมูลการ&lt;/span&gt;&lt;span style=&quot;font-size: 14px&quot;&gt;สมัครสมาชิก&lt;/span&gt;" style="edgeLabel;html=1;align=center;verticalAlign=middle;resizable=0;points=[];fontSize=12;" parent="5cFf0iJ0rfZGFlDJeXcW-0" vertex="1" connectable="0">
          <mxGeometry x="0.0636" y="-1" relative="1" as="geometry">
            <mxPoint x="-50" as="offset" />
          </mxGeometry>
        </mxCell>
        <mxCell id="5cFf0iJ0rfZGFlDJeXcW-2" value="&lt;span style=&quot;font-size: 14px&quot;&gt;ข้อมูลการค้นหาผู้รับฝาก&lt;/span&gt;" style="endArrow=classic;html=1;fontSize=12;exitX=1;exitY=0.063;exitDx=0;exitDy=0;exitPerimeter=0;entryX=0.566;entryY=-0.016;entryDx=0;entryDy=0;entryPerimeter=0;" parent="gmjSNCvaZHBrkTGCBHyH-1" source="FUptKpNbvVd9W_uUIe6t-60" target="EdqVBh4EmT3sIRKprOQ1-0" edge="1">
          <mxGeometry width="50" height="50" relative="1" as="geometry">
            <mxPoint x="532" y="306" as="sourcePoint" />
            <mxPoint x="950" y="513" as="targetPoint" />
            <Array as="points">
              <mxPoint x="950" y="115" />
            </Array>
          </mxGeometry>
        </mxCell>
        <mxCell id="U-uuq7auxfLFsfs3FY1l-0" value="" style="endArrow=classic;html=1;fontSize=12;exitX=1.003;exitY=0.21;exitDx=0;exitDy=0;exitPerimeter=0;entryX=0.43;entryY=-0.003;entryDx=0;entryDy=0;entryPerimeter=0;" parent="gmjSNCvaZHBrkTGCBHyH-1" source="FUptKpNbvVd9W_uUIe6t-60" target="EdqVBh4EmT3sIRKprOQ1-0" edge="1">
          <mxGeometry width="50" height="50" relative="1" as="geometry">
            <mxPoint x="532" y="306" as="sourcePoint" />
            <mxPoint x="885" y="513" as="targetPoint" />
            <Array as="points">
              <mxPoint x="885" y="159" />
            </Array>
          </mxGeometry>
        </mxCell>
        <mxCell id="ba_mgGBv873O_KpgqF5B-0" value="&lt;span style=&quot;font-size: 14px&quot;&gt;อีเมลล์และรหัสผ่าน&lt;/span&gt;" style="edgeLabel;html=1;align=center;verticalAlign=middle;resizable=0;points=[];fontSize=12;" parent="U-uuq7auxfLFsfs3FY1l-0" vertex="1" connectable="0">
          <mxGeometry x="-0.0921" relative="1" as="geometry">
            <mxPoint as="offset" />
          </mxGeometry>
        </mxCell>
        <mxCell id="ba_mgGBv873O_KpgqF5B-3" value="" style="endArrow=classic;html=1;fontSize=12;entryX=0.369;entryY=0;entryDx=0;entryDy=0;entryPerimeter=0;" parent="gmjSNCvaZHBrkTGCBHyH-1" target="EdqVBh4EmT3sIRKprOQ1-0" edge="1">
          <mxGeometry width="50" height="50" relative="1" as="geometry">
            <mxPoint x="352" y="186" as="sourcePoint" />
            <mxPoint x="863" y="513" as="targetPoint" />
            <Array as="points">
              <mxPoint x="852" y="186" />
            </Array>
          </mxGeometry>
        </mxCell>
        <mxCell id="q_Ttb5XAHTejEu0AelvQ-0" value="&lt;span style=&quot;font-size: 14px&quot;&gt;คำขอดูข้อมูลผู้ใช้งานทั่วไป&lt;/span&gt;" style="edgeLabel;html=1;align=center;verticalAlign=middle;resizable=0;points=[];fontSize=12;" parent="ba_mgGBv873O_KpgqF5B-3" vertex="1" connectable="0">
          <mxGeometry x="-0.1265" y="-1" relative="1" as="geometry">
            <mxPoint as="offset" />
          </mxGeometry>
        </mxCell>
        <mxCell id="f4QjvW_GqVyYDtU-NULu-0" value="" style="endArrow=classic;html=1;fontSize=12;exitX=1.01;exitY=0.387;exitDx=0;exitDy=0;exitPerimeter=0;entryX=0.314;entryY=0;entryDx=0;entryDy=0;entryPerimeter=0;" parent="gmjSNCvaZHBrkTGCBHyH-1" source="FUptKpNbvVd9W_uUIe6t-60" target="EdqVBh4EmT3sIRKprOQ1-0" edge="1">
          <mxGeometry width="50" height="50" relative="1" as="geometry">
            <mxPoint x="532" y="306" as="sourcePoint" />
            <mxPoint x="582" y="256" as="targetPoint" />
            <Array as="points">
              <mxPoint x="822" y="212" />
            </Array>
          </mxGeometry>
        </mxCell>
        <mxCell id="EXBlx1kMv9aPre7K3ZJa-0" value="&lt;span style=&quot;font-size: 14px&quot;&gt;ข้อมูลการลงทะเบียนเป็นผู้รับฝาก&lt;/span&gt;" style="edgeLabel;html=1;align=center;verticalAlign=middle;resizable=0;points=[];fontSize=12;" parent="f4QjvW_GqVyYDtU-NULu-0" vertex="1" connectable="0">
          <mxGeometry x="-0.2134" y="2" relative="1" as="geometry">
            <mxPoint x="23" as="offset" />
          </mxGeometry>
        </mxCell>
        <mxCell id="f4QjvW_GqVyYDtU-NULu-1" value="" style="endArrow=classic;html=1;fontSize=12;exitX=1;exitY=0.5;exitDx=0;exitDy=0;" parent="gmjSNCvaZHBrkTGCBHyH-1" source="FUptKpNbvVd9W_uUIe6t-60" edge="1">
          <mxGeometry width="50" height="50" relative="1" as="geometry">
            <mxPoint x="532" y="306" as="sourcePoint" />
            <mxPoint x="792" y="515" as="targetPoint" />
            <Array as="points">
              <mxPoint x="792" y="246" />
            </Array>
          </mxGeometry>
        </mxCell>
        <mxCell id="yuUujlNykFjyNC17hl0s-0" value="&lt;span style=&quot;font-size: 14px&quot;&gt;บันทึกรายงานจากผู้ใช้งานทั้่วไป&lt;/span&gt;" style="edgeLabel;html=1;align=center;verticalAlign=middle;resizable=0;points=[];fontSize=12;" parent="f4QjvW_GqVyYDtU-NULu-1" vertex="1" connectable="0">
          <mxGeometry x="-0.2411" y="2" relative="1" as="geometry">
            <mxPoint x="11" y="2" as="offset" />
          </mxGeometry>
        </mxCell>
        <mxCell id="f4QjvW_GqVyYDtU-NULu-2" value="" style="endArrow=classic;html=1;fontSize=12;exitX=1.007;exitY=0.63;exitDx=0;exitDy=0;exitPerimeter=0;entryX=0.175;entryY=-0.007;entryDx=0;entryDy=0;entryPerimeter=0;" parent="gmjSNCvaZHBrkTGCBHyH-1" source="FUptKpNbvVd9W_uUIe6t-60" target="EdqVBh4EmT3sIRKprOQ1-0" edge="1">
          <mxGeometry width="50" height="50" relative="1" as="geometry">
            <mxPoint x="532" y="306" as="sourcePoint" />
            <mxPoint x="750" y="506" as="targetPoint" />
            <Array as="points">
              <mxPoint x="750" y="286" />
            </Array>
          </mxGeometry>
        </mxCell>
        <mxCell id="LmehHkPtW21hQQS7PM5t-0" value="&lt;span style=&quot;font-size: 14px&quot;&gt;ข้อความจากผู้ใช้งานทั่วไป&lt;/span&gt;" style="edgeLabel;html=1;align=center;verticalAlign=middle;resizable=0;points=[];fontSize=12;" parent="f4QjvW_GqVyYDtU-NULu-2" vertex="1" connectable="0">
          <mxGeometry x="-0.1791" y="-2" relative="1" as="geometry">
            <mxPoint x="-29.09" as="offset" />
          </mxGeometry>
        </mxCell>
        <mxCell id="f4QjvW_GqVyYDtU-NULu-3" value="" style="endArrow=classic;html=1;fontSize=12;exitX=1;exitY=0.75;exitDx=0;exitDy=0;" parent="gmjSNCvaZHBrkTGCBHyH-1" source="FUptKpNbvVd9W_uUIe6t-60" edge="1">
          <mxGeometry width="50" height="50" relative="1" as="geometry">
            <mxPoint x="532" y="306" as="sourcePoint" />
            <mxPoint x="712" y="513" as="targetPoint" />
            <Array as="points">
              <mxPoint x="712" y="321" />
            </Array>
          </mxGeometry>
        </mxCell>
        <mxCell id="xfWaRVmhUXaqSkBeaw8N-0" value="&lt;span style=&quot;font-size: 14px&quot;&gt;ข้อมูลการเลือกบริการ&lt;/span&gt;" style="edgeLabel;html=1;align=center;verticalAlign=middle;resizable=0;points=[];fontSize=12;" parent="f4QjvW_GqVyYDtU-NULu-3" vertex="1" connectable="0">
          <mxGeometry x="-0.2355" y="2" relative="1" as="geometry">
            <mxPoint x="-31" as="offset" />
          </mxGeometry>
        </mxCell>
        <mxCell id="f4QjvW_GqVyYDtU-NULu-4" value="" style="endArrow=classic;html=1;fontSize=12;exitX=1.007;exitY=0.87;exitDx=0;exitDy=0;exitPerimeter=0;" parent="gmjSNCvaZHBrkTGCBHyH-1" source="FUptKpNbvVd9W_uUIe6t-60" edge="1">
          <mxGeometry width="50" height="50" relative="1" as="geometry">
            <mxPoint x="532" y="306" as="sourcePoint" />
            <mxPoint x="682" y="513" as="targetPoint" />
            <Array as="points">
              <mxPoint x="682" y="357" />
            </Array>
          </mxGeometry>
        </mxCell>
        <mxCell id="WLTx7wh84EZuCaj5iVYR-0" value="&lt;span style=&quot;font-size: 14px&quot;&gt;คะแนนผู้รับฝาก&lt;/span&gt;" style="edgeLabel;html=1;align=center;verticalAlign=middle;resizable=0;points=[];fontSize=12;" parent="f4QjvW_GqVyYDtU-NULu-4" vertex="1" connectable="0">
          <mxGeometry x="-0.2646" y="2" relative="1" as="geometry">
            <mxPoint x="-40.1" as="offset" />
          </mxGeometry>
        </mxCell>
        <mxCell id="f4QjvW_GqVyYDtU-NULu-5" value="" style="endArrow=classic;html=1;fontSize=12;exitX=1;exitY=0;exitDx=0;exitDy=0;entryX=0.619;entryY=-0.001;entryDx=0;entryDy=0;entryPerimeter=0;" parent="gmjSNCvaZHBrkTGCBHyH-1" source="FUptKpNbvVd9W_uUIe6t-60" target="EdqVBh4EmT3sIRKprOQ1-0" edge="1">
          <mxGeometry width="50" height="50" relative="1" as="geometry">
            <mxPoint x="532" y="406" as="sourcePoint" />
            <mxPoint x="980" y="500" as="targetPoint" />
            <Array as="points">
              <mxPoint x="980" y="96" />
            </Array>
          </mxGeometry>
        </mxCell>
        <mxCell id="JUxRhRsc2SZopj-wnCmp-0" value="&lt;span style=&quot;font-size: 14px&quot;&gt;ข้อมูลการค้นหาผู้รับฝาก&lt;/span&gt;" style="edgeLabel;html=1;align=center;verticalAlign=middle;resizable=0;points=[];fontSize=12;" parent="f4QjvW_GqVyYDtU-NULu-5" vertex="1" connectable="0">
          <mxGeometry x="0.0743" y="2" relative="1" as="geometry">
            <mxPoint x="-8.19" y="2" as="offset" />
          </mxGeometry>
        </mxCell>
        <mxCell id="psaXMXKSQDEbhOTm2J0u-0" value="" style="endArrow=classic;html=1;fontSize=12;entryX=0.96;entryY=1;entryDx=0;entryDy=0;entryPerimeter=0;exitX=-0.005;exitY=0.094;exitDx=0;exitDy=0;exitPerimeter=0;" parent="gmjSNCvaZHBrkTGCBHyH-1" source="EdqVBh4EmT3sIRKprOQ1-0" target="FUptKpNbvVd9W_uUIe6t-60" edge="1">
          <mxGeometry width="50" height="50" relative="1" as="geometry">
            <mxPoint x="532" y="606" as="sourcePoint" />
            <mxPoint x="582" y="556" as="targetPoint" />
            <Array as="points">
              <mxPoint x="340" y="533" />
            </Array>
          </mxGeometry>
        </mxCell>
        <mxCell id="jruTiaIAMQKS-P10delN-0" value="&lt;span style=&quot;font-size: 14px&quot;&gt;รายละเอียดผู้รับฝาก&lt;/span&gt;" style="edgeLabel;html=1;align=center;verticalAlign=middle;resizable=0;points=[];fontSize=12;" parent="psaXMXKSQDEbhOTm2J0u-0" vertex="1" connectable="0">
          <mxGeometry x="-0.0019" y="-3" relative="1" as="geometry">
            <mxPoint x="-30.15" as="offset" />
          </mxGeometry>
        </mxCell>
        <mxCell id="_roPozjtuNkpOAK3JEYM-0" value="" style="endArrow=classic;html=1;fontSize=12;entryX=0.863;entryY=0.997;entryDx=0;entryDy=0;entryPerimeter=0;exitX=0;exitY=0;exitDx=0;exitDy=0;" parent="gmjSNCvaZHBrkTGCBHyH-1" source="EdqVBh4EmT3sIRKprOQ1-1" target="FUptKpNbvVd9W_uUIe6t-60" edge="1">
          <mxGeometry width="50" height="50" relative="1" as="geometry">
            <mxPoint x="532" y="606" as="sourcePoint" />
            <mxPoint x="582" y="556" as="targetPoint" />
            <Array as="points">
              <mxPoint x="311" y="546" />
            </Array>
          </mxGeometry>
        </mxCell>
        <mxCell id="eQPaeZva8iqVvneTFbcW-0" value="&lt;span style=&quot;font-size: 14px&quot;&gt;รายละเอียด&lt;/span&gt;&lt;span style=&quot;font-size: 14px&quot;&gt;การสมัครสมาชิก&lt;/span&gt;" style="edgeLabel;html=1;align=center;verticalAlign=middle;resizable=0;points=[];fontSize=12;" parent="_roPozjtuNkpOAK3JEYM-0" vertex="1" connectable="0">
          <mxGeometry x="0.064" y="2" relative="1" as="geometry">
            <mxPoint x="137" as="offset" />
          </mxGeometry>
        </mxCell>
        <mxCell id="_roPozjtuNkpOAK3JEYM-1" value="" style="endArrow=classic;html=1;fontSize=12;entryX=0.75;entryY=1;entryDx=0;entryDy=0;exitX=-0.003;exitY=0.113;exitDx=0;exitDy=0;exitPerimeter=0;" parent="gmjSNCvaZHBrkTGCBHyH-1" source="EdqVBh4EmT3sIRKprOQ1-1" target="FUptKpNbvVd9W_uUIe6t-60" edge="1">
          <mxGeometry width="50" height="50" relative="1" as="geometry">
            <mxPoint x="532" y="606" as="sourcePoint" />
            <mxPoint x="582" y="556" as="targetPoint" />
            <Array as="points">
              <mxPoint x="277" y="561" />
            </Array>
          </mxGeometry>
        </mxCell>
        <mxCell id="uURsTfS324qAyc0wiA76-0" value="&lt;span style=&quot;font-size: 14px&quot;&gt;รายละเอียดการเข้าสู่ระบบ&lt;/span&gt;" style="edgeLabel;html=1;align=center;verticalAlign=middle;resizable=0;points=[];fontSize=12;" parent="_roPozjtuNkpOAK3JEYM-1" vertex="1" connectable="0">
          <mxGeometry x="0.1236" relative="1" as="geometry">
            <mxPoint x="-0.89" as="offset" />
          </mxGeometry>
        </mxCell>
        <mxCell id="_roPozjtuNkpOAK3JEYM-2" value="" style="endArrow=classic;html=1;fontSize=12;exitX=-0.008;exitY=0.2;exitDx=0;exitDy=0;exitPerimeter=0;entryX=0.65;entryY=0.997;entryDx=0;entryDy=0;entryPerimeter=0;" parent="gmjSNCvaZHBrkTGCBHyH-1" source="EdqVBh4EmT3sIRKprOQ1-1" target="FUptKpNbvVd9W_uUIe6t-60" edge="1">
          <mxGeometry width="50" height="50" relative="1" as="geometry">
            <mxPoint x="532" y="606" as="sourcePoint" />
            <mxPoint x="582" y="556" as="targetPoint" />
            <Array as="points">
              <mxPoint x="247" y="576" />
            </Array>
          </mxGeometry>
        </mxCell>
        <mxCell id="zQSJCZSMkzOT8HJjdLrX-0" value="&lt;span style=&quot;font-size: 14px&quot;&gt;ข้อมูลผู้ใช้งานทั่วไป&lt;/span&gt;" style="edgeLabel;html=1;align=center;verticalAlign=middle;resizable=0;points=[];fontSize=12;" parent="_roPozjtuNkpOAK3JEYM-2" vertex="1" connectable="0">
          <mxGeometry x="-0.4467" y="1" relative="1" as="geometry">
            <mxPoint as="offset" />
          </mxGeometry>
        </mxCell>
        <mxCell id="_roPozjtuNkpOAK3JEYM-3" value="" style="endArrow=classic;html=1;fontSize=12;entryX=0.533;entryY=1;entryDx=0;entryDy=0;entryPerimeter=0;exitX=-0.003;exitY=0.313;exitDx=0;exitDy=0;exitPerimeter=0;" parent="gmjSNCvaZHBrkTGCBHyH-1" source="EdqVBh4EmT3sIRKprOQ1-1" target="FUptKpNbvVd9W_uUIe6t-60" edge="1">
          <mxGeometry width="50" height="50" relative="1" as="geometry">
            <mxPoint x="532" y="606" as="sourcePoint" />
            <mxPoint x="582" y="556" as="targetPoint" />
            <Array as="points">
              <mxPoint x="212" y="596" />
            </Array>
          </mxGeometry>
        </mxCell>
        <mxCell id="5vbo9NjtXHsF3NIm6V3k-0" value="&lt;span style=&quot;font-size: 14px&quot;&gt;คำตอบกลับการเป็นผู้รับฝาก&lt;/span&gt;" style="edgeLabel;html=1;align=center;verticalAlign=middle;resizable=0;points=[];fontSize=12;" parent="_roPozjtuNkpOAK3JEYM-3" vertex="1" connectable="0">
          <mxGeometry x="0.0631" y="2" relative="1" as="geometry">
            <mxPoint as="offset" />
          </mxGeometry>
        </mxCell>
        <mxCell id="_roPozjtuNkpOAK3JEYM-4" value="" style="endArrow=classic;html=1;fontSize=12;entryX=0.44;entryY=1.003;entryDx=0;entryDy=0;entryPerimeter=0;exitX=-0.005;exitY=0.44;exitDx=0;exitDy=0;exitPerimeter=0;" parent="gmjSNCvaZHBrkTGCBHyH-1" source="EdqVBh4EmT3sIRKprOQ1-1" target="FUptKpNbvVd9W_uUIe6t-60" edge="1">
          <mxGeometry width="50" height="50" relative="1" as="geometry">
            <mxPoint x="642" y="607" as="sourcePoint" />
            <mxPoint x="582" y="556" as="targetPoint" />
            <Array as="points">
              <mxPoint x="184" y="616" />
            </Array>
          </mxGeometry>
        </mxCell>
        <mxCell id="AssWQNPJvZmpHP5wHKr_-0" value="&lt;span style=&quot;font-size: 14px&quot;&gt;รายงานความประพฤติ&lt;/span&gt;" style="edgeLabel;html=1;align=center;verticalAlign=middle;resizable=0;points=[];fontSize=12;" parent="_roPozjtuNkpOAK3JEYM-4" vertex="1" connectable="0">
          <mxGeometry x="-0.4847" y="-3" relative="1" as="geometry">
            <mxPoint as="offset" />
          </mxGeometry>
        </mxCell>
        <mxCell id="_roPozjtuNkpOAK3JEYM-5" value="" style="endArrow=classic;html=1;fontSize=12;entryX=0.347;entryY=1.007;entryDx=0;entryDy=0;entryPerimeter=0;exitX=-0.008;exitY=0.553;exitDx=0;exitDy=0;exitPerimeter=0;" parent="gmjSNCvaZHBrkTGCBHyH-1" source="EdqVBh4EmT3sIRKprOQ1-1" target="FUptKpNbvVd9W_uUIe6t-60" edge="1">
          <mxGeometry width="50" height="50" relative="1" as="geometry">
            <mxPoint x="532" y="606" as="sourcePoint" />
            <mxPoint x="582" y="556" as="targetPoint" />
            <Array as="points">
              <mxPoint x="156" y="629" />
            </Array>
          </mxGeometry>
        </mxCell>
        <mxCell id="rwhmyYXV4mRmb5PXR3Tf-0" value="&lt;span style=&quot;font-size: 14px&quot;&gt;ข้อความจากผู้รับฝาก&lt;/span&gt;" style="edgeLabel;html=1;align=center;verticalAlign=middle;resizable=0;points=[];fontSize=12;" parent="_roPozjtuNkpOAK3JEYM-5" vertex="1" connectable="0">
          <mxGeometry x="0.0383" y="2" relative="1" as="geometry">
            <mxPoint as="offset" />
          </mxGeometry>
        </mxCell>
        <mxCell id="_roPozjtuNkpOAK3JEYM-6" value="" style="endArrow=classic;html=1;fontSize=12;entryX=0.22;entryY=1.01;entryDx=0;entryDy=0;entryPerimeter=0;exitX=-0.003;exitY=0.667;exitDx=0;exitDy=0;exitPerimeter=0;" parent="gmjSNCvaZHBrkTGCBHyH-1" source="EdqVBh4EmT3sIRKprOQ1-1" target="FUptKpNbvVd9W_uUIe6t-60" edge="1">
          <mxGeometry width="50" height="50" relative="1" as="geometry">
            <mxPoint x="532" y="606" as="sourcePoint" />
            <mxPoint x="582" y="556" as="targetPoint" />
            <Array as="points">
              <mxPoint x="118" y="646" />
            </Array>
          </mxGeometry>
        </mxCell>
        <mxCell id="ZaAYj96QCEXKTKobDLGa-0" value="&lt;span style=&quot;font-size: 14px&quot;&gt;รายละเอียดสถานะการฝาก&lt;/span&gt;" style="edgeLabel;html=1;align=center;verticalAlign=middle;resizable=0;points=[];fontSize=12;" parent="_roPozjtuNkpOAK3JEYM-6" vertex="1" connectable="0">
          <mxGeometry x="-0.4027" y="1" relative="1" as="geometry">
            <mxPoint as="offset" />
          </mxGeometry>
        </mxCell>
        <mxCell id="_roPozjtuNkpOAK3JEYM-7" value="" style="endArrow=classic;html=1;fontSize=12;entryX=0.124;entryY=1.007;entryDx=0;entryDy=0;entryPerimeter=0;exitX=-0.008;exitY=0.8;exitDx=0;exitDy=0;exitPerimeter=0;" parent="gmjSNCvaZHBrkTGCBHyH-1" source="EdqVBh4EmT3sIRKprOQ1-1" target="FUptKpNbvVd9W_uUIe6t-60" edge="1">
          <mxGeometry width="50" height="50" relative="1" as="geometry">
            <mxPoint x="532" y="606" as="sourcePoint" />
            <mxPoint x="582" y="556" as="targetPoint" />
            <Array as="points">
              <mxPoint x="89" y="666" />
            </Array>
          </mxGeometry>
        </mxCell>
        <mxCell id="k_V5B_pu2YCSvtiyiLsC-0" value="&lt;span style=&quot;font-size: 14px&quot;&gt;รายละเอียดการชำระเงิน&lt;/span&gt;" style="edgeLabel;html=1;align=center;verticalAlign=middle;resizable=0;points=[];fontSize=12;" parent="_roPozjtuNkpOAK3JEYM-7" vertex="1" connectable="0">
          <mxGeometry x="0.0245" y="1" relative="1" as="geometry">
            <mxPoint as="offset" />
          </mxGeometry>
        </mxCell>
        <mxCell id="kbss2IqNGSmmEJBzgxAy-0" value="ผู้รับฝาก" style="whiteSpace=wrap;html=1;aspect=fixed;align=center;" parent="gmjSNCvaZHBrkTGCBHyH-1" vertex="1">
          <mxGeometry x="1432" y="106" width="170" height="170" as="geometry" />
        </mxCell>
        <mxCell id="kbss2IqNGSmmEJBzgxAy-1" value="" style="endArrow=classic;html=1;fontSize=12;entryX=0.807;entryY=-0.02;entryDx=0;entryDy=0;entryPerimeter=0;" parent="gmjSNCvaZHBrkTGCBHyH-1" target="EdqVBh4EmT3sIRKprOQ1-0" edge="1">
          <mxGeometry width="50" height="50" relative="1" as="geometry">
            <mxPoint x="1429" y="126" as="sourcePoint" />
            <mxPoint x="1092" y="456" as="targetPoint" />
            <Array as="points">
              <mxPoint x="1074" y="126" />
            </Array>
          </mxGeometry>
        </mxCell>
        <mxCell id="ejRlx9TuA4cx7Snkuuva-0" value="&lt;span style=&quot;font-size: 14px&quot;&gt;การตอบกลับคำขอบริการ&lt;/span&gt;" style="edgeLabel;html=1;align=center;verticalAlign=middle;resizable=0;points=[];fontSize=12;" parent="kbss2IqNGSmmEJBzgxAy-1" vertex="1" connectable="0">
          <mxGeometry x="-0.6703" y="-2" relative="1" as="geometry">
            <mxPoint as="offset" />
          </mxGeometry>
        </mxCell>
        <mxCell id="kbss2IqNGSmmEJBzgxAy-2" value="" style="endArrow=classic;html=1;fontSize=12;entryX=0.861;entryY=-0.02;entryDx=0;entryDy=0;entryPerimeter=0;exitX=-0.003;exitY=0.328;exitDx=0;exitDy=0;exitPerimeter=0;" parent="gmjSNCvaZHBrkTGCBHyH-1" source="kbss2IqNGSmmEJBzgxAy-0" target="EdqVBh4EmT3sIRKprOQ1-0" edge="1">
          <mxGeometry width="50" height="50" relative="1" as="geometry">
            <mxPoint x="1432" y="149" as="sourcePoint" />
            <mxPoint x="1092" y="456" as="targetPoint" />
            <Array as="points">
              <mxPoint x="1101" y="162" />
            </Array>
          </mxGeometry>
        </mxCell>
        <mxCell id="pLKRrYJyPwdEXv_ylICM-0" value="&lt;span style=&quot;font-size: 14px&quot;&gt;ข้อความจากผู้รับฝาก&lt;/span&gt;" style="edgeLabel;html=1;align=center;verticalAlign=middle;resizable=0;points=[];fontSize=12;" parent="kbss2IqNGSmmEJBzgxAy-2" vertex="1" connectable="0">
          <mxGeometry x="-0.5749" relative="1" as="geometry">
            <mxPoint as="offset" />
          </mxGeometry>
        </mxCell>
        <mxCell id="kbss2IqNGSmmEJBzgxAy-3" value="" style="endArrow=classic;html=1;fontSize=12;entryX=0.914;entryY=-0.007;entryDx=0;entryDy=0;entryPerimeter=0;exitX=0;exitY=0.5;exitDx=0;exitDy=0;" parent="gmjSNCvaZHBrkTGCBHyH-1" source="kbss2IqNGSmmEJBzgxAy-0" target="EdqVBh4EmT3sIRKprOQ1-0" edge="1">
          <mxGeometry width="50" height="50" relative="1" as="geometry">
            <mxPoint x="1042" y="506" as="sourcePoint" />
            <mxPoint x="1092" y="456" as="targetPoint" />
            <Array as="points">
              <mxPoint x="1128" y="191" />
            </Array>
          </mxGeometry>
        </mxCell>
        <mxCell id="6aOUspk-grV8sk3Hn2ab-0" value="&lt;span style=&quot;font-size: 14px&quot;&gt;รายงานจากผู้รับฝาก&lt;/span&gt;" style="edgeLabel;html=1;align=center;verticalAlign=middle;resizable=0;points=[];fontSize=12;" parent="kbss2IqNGSmmEJBzgxAy-3" vertex="1" connectable="0">
          <mxGeometry x="-0.4623" y="-1" relative="1" as="geometry">
            <mxPoint x="8.24" y="1" as="offset" />
          </mxGeometry>
        </mxCell>
        <mxCell id="kbss2IqNGSmmEJBzgxAy-4" value="" style="endArrow=classic;html=1;fontSize=12;entryX=0.962;entryY=0.006;entryDx=0;entryDy=0;entryPerimeter=0;exitX=-0.017;exitY=0.702;exitDx=0;exitDy=0;exitPerimeter=0;" parent="gmjSNCvaZHBrkTGCBHyH-1" source="kbss2IqNGSmmEJBzgxAy-0" target="EdqVBh4EmT3sIRKprOQ1-0" edge="1">
          <mxGeometry width="50" height="50" relative="1" as="geometry">
            <mxPoint x="1042" y="506" as="sourcePoint" />
            <mxPoint x="1092" y="456" as="targetPoint" />
            <Array as="points">
              <mxPoint x="1153" y="225" />
            </Array>
          </mxGeometry>
        </mxCell>
        <mxCell id="Y5_bdoGKoWIyXai9iEyC-0" value="&lt;span style=&quot;font-size: 14px&quot;&gt;คำขอดูข้อมูลผู้รับฝาก&lt;/span&gt;" style="edgeLabel;html=1;align=center;verticalAlign=middle;resizable=0;points=[];fontSize=12;" parent="kbss2IqNGSmmEJBzgxAy-4" vertex="1" connectable="0">
          <mxGeometry x="-0.3872" y="3" relative="1" as="geometry">
            <mxPoint as="offset" />
          </mxGeometry>
        </mxCell>
        <mxCell id="vzlqzTrPnO-HsgCSIxgW-1" value="" style="endArrow=classic;html=1;fontSize=12;entryX=0.419;entryY=1.02;entryDx=0;entryDy=0;exitX=0.999;exitY=0.129;exitDx=0;exitDy=0;entryPerimeter=0;exitPerimeter=0;" parent="gmjSNCvaZHBrkTGCBHyH-1" source="EdqVBh4EmT3sIRKprOQ1-1" target="kbss2IqNGSmmEJBzgxAy-0" edge="1">
          <mxGeometry width="50" height="50" relative="1" as="geometry">
            <mxPoint x="1042" y="506" as="sourcePoint" />
            <mxPoint x="1092" y="456" as="targetPoint" />
            <Array as="points">
              <mxPoint x="1503" y="565" />
            </Array>
          </mxGeometry>
        </mxCell>
        <mxCell id="OHXFhh0LM1_6d7ZuB537-1" value="&lt;span style=&quot;font-size: 14px&quot;&gt;ข้อความจากผู้ใช้งานทั่วไป&lt;/span&gt;" style="edgeLabel;html=1;align=center;verticalAlign=middle;resizable=0;points=[];fontSize=12;" parent="vzlqzTrPnO-HsgCSIxgW-1" vertex="1" connectable="0">
          <mxGeometry x="-0.3481" y="-1" relative="1" as="geometry">
            <mxPoint x="29.33" as="offset" />
          </mxGeometry>
        </mxCell>
        <mxCell id="vzlqzTrPnO-HsgCSIxgW-3" value="" style="endArrow=classic;html=1;fontSize=12;entryX=0.163;entryY=1.007;entryDx=0;entryDy=0;entryPerimeter=0;exitX=1;exitY=0;exitDx=0;exitDy=0;" parent="gmjSNCvaZHBrkTGCBHyH-1" source="EdqVBh4EmT3sIRKprOQ1-1" target="kbss2IqNGSmmEJBzgxAy-0" edge="1">
          <mxGeometry width="50" height="50" relative="1" as="geometry">
            <mxPoint x="1042" y="506" as="sourcePoint" />
            <mxPoint x="1092" y="456" as="targetPoint" />
            <Array as="points">
              <mxPoint x="1460" y="546" />
            </Array>
          </mxGeometry>
        </mxCell>
        <mxCell id="OHXFhh0LM1_6d7ZuB537-0" value="&lt;span style=&quot;font-size: 14px&quot;&gt;รายละเอียดการใช้บริการ&lt;/span&gt;" style="edgeLabel;html=1;align=center;verticalAlign=middle;resizable=0;points=[];fontSize=12;" parent="vzlqzTrPnO-HsgCSIxgW-3" vertex="1" connectable="0">
          <mxGeometry x="-0.7695" y="1" relative="1" as="geometry">
            <mxPoint x="15.29" as="offset" />
          </mxGeometry>
        </mxCell>
        <mxCell id="vzlqzTrPnO-HsgCSIxgW-4" value="" style="endArrow=classic;html=1;fontSize=12;entryX=0.647;entryY=1.013;entryDx=0;entryDy=0;entryPerimeter=0;" parent="gmjSNCvaZHBrkTGCBHyH-1" target="kbss2IqNGSmmEJBzgxAy-0" edge="1">
          <mxGeometry width="50" height="50" relative="1" as="geometry">
            <mxPoint x="1172" y="586" as="sourcePoint" />
            <mxPoint x="1092" y="456" as="targetPoint" />
            <Array as="points">
              <mxPoint x="1542" y="586" />
            </Array>
          </mxGeometry>
        </mxCell>
        <mxCell id="OHXFhh0LM1_6d7ZuB537-2" value="&lt;span style=&quot;font-size: 14px&quot;&gt;รายงานความประพฤติ&lt;/span&gt;" style="edgeLabel;html=1;align=center;verticalAlign=middle;resizable=0;points=[];fontSize=12;" parent="vzlqzTrPnO-HsgCSIxgW-4" vertex="1" connectable="0">
          <mxGeometry x="-0.7933" y="-3" relative="1" as="geometry">
            <mxPoint x="-1" y="-4" as="offset" />
          </mxGeometry>
        </mxCell>
        <mxCell id="vzlqzTrPnO-HsgCSIxgW-5" value="" style="endArrow=classic;html=1;fontSize=12;entryX=0.876;entryY=1.034;entryDx=0;entryDy=0;entryPerimeter=0;exitX=1.006;exitY=0.451;exitDx=0;exitDy=0;exitPerimeter=0;" parent="gmjSNCvaZHBrkTGCBHyH-1" source="EdqVBh4EmT3sIRKprOQ1-1" target="kbss2IqNGSmmEJBzgxAy-0" edge="1">
          <mxGeometry width="50" height="50" relative="1" as="geometry">
            <mxPoint x="1042" y="506" as="sourcePoint" />
            <mxPoint x="1092" y="456" as="targetPoint" />
            <Array as="points">
              <mxPoint x="1581" y="614" />
            </Array>
          </mxGeometry>
        </mxCell>
        <mxCell id="Xu_tEtulQC2qoNGHitgZ-0" value="&lt;span style=&quot;font-size: 14px&quot;&gt;ข้อมูลการให้บริการ&lt;/span&gt;" style="edgeLabel;html=1;align=center;verticalAlign=middle;resizable=0;points=[];fontSize=12;" parent="vzlqzTrPnO-HsgCSIxgW-5" vertex="1" connectable="0">
          <mxGeometry x="-0.4009" y="-3" relative="1" as="geometry">
            <mxPoint as="offset" />
          </mxGeometry>
        </mxCell>
        <mxCell id="0abHZOZTCA883fqqwPJ8-0" value="ผู้ดูแล" style="whiteSpace=wrap;html=1;aspect=fixed;align=center;" parent="gmjSNCvaZHBrkTGCBHyH-1" vertex="1">
          <mxGeometry x="1352" y="936" width="140" height="140" as="geometry" />
        </mxCell>
        <mxCell id="0abHZOZTCA883fqqwPJ8-1" value="" style="endArrow=classic;html=1;fontSize=12;entryX=0.75;entryY=0;entryDx=0;entryDy=0;exitX=1.004;exitY=0.631;exitDx=0;exitDy=0;exitPerimeter=0;" parent="gmjSNCvaZHBrkTGCBHyH-1" source="EdqVBh4EmT3sIRKprOQ1-1" target="0abHZOZTCA883fqqwPJ8-0" edge="1">
          <mxGeometry width="50" height="50" relative="1" as="geometry">
            <mxPoint x="1042" y="726" as="sourcePoint" />
            <mxPoint x="1092" y="676" as="targetPoint" />
            <Array as="points">
              <mxPoint x="1457" y="641" />
            </Array>
          </mxGeometry>
        </mxCell>
        <mxCell id="hHy0i0xg_K4JOxKatq0c-0" value="&lt;span style=&quot;font-size: 14px&quot;&gt;ข้อมูลการลงทะเบียนเป็นผู้รับฝาก&lt;/span&gt;" style="edgeLabel;html=1;align=center;verticalAlign=middle;resizable=0;points=[];fontSize=12;" parent="0abHZOZTCA883fqqwPJ8-1" vertex="1" connectable="0">
          <mxGeometry x="-0.614" relative="1" as="geometry">
            <mxPoint as="offset" />
          </mxGeometry>
        </mxCell>
        <mxCell id="0abHZOZTCA883fqqwPJ8-2" value="" style="endArrow=classic;html=1;fontSize=12;exitX=0.999;exitY=0.851;exitDx=0;exitDy=0;exitPerimeter=0;entryX=0.25;entryY=0;entryDx=0;entryDy=0;" parent="gmjSNCvaZHBrkTGCBHyH-1" source="EdqVBh4EmT3sIRKprOQ1-1" target="0abHZOZTCA883fqqwPJ8-0" edge="1">
          <mxGeometry width="50" height="50" relative="1" as="geometry">
            <mxPoint x="1042" y="726" as="sourcePoint" />
            <mxPoint x="1092" y="676" as="targetPoint" />
            <Array as="points">
              <mxPoint x="1387" y="674" />
            </Array>
          </mxGeometry>
        </mxCell>
        <mxCell id="vjZ3cDQVO7Soiu_OwvFU-0" value="&lt;span style=&quot;font-size: 14px&quot;&gt;รายงานการบริการ&lt;/span&gt;" style="edgeLabel;html=1;align=center;verticalAlign=middle;resizable=0;points=[];fontSize=12;" parent="0abHZOZTCA883fqqwPJ8-2" vertex="1" connectable="0">
          <mxGeometry x="-0.7241" y="-2" relative="1" as="geometry">
            <mxPoint as="offset" />
          </mxGeometry>
        </mxCell>
        <mxCell id="0abHZOZTCA883fqqwPJ8-3" value="" style="endArrow=classic;html=1;fontSize=12;exitX=0;exitY=0.25;exitDx=0;exitDy=0;entryX=0.794;entryY=1.015;entryDx=0;entryDy=0;entryPerimeter=0;" parent="gmjSNCvaZHBrkTGCBHyH-1" source="0abHZOZTCA883fqqwPJ8-0" target="EdqVBh4EmT3sIRKprOQ1-1" edge="1">
          <mxGeometry width="50" height="50" relative="1" as="geometry">
            <mxPoint x="1042" y="726" as="sourcePoint" />
            <mxPoint x="1092" y="676" as="targetPoint" />
            <Array as="points">
              <mxPoint x="1067" y="971" />
            </Array>
          </mxGeometry>
        </mxCell>
        <mxCell id="v0bHANMr_1G-7FhS8vCA-0" value="&lt;span style=&quot;font-size: 14px&quot;&gt;รายงานความประพฤติผู้ใช้งาน&lt;/span&gt;" style="edgeLabel;html=1;align=center;verticalAlign=middle;resizable=0;points=[];fontSize=12;" parent="0abHZOZTCA883fqqwPJ8-3" vertex="1" connectable="0">
          <mxGeometry x="-0.4201" relative="1" as="geometry">
            <mxPoint x="-1" as="offset" />
          </mxGeometry>
        </mxCell>
        <mxCell id="0abHZOZTCA883fqqwPJ8-4" value="" style="endArrow=classic;html=1;fontSize=12;exitX=0;exitY=0.75;exitDx=0;exitDy=0;entryX=0.655;entryY=1.023;entryDx=0;entryDy=0;entryPerimeter=0;" parent="gmjSNCvaZHBrkTGCBHyH-1" source="0abHZOZTCA883fqqwPJ8-0" target="EdqVBh4EmT3sIRKprOQ1-1" edge="1">
          <mxGeometry width="50" height="50" relative="1" as="geometry">
            <mxPoint x="1042" y="726" as="sourcePoint" />
            <mxPoint x="1092" y="676" as="targetPoint" />
            <Array as="points">
              <mxPoint x="996" y="1041" />
            </Array>
          </mxGeometry>
        </mxCell>
        <mxCell id="g0ug5Pm6YqLcuad8DEbi-0" value="&lt;span style=&quot;font-size: 14px&quot;&gt;การอนุมัติการเป็นผู้รับฝาก&lt;/span&gt;" style="edgeLabel;html=1;align=center;verticalAlign=middle;resizable=0;points=[];fontSize=12;" parent="0abHZOZTCA883fqqwPJ8-4" vertex="1" connectable="0">
          <mxGeometry x="-0.2429" y="3" relative="1" as="geometry">
            <mxPoint x="-1" as="offset" />
          </mxGeometry>
        </mxCell>
        <mxCell id="sdaRSstmknB3t9J5XuK1-0" value="Hostdog - Context Diagram" style="text;html=1;align=center;verticalAlign=middle;resizable=0;points=[];autosize=1;" parent="gmjSNCvaZHBrkTGCBHyH-1" vertex="1">
          <mxGeometry x="40" y="20" width="160" height="20" as="geometry" />
        </mxCell>
      </root>
    </mxGraphModel>
  </diagram>
  <diagram id="DLidQtt993s1Ska8vfhd" name="level0">
    <mxGraphModel dx="3374" dy="2234" grid="1" gridSize="10" guides="1" tooltips="1" connect="1" arrows="1" fold="1" page="1" pageScale="1" pageWidth="2336" pageHeight="1654" math="0" shadow="0">
      <root>
        <mxCell id="9A_8ETiAixyMr5YRdV_Q-0" />
        <mxCell id="9A_8ETiAixyMr5YRdV_Q-1" parent="9A_8ETiAixyMr5YRdV_Q-0" />
        <mxCell id="_HhgxbdRh8H2i5fA2iZ0-0" style="edgeStyle=orthogonalEdgeStyle;rounded=0;orthogonalLoop=1;jettySize=auto;html=1;exitX=0.75;exitY=0;exitDx=0;exitDy=0;fontSize=14;entryX=0.5;entryY=0;entryDx=0;entryDy=0;" parent="9A_8ETiAixyMr5YRdV_Q-1" source="rsrurL2O80JzM8v2Z7GX-0" target="VgS7Dr-dxZbkq41CdY6H-11" edge="1">
          <mxGeometry relative="1" as="geometry">
            <mxPoint x="-1633" y="-1600" as="targetPoint" />
            <Array as="points">
              <mxPoint x="-1632" y="-1330" />
              <mxPoint x="-950" y="-1330" />
            </Array>
          </mxGeometry>
        </mxCell>
        <mxCell id="WPofNj6UHB7oxMdv3jrY-1" value="ข้อความจากผู้ใช้งานทั่วไป" style="edgeLabel;html=1;align=center;verticalAlign=middle;resizable=0;points=[];fontSize=14;" parent="_HhgxbdRh8H2i5fA2iZ0-0" connectable="0" vertex="1">
          <mxGeometry x="-0.0549" y="-4" relative="1" as="geometry">
            <mxPoint x="-1" as="offset" />
          </mxGeometry>
        </mxCell>
        <mxCell id="D8j0n_czXMFyoRq541QA-4" style="edgeStyle=orthogonalEdgeStyle;rounded=0;orthogonalLoop=1;jettySize=auto;html=1;exitX=0;exitY=0.25;exitDx=0;exitDy=0;entryX=1;entryY=0.143;entryDx=0;entryDy=0;entryPerimeter=0;fontSize=14;" parent="9A_8ETiAixyMr5YRdV_Q-1" source="rsrurL2O80JzM8v2Z7GX-0" target="VgS7Dr-dxZbkq41CdY6H-14" edge="1">
          <mxGeometry relative="1" as="geometry" />
        </mxCell>
        <mxCell id="4HJcy-D7l2Ye2ZPhVv08-0" value="ข้อมูลการเลือกบริการ" style="edgeLabel;html=1;align=center;verticalAlign=middle;resizable=0;points=[];fontSize=14;" parent="D8j0n_czXMFyoRq541QA-4" connectable="0" vertex="1">
          <mxGeometry x="0.2941" y="-3" relative="1" as="geometry">
            <mxPoint as="offset" />
          </mxGeometry>
        </mxCell>
        <mxCell id="wuG1T73Frd6Kg6NW4PjD-0" style="edgeStyle=orthogonalEdgeStyle;rounded=0;orthogonalLoop=1;jettySize=auto;html=1;exitX=0;exitY=0.75;exitDx=0;exitDy=0;fontSize=14;entryX=1.015;entryY=0.471;entryDx=0;entryDy=0;entryPerimeter=0;" parent="9A_8ETiAixyMr5YRdV_Q-1" source="rsrurL2O80JzM8v2Z7GX-0" target="VgS7Dr-dxZbkq41CdY6H-16" edge="1">
          <mxGeometry relative="1" as="geometry">
            <mxPoint x="-2000" y="-840" as="targetPoint" />
            <Array as="points">
              <mxPoint x="-1730" y="-1180" />
              <mxPoint x="-1980" y="-1180" />
              <mxPoint x="-1980" y="-838" />
            </Array>
          </mxGeometry>
        </mxCell>
        <mxCell id="3wtdyUAmoGqxKU49i90v-0" value="ข้อมูลการชำระเงิน" style="edgeLabel;html=1;align=center;verticalAlign=middle;resizable=0;points=[];fontSize=14;" parent="wuG1T73Frd6Kg6NW4PjD-0" connectable="0" vertex="1">
          <mxGeometry x="-0.4771" y="-1" relative="1" as="geometry">
            <mxPoint as="offset" />
          </mxGeometry>
        </mxCell>
        <mxCell id="SE3euF814XxRpiWNLWNz-0" style="edgeStyle=orthogonalEdgeStyle;rounded=0;orthogonalLoop=1;jettySize=auto;html=1;exitX=1.019;exitY=0.542;exitDx=0;exitDy=0;fontSize=14;exitPerimeter=0;entryX=0.75;entryY=0;entryDx=0;entryDy=0;" parent="9A_8ETiAixyMr5YRdV_Q-1" source="rsrurL2O80JzM8v2Z7GX-0" target="VgS7Dr-dxZbkq41CdY6H-17" edge="1">
          <mxGeometry relative="1" as="geometry">
            <mxPoint x="-1220" y="-960" as="targetPoint" />
            <Array as="points">
              <mxPoint x="-1599" y="-1229" />
              <mxPoint x="-1140" y="-1230" />
            </Array>
          </mxGeometry>
        </mxCell>
        <mxCell id="4OOZZMNen-RITxliUs-k-0" value="ข้อมูลการลงทะเบียนเป็นผู้รับฝาก" style="edgeLabel;html=1;align=center;verticalAlign=middle;resizable=0;points=[];fontSize=14;" parent="SE3euF814XxRpiWNLWNz-0" connectable="0" vertex="1">
          <mxGeometry x="-0.0706" y="5" relative="1" as="geometry">
            <mxPoint x="-147.17000000000002" y="5" as="offset" />
          </mxGeometry>
        </mxCell>
        <mxCell id="uzE_5VI-looR7YWyd7z2-0" style="edgeStyle=orthogonalEdgeStyle;rounded=0;orthogonalLoop=1;jettySize=auto;html=1;entryX=0.01;entryY=0.66;entryDx=0;entryDy=0;entryPerimeter=0;fontSize=14;" parent="9A_8ETiAixyMr5YRdV_Q-1" target="VgS7Dr-dxZbkq41CdY6H-20" edge="1">
          <mxGeometry relative="1" as="geometry">
            <mxPoint x="-1600" y="-1270" as="sourcePoint" />
            <Array as="points">
              <mxPoint x="-1070" y="-1270" />
              <mxPoint x="-1070" y="-1001" />
            </Array>
          </mxGeometry>
        </mxCell>
        <mxCell id="89W8DM2bu3DyQuHHQSjd-0" value="บันทึกรายงานจากผู้ใช้งานทั้่วไป" style="edgeLabel;html=1;align=center;verticalAlign=middle;resizable=0;points=[];fontSize=14;" parent="uzE_5VI-looR7YWyd7z2-0" connectable="0" vertex="1">
          <mxGeometry x="-0.502" y="-2" relative="1" as="geometry">
            <mxPoint as="offset" />
          </mxGeometry>
        </mxCell>
        <mxCell id="c-JGbBYjdkLv8DS3dFdu-7" style="edgeStyle=orthogonalEdgeStyle;rounded=0;orthogonalLoop=1;jettySize=auto;html=1;exitX=0.25;exitY=1;exitDx=0;exitDy=0;entryX=0.5;entryY=0;entryDx=0;entryDy=0;fontSize=14;" parent="9A_8ETiAixyMr5YRdV_Q-1" source="rsrurL2O80JzM8v2Z7GX-0" target="c-JGbBYjdkLv8DS3dFdu-0" edge="1">
          <mxGeometry relative="1" as="geometry">
            <Array as="points">
              <mxPoint x="-1697" y="-1150" />
              <mxPoint x="-1860" y="-1150" />
            </Array>
          </mxGeometry>
        </mxCell>
        <mxCell id="c-JGbBYjdkLv8DS3dFdu-8" value="ข้อมูลการค้นหาผู้รับฝาก" style="edgeLabel;html=1;align=center;verticalAlign=middle;resizable=0;points=[];fontSize=14;" parent="c-JGbBYjdkLv8DS3dFdu-7" connectable="0" vertex="1">
          <mxGeometry x="-0.0667" y="-2" relative="1" as="geometry">
            <mxPoint as="offset" />
          </mxGeometry>
        </mxCell>
        <mxCell id="rsrurL2O80JzM8v2Z7GX-0" value="ผู้ใช้งานทั่วไป" style="whiteSpace=wrap;html=1;aspect=fixed;align=center;" parent="9A_8ETiAixyMr5YRdV_Q-1" vertex="1">
          <mxGeometry x="-1730" y="-1300" width="130" height="130" as="geometry" />
        </mxCell>
        <mxCell id="p0Hp6p5-U4EWJJ1FoInb-1" style="edgeStyle=orthogonalEdgeStyle;rounded=0;orthogonalLoop=1;jettySize=auto;html=1;exitX=0;exitY=0.5;exitDx=0;exitDy=0;fontSize=14;" parent="9A_8ETiAixyMr5YRdV_Q-1" source="1ZE4sBguO259Xa5bre6t-0" edge="1">
          <mxGeometry relative="1" as="geometry">
            <mxPoint x="-1100" y="-870" as="targetPoint" />
            <Array as="points">
              <mxPoint x="-450" y="-870" />
              <mxPoint x="-1100" y="-870" />
            </Array>
          </mxGeometry>
        </mxCell>
        <mxCell id="WzY_s7l2juZv61tB_MF7-0" value="การอนุมัติการเป็นผู้รับฝาก" style="edgeLabel;html=1;align=center;verticalAlign=middle;resizable=0;points=[];fontSize=14;" parent="p0Hp6p5-U4EWJJ1FoInb-1" connectable="0" vertex="1">
          <mxGeometry x="0.3079" y="-3" relative="1" as="geometry">
            <mxPoint x="51.71" as="offset" />
          </mxGeometry>
        </mxCell>
        <mxCell id="gCL40TpO46ZHHE-oI6aM-0" style="edgeStyle=orthogonalEdgeStyle;rounded=0;orthogonalLoop=1;jettySize=auto;html=1;exitX=0.25;exitY=0;exitDx=0;exitDy=0;entryX=1.002;entryY=0.821;entryDx=0;entryDy=0;entryPerimeter=0;fontSize=14;" parent="9A_8ETiAixyMr5YRdV_Q-1" source="1ZE4sBguO259Xa5bre6t-0" target="VgS7Dr-dxZbkq41CdY6H-20" edge="1">
          <mxGeometry relative="1" as="geometry" />
        </mxCell>
        <mxCell id="piyKxwnB6zW_DzUWDp12-0" value="รายงานความประพฤติผู้ใช้งาน" style="edgeLabel;html=1;align=center;verticalAlign=middle;resizable=0;points=[];fontSize=14;" parent="gCL40TpO46ZHHE-oI6aM-0" connectable="0" vertex="1">
          <mxGeometry x="0.1673" y="-2" relative="1" as="geometry">
            <mxPoint as="offset" />
          </mxGeometry>
        </mxCell>
        <mxCell id="1ZE4sBguO259Xa5bre6t-0" value="ผู้ดูแล" style="whiteSpace=wrap;html=1;aspect=fixed;align=center;" parent="9A_8ETiAixyMr5YRdV_Q-1" vertex="1">
          <mxGeometry x="-450" y="-930" width="140" height="140" as="geometry" />
        </mxCell>
        <mxCell id="rkDJ5YOQviQkXkRluqjZ-4" style="edgeStyle=orthogonalEdgeStyle;rounded=0;orthogonalLoop=1;jettySize=auto;html=1;exitX=0;exitY=0.75;exitDx=0;exitDy=0;entryX=0.996;entryY=0.57;entryDx=0;entryDy=0;entryPerimeter=0;fontSize=14;" parent="9A_8ETiAixyMr5YRdV_Q-1" source="jNxnSxpEeuMbvvodt0Xn-0" target="VgS7Dr-dxZbkq41CdY6H-12" edge="1">
          <mxGeometry relative="1" as="geometry" />
        </mxCell>
        <mxCell id="LXSalGoOOZp4Zp5_DYNK-0" value="ข้อความจากผู้รับฝาก" style="edgeLabel;html=1;align=center;verticalAlign=middle;resizable=0;points=[];fontSize=14;" parent="rkDJ5YOQviQkXkRluqjZ-4" connectable="0" vertex="1">
          <mxGeometry x="-0.0906" y="-1" relative="1" as="geometry">
            <mxPoint as="offset" />
          </mxGeometry>
        </mxCell>
        <mxCell id="vDOnT7XryD8Jc5HZoPDx-1" style="edgeStyle=orthogonalEdgeStyle;rounded=0;orthogonalLoop=1;jettySize=auto;html=1;exitX=0.25;exitY=0;exitDx=0;exitDy=0;entryX=0.75;entryY=0;entryDx=0;entryDy=0;fontSize=14;" parent="9A_8ETiAixyMr5YRdV_Q-1" source="jNxnSxpEeuMbvvodt0Xn-0" target="VgS7Dr-dxZbkq41CdY6H-13" edge="1">
          <mxGeometry relative="1" as="geometry">
            <Array as="points">
              <mxPoint x="-415" y="-1380" />
              <mxPoint x="-2060" y="-1380" />
            </Array>
          </mxGeometry>
        </mxCell>
        <mxCell id="fosTrL3PBHlHJvL6Yfzd-1" value="การตอบกลับคำขอบริการ" style="edgeLabel;html=1;align=center;verticalAlign=middle;resizable=0;points=[];fontSize=14;" parent="vDOnT7XryD8Jc5HZoPDx-1" connectable="0" vertex="1">
          <mxGeometry x="0.0629" y="-1" relative="1" as="geometry">
            <mxPoint x="-1" as="offset" />
          </mxGeometry>
        </mxCell>
        <mxCell id="Y8xJ2pvryve8uWpy4LSR-1" style="edgeStyle=orthogonalEdgeStyle;rounded=0;orthogonalLoop=1;jettySize=auto;html=1;exitX=0.5;exitY=1;exitDx=0;exitDy=0;entryX=0.5;entryY=0;entryDx=0;entryDy=0;fontSize=14;" parent="9A_8ETiAixyMr5YRdV_Q-1" source="jNxnSxpEeuMbvvodt0Xn-0" target="VgS7Dr-dxZbkq41CdY6H-19" edge="1">
          <mxGeometry relative="1" as="geometry">
            <Array as="points">
              <mxPoint x="-380" y="-1110" />
              <mxPoint x="-950" y="-1110" />
            </Array>
          </mxGeometry>
        </mxCell>
        <mxCell id="F6NN7lZeUobAer6O3-Zs-0" value="รายงานจากผู้รับฝาก" style="edgeLabel;html=1;align=center;verticalAlign=middle;resizable=0;points=[];fontSize=14;" parent="Y8xJ2pvryve8uWpy4LSR-1" connectable="0" vertex="1">
          <mxGeometry x="-0.0462" y="-2" relative="1" as="geometry">
            <mxPoint x="-28" as="offset" />
          </mxGeometry>
        </mxCell>
        <mxCell id="Ywx9RKhj8hbkJZD346N5-1" style="edgeStyle=orthogonalEdgeStyle;rounded=0;orthogonalLoop=1;jettySize=auto;html=1;exitX=1;exitY=0.75;exitDx=0;exitDy=0;fontSize=14;entryX=1;entryY=0.778;entryDx=0;entryDy=0;entryPerimeter=0;" parent="9A_8ETiAixyMr5YRdV_Q-1" source="jNxnSxpEeuMbvvodt0Xn-0" edge="1">
          <mxGeometry relative="1" as="geometry">
            <mxPoint x="-1585" y="-619.98" as="targetPoint" />
            <Array as="points">
              <mxPoint x="-140" y="-1200" />
              <mxPoint x="-140" y="-620" />
            </Array>
          </mxGeometry>
        </mxCell>
        <mxCell id="hNOtVSc2JOCiKfWM7Iyp-0" value="คำขอดูข้อมูลผู้รับฝาก" style="edgeLabel;html=1;align=center;verticalAlign=middle;resizable=0;points=[];fontSize=14;" parent="Ywx9RKhj8hbkJZD346N5-1" connectable="0" vertex="1">
          <mxGeometry x="-0.9104" relative="1" as="geometry">
            <mxPoint x="-1.1799999999999997" as="offset" />
          </mxGeometry>
        </mxCell>
        <mxCell id="jNxnSxpEeuMbvvodt0Xn-0" value="ผู้รับฝาก" style="whiteSpace=wrap;html=1;aspect=fixed;align=center;" parent="9A_8ETiAixyMr5YRdV_Q-1" vertex="1">
          <mxGeometry x="-450" y="-1305" width="140" height="140" as="geometry" />
        </mxCell>
        <mxCell id="Ywx9RKhj8hbkJZD346N5-0" style="edgeStyle=orthogonalEdgeStyle;rounded=0;orthogonalLoop=1;jettySize=auto;html=1;exitX=1.014;exitY=0.558;exitDx=0;exitDy=0;fontSize=14;exitPerimeter=0;" parent="9A_8ETiAixyMr5YRdV_Q-1" edge="1">
          <mxGeometry relative="1" as="geometry">
            <mxPoint x="-310" y="-1180" as="targetPoint" />
            <Array as="points">
              <mxPoint x="-160" y="-640" />
              <mxPoint x="-160" y="-1180" />
            </Array>
            <mxPoint x="-1582.7600000000002" y="-639.78" as="sourcePoint" />
          </mxGeometry>
        </mxCell>
        <mxCell id="cYsKc8wLxTwlnkXzNT2M-0" value="ข้อมูลการให้บริการ" style="edgeLabel;html=1;align=center;verticalAlign=middle;resizable=0;points=[];fontSize=14;" parent="Ywx9RKhj8hbkJZD346N5-0" connectable="0" vertex="1">
          <mxGeometry x="0.9218" relative="1" as="geometry">
            <mxPoint as="offset" />
          </mxGeometry>
        </mxCell>
        <mxCell id="GK_1vm2YcQaMh61OqLby-0" style="edgeStyle=orthogonalEdgeStyle;rounded=0;orthogonalLoop=1;jettySize=auto;html=1;exitX=0.75;exitY=0;exitDx=0;exitDy=0;entryX=0.5;entryY=0;entryDx=0;entryDy=0;fontSize=14;" parent="9A_8ETiAixyMr5YRdV_Q-1" source="VgS7Dr-dxZbkq41CdY6H-11" target="rsrurL2O80JzM8v2Z7GX-0" edge="1">
          <mxGeometry relative="1" as="geometry">
            <Array as="points">
              <mxPoint x="-910" y="-1350" />
              <mxPoint x="-1665" y="-1350" />
            </Array>
          </mxGeometry>
        </mxCell>
        <mxCell id="GK_1vm2YcQaMh61OqLby-1" value="ข้อความจากผู้รับฝาก" style="edgeLabel;html=1;align=center;verticalAlign=middle;resizable=0;points=[];fontSize=14;" parent="GK_1vm2YcQaMh61OqLby-0" connectable="0" vertex="1">
          <mxGeometry x="0.0734" y="-2" relative="1" as="geometry">
            <mxPoint as="offset" />
          </mxGeometry>
        </mxCell>
        <mxCell id="rkDJ5YOQviQkXkRluqjZ-6" style="edgeStyle=orthogonalEdgeStyle;rounded=0;orthogonalLoop=1;jettySize=auto;html=1;exitX=1;exitY=0.5;exitDx=0;exitDy=0;entryX=0.009;entryY=0.604;entryDx=0;entryDy=0;entryPerimeter=0;fontSize=14;" parent="9A_8ETiAixyMr5YRdV_Q-1" source="VgS7Dr-dxZbkq41CdY6H-11" target="jNxnSxpEeuMbvvodt0Xn-0" edge="1">
          <mxGeometry relative="1" as="geometry" />
        </mxCell>
        <mxCell id="FyCFa0Vt_YDdJEsq-bgu-0" value="ข้อความจากผู้ใช้งานทั่วไป" style="edgeLabel;html=1;align=center;verticalAlign=middle;resizable=0;points=[];fontSize=14;" parent="rkDJ5YOQviQkXkRluqjZ-6" connectable="0" vertex="1">
          <mxGeometry x="-0.3501" y="1" relative="1" as="geometry">
            <mxPoint x="-1" as="offset" />
          </mxGeometry>
        </mxCell>
        <mxCell id="VgS7Dr-dxZbkq41CdY6H-11" value="5" style="swimlane;childLayout=stackLayout;horizontal=1;startSize=30;horizontalStack=0;rounded=1;fontSize=14;fontStyle=0;strokeWidth=2;resizeParent=0;resizeLast=1;shadow=0;dashed=0;align=center;labelPosition=center;verticalLabelPosition=middle;verticalAlign=middle;" parent="9A_8ETiAixyMr5YRdV_Q-1" vertex="1">
          <mxGeometry x="-1030" y="-1280" width="160" height="120" as="geometry" />
        </mxCell>
        <mxCell id="VgS7Dr-dxZbkq41CdY6H-12" value="แชท" style="text;html=1;align=center;verticalAlign=middle;resizable=0;points=[];autosize=1;" parent="VgS7Dr-dxZbkq41CdY6H-11" vertex="1">
          <mxGeometry y="30" width="160" height="90" as="geometry" />
        </mxCell>
        <mxCell id="U82IzIngVydl4fiugQDF-0" style="edgeStyle=orthogonalEdgeStyle;rounded=0;orthogonalLoop=1;jettySize=auto;html=1;exitX=0.5;exitY=0;exitDx=0;exitDy=0;entryX=0.5;entryY=0;entryDx=0;entryDy=0;fontSize=14;" parent="9A_8ETiAixyMr5YRdV_Q-1" source="VgS7Dr-dxZbkq41CdY6H-13" target="jNxnSxpEeuMbvvodt0Xn-0" edge="1">
          <mxGeometry relative="1" as="geometry">
            <Array as="points">
              <mxPoint x="-2100" y="-1410" />
              <mxPoint x="-380" y="-1410" />
            </Array>
          </mxGeometry>
        </mxCell>
        <mxCell id="vDOnT7XryD8Jc5HZoPDx-0" value="รายละเอียดการใช้บริการ" style="edgeLabel;html=1;align=center;verticalAlign=middle;resizable=0;points=[];fontSize=14;" parent="U82IzIngVydl4fiugQDF-0" connectable="0" vertex="1">
          <mxGeometry x="-0.0197" y="-1" relative="1" as="geometry">
            <mxPoint x="-43.59" as="offset" />
          </mxGeometry>
        </mxCell>
        <mxCell id="VgS7Dr-dxZbkq41CdY6H-13" value="6" style="swimlane;childLayout=stackLayout;horizontal=1;startSize=30;horizontalStack=0;rounded=1;fontSize=14;fontStyle=0;strokeWidth=2;resizeParent=0;resizeLast=1;shadow=0;align=center;labelPosition=center;verticalLabelPosition=middle;verticalAlign=middle;arcSize=15;perimeterSpacing=0;" parent="9A_8ETiAixyMr5YRdV_Q-1" vertex="1">
          <mxGeometry x="-2180" y="-1310" width="160" height="120" as="geometry" />
        </mxCell>
        <mxCell id="VgS7Dr-dxZbkq41CdY6H-14" value="&lt;span id=&quot;docs-internal-guid-d64b16aa-7fff-1af0-6d6e-5e0488f46c7e&quot;&gt;&lt;span style=&quot;font-size: 11pt ; font-family: &amp;#34;arial&amp;#34; ; background-color: transparent ; vertical-align: baseline&quot;&gt;ฝากสุนัข&lt;/span&gt;&lt;/span&gt;" style="text;html=1;align=center;verticalAlign=middle;resizable=0;points=[];autosize=1;rounded=0;" parent="VgS7Dr-dxZbkq41CdY6H-13" vertex="1">
          <mxGeometry y="30" width="160" height="90" as="geometry" />
        </mxCell>
        <mxCell id="wuG1T73Frd6Kg6NW4PjD-1" style="edgeStyle=orthogonalEdgeStyle;rounded=0;orthogonalLoop=1;jettySize=auto;html=1;exitX=1;exitY=0.25;exitDx=0;exitDy=0;fontSize=14;entryX=0;entryY=0.75;entryDx=0;entryDy=0;" parent="9A_8ETiAixyMr5YRdV_Q-1" source="VgS7Dr-dxZbkq41CdY6H-15" target="rsrurL2O80JzM8v2Z7GX-0" edge="1">
          <mxGeometry relative="1" as="geometry">
            <mxPoint x="-2010" y="-1200" as="targetPoint" />
            <Array as="points">
              <mxPoint x="-2010" y="-880" />
              <mxPoint x="-2010" y="-1202" />
            </Array>
          </mxGeometry>
        </mxCell>
        <mxCell id="8cOvpUhUilvIkRORh-DX-0" value="รายละเอียดการชำระเงิน" style="edgeLabel;html=1;align=center;verticalAlign=middle;resizable=0;points=[];fontSize=14;" parent="wuG1T73Frd6Kg6NW4PjD-1" connectable="0" vertex="1">
          <mxGeometry x="0.4561" y="5" relative="1" as="geometry">
            <mxPoint as="offset" />
          </mxGeometry>
        </mxCell>
        <mxCell id="VgS7Dr-dxZbkq41CdY6H-15" value="7" style="swimlane;childLayout=stackLayout;horizontal=1;startSize=30;horizontalStack=0;rounded=1;fontSize=14;fontStyle=0;strokeWidth=2;resizeParent=0;resizeLast=1;shadow=0;dashed=0;align=center;labelPosition=center;verticalLabelPosition=middle;verticalAlign=middle;" parent="9A_8ETiAixyMr5YRdV_Q-1" vertex="1">
          <mxGeometry x="-2190" y="-910" width="160" height="120" as="geometry" />
        </mxCell>
        <mxCell id="VgS7Dr-dxZbkq41CdY6H-16" value="จ่ายเงิน" style="text;html=1;align=center;verticalAlign=middle;resizable=0;points=[];autosize=1;" parent="VgS7Dr-dxZbkq41CdY6H-15" vertex="1">
          <mxGeometry y="30" width="160" height="90" as="geometry" />
        </mxCell>
        <mxCell id="SE3euF814XxRpiWNLWNz-1" style="edgeStyle=orthogonalEdgeStyle;rounded=0;orthogonalLoop=1;jettySize=auto;html=1;exitX=0.873;exitY=0.001;exitDx=0;exitDy=0;fontSize=14;exitPerimeter=0;" parent="9A_8ETiAixyMr5YRdV_Q-1" source="VgS7Dr-dxZbkq41CdY6H-17" edge="1">
          <mxGeometry relative="1" as="geometry">
            <mxPoint x="-1600" y="-1250" as="targetPoint" />
            <Array as="points">
              <mxPoint x="-1120" y="-1250" />
            </Array>
          </mxGeometry>
        </mxCell>
        <mxCell id="iZTfIYN6OChSf1ZxrUVH-0" value="คำตอบกลับการเป็นผู้รับฝาก" style="edgeLabel;html=1;align=center;verticalAlign=middle;resizable=0;points=[];fontSize=14;" parent="SE3euF814XxRpiWNLWNz-1" connectable="0" vertex="1">
          <mxGeometry x="0.5259" relative="1" as="geometry">
            <mxPoint x="1" as="offset" />
          </mxGeometry>
        </mxCell>
        <mxCell id="p0Hp6p5-U4EWJJ1FoInb-0" style="edgeStyle=orthogonalEdgeStyle;rounded=0;orthogonalLoop=1;jettySize=auto;html=1;exitX=1;exitY=0.25;exitDx=0;exitDy=0;entryX=0;entryY=0.25;entryDx=0;entryDy=0;fontSize=14;" parent="9A_8ETiAixyMr5YRdV_Q-1" source="VgS7Dr-dxZbkq41CdY6H-17" target="1ZE4sBguO259Xa5bre6t-0" edge="1">
          <mxGeometry relative="1" as="geometry">
            <Array as="points">
              <mxPoint x="-1100" y="-895" />
            </Array>
          </mxGeometry>
        </mxCell>
        <mxCell id="NbvnfsNwLtokc521i32g-0" value="ข้อมูลการลงทะเบียนเป็นผู้รับฝาก" style="edgeLabel;html=1;align=center;verticalAlign=middle;resizable=0;points=[];fontSize=14;" parent="p0Hp6p5-U4EWJJ1FoInb-0" connectable="0" vertex="1">
          <mxGeometry x="-0.1258" y="2" relative="1" as="geometry">
            <mxPoint as="offset" />
          </mxGeometry>
        </mxCell>
        <mxCell id="VgS7Dr-dxZbkq41CdY6H-17" value="8" style="swimlane;childLayout=stackLayout;horizontal=1;startSize=30;horizontalStack=0;rounded=1;fontSize=14;fontStyle=0;strokeWidth=2;resizeParent=0;resizeLast=1;shadow=0;dashed=0;align=center;labelPosition=center;verticalLabelPosition=middle;verticalAlign=middle;" parent="9A_8ETiAixyMr5YRdV_Q-1" vertex="1">
          <mxGeometry x="-1260" y="-920" width="160" height="120" as="geometry" />
        </mxCell>
        <mxCell id="VgS7Dr-dxZbkq41CdY6H-18" value="ลงทะเบียนเป็นผู้รับฝาก" style="text;html=1;align=center;verticalAlign=middle;resizable=0;points=[];autosize=1;" parent="VgS7Dr-dxZbkq41CdY6H-17" vertex="1">
          <mxGeometry y="30" width="160" height="90" as="geometry" />
        </mxCell>
        <mxCell id="8ApRC7VzrBn3RpaRPjp1-0" style="edgeStyle=orthogonalEdgeStyle;rounded=0;orthogonalLoop=1;jettySize=auto;html=1;exitX=0;exitY=0.5;exitDx=0;exitDy=0;fontSize=14;" parent="9A_8ETiAixyMr5YRdV_Q-1" source="VgS7Dr-dxZbkq41CdY6H-19" edge="1">
          <mxGeometry relative="1" as="geometry">
            <mxPoint x="-1600" y="-1290" as="targetPoint" />
            <Array as="points">
              <mxPoint x="-1050" y="-1030" />
              <mxPoint x="-1050" y="-1290" />
            </Array>
          </mxGeometry>
        </mxCell>
        <mxCell id="Sl9pUnCrsk5PVMPITTmo-0" value="รายงานความประพฤติ" style="edgeLabel;html=1;align=center;verticalAlign=middle;resizable=0;points=[];fontSize=14;" parent="8ApRC7VzrBn3RpaRPjp1-0" connectable="0" vertex="1">
          <mxGeometry x="0.5221" y="-1" relative="1" as="geometry">
            <mxPoint as="offset" />
          </mxGeometry>
        </mxCell>
        <mxCell id="Y8xJ2pvryve8uWpy4LSR-0" style="edgeStyle=orthogonalEdgeStyle;rounded=0;orthogonalLoop=1;jettySize=auto;html=1;exitX=0.25;exitY=0;exitDx=0;exitDy=0;entryX=0.25;entryY=1;entryDx=0;entryDy=0;fontSize=14;" parent="9A_8ETiAixyMr5YRdV_Q-1" source="VgS7Dr-dxZbkq41CdY6H-19" target="jNxnSxpEeuMbvvodt0Xn-0" edge="1">
          <mxGeometry relative="1" as="geometry">
            <Array as="points">
              <mxPoint x="-990" y="-1140" />
              <mxPoint x="-415" y="-1140" />
            </Array>
          </mxGeometry>
        </mxCell>
        <mxCell id="HTw7uaAqDpkPSx3_eUg3-0" value="รายงานความประพฤติ" style="edgeLabel;html=1;align=center;verticalAlign=middle;resizable=0;points=[];fontSize=14;" parent="Y8xJ2pvryve8uWpy4LSR-0" connectable="0" vertex="1">
          <mxGeometry x="0.174" relative="1" as="geometry">
            <mxPoint as="offset" />
          </mxGeometry>
        </mxCell>
        <mxCell id="gCL40TpO46ZHHE-oI6aM-2" style="edgeStyle=orthogonalEdgeStyle;rounded=0;orthogonalLoop=1;jettySize=auto;html=1;exitX=1;exitY=0.25;exitDx=0;exitDy=0;fontSize=14;" parent="9A_8ETiAixyMr5YRdV_Q-1" source="VgS7Dr-dxZbkq41CdY6H-19" edge="1">
          <mxGeometry relative="1" as="geometry">
            <mxPoint x="-390" y="-930" as="targetPoint" />
            <Array as="points">
              <mxPoint x="-870" y="-1010" />
              <mxPoint x="-390" y="-1010" />
              <mxPoint x="-390" y="-930" />
            </Array>
          </mxGeometry>
        </mxCell>
        <mxCell id="K8-Rm2Scx2IfYmMk6bWy-0" value="รายงานการบริการ" style="edgeLabel;html=1;align=center;verticalAlign=middle;resizable=0;points=[];fontSize=14;" parent="gCL40TpO46ZHHE-oI6aM-2" connectable="0" vertex="1">
          <mxGeometry x="-0.1102" y="-1" relative="1" as="geometry">
            <mxPoint as="offset" />
          </mxGeometry>
        </mxCell>
        <mxCell id="VgS7Dr-dxZbkq41CdY6H-19" value="9" style="swimlane;childLayout=stackLayout;horizontal=1;startSize=30;horizontalStack=0;rounded=1;fontSize=14;fontStyle=0;strokeWidth=2;resizeParent=0;resizeLast=1;shadow=0;dashed=0;align=center;labelPosition=center;verticalLabelPosition=middle;verticalAlign=middle;" parent="9A_8ETiAixyMr5YRdV_Q-1" vertex="1">
          <mxGeometry x="-1030" y="-1090" width="160" height="120" as="geometry" />
        </mxCell>
        <mxCell id="VgS7Dr-dxZbkq41CdY6H-20" value="รายงานผู้ใช้งาน" style="text;html=1;align=center;verticalAlign=middle;resizable=0;points=[];autosize=1;" parent="VgS7Dr-dxZbkq41CdY6H-19" vertex="1">
          <mxGeometry y="30" width="160" height="90" as="geometry" />
        </mxCell>
        <mxCell id="1efhGdtfCkmvuHRXnpsG-3" value="" style="endArrow=classic;html=1;fontSize=14;exitX=0.5;exitY=1;exitDx=0;exitDy=0;entryX=0.5;entryY=0;entryDx=0;entryDy=0;" parent="9A_8ETiAixyMr5YRdV_Q-1" source="rsrurL2O80JzM8v2Z7GX-0" target="lzvk5zXQClIG6rzkLCPY-5" edge="1">
          <mxGeometry width="50" height="50" relative="1" as="geometry">
            <mxPoint x="-1705" y="-1170" as="sourcePoint" />
            <mxPoint x="-1665" y="-910" as="targetPoint" />
          </mxGeometry>
        </mxCell>
        <mxCell id="D8j0n_czXMFyoRq541QA-6" value="" style="endArrow=classic;html=1;fontSize=14;entryX=1;entryY=0.5;entryDx=0;entryDy=0;" parent="9A_8ETiAixyMr5YRdV_Q-1" target="VgS7Dr-dxZbkq41CdY6H-13" edge="1">
          <mxGeometry width="50" height="50" relative="1" as="geometry">
            <mxPoint x="-1733" y="-1250" as="sourcePoint" />
            <mxPoint x="-1900" y="-1210" as="targetPoint" />
          </mxGeometry>
        </mxCell>
        <mxCell id="_0QAyfCXdrOKaVywUEh8-0" value="คะแนนผู้รับฝาก" style="edgeLabel;html=1;align=center;verticalAlign=middle;resizable=0;points=[];fontSize=14;" parent="D8j0n_czXMFyoRq541QA-6" connectable="0" vertex="1">
          <mxGeometry x="0.2915" y="-1" relative="1" as="geometry">
            <mxPoint as="offset" />
          </mxGeometry>
        </mxCell>
        <mxCell id="zSAgASfxNJqw-qDveOnh-0" value="" style="endArrow=classic;html=1;fontSize=14;" parent="9A_8ETiAixyMr5YRdV_Q-1" edge="1">
          <mxGeometry width="50" height="50" relative="1" as="geometry">
            <mxPoint x="-2020" y="-1222" as="sourcePoint" />
            <mxPoint x="-1730" y="-1222" as="targetPoint" />
          </mxGeometry>
        </mxCell>
        <mxCell id="zSAgASfxNJqw-qDveOnh-1" value="รายละเอียดสถานะการฝาก" style="edgeLabel;html=1;align=center;verticalAlign=middle;resizable=0;points=[];fontSize=14;" parent="zSAgASfxNJqw-qDveOnh-0" connectable="0" vertex="1">
          <mxGeometry x="-0.1131" y="1" relative="1" as="geometry">
            <mxPoint as="offset" />
          </mxGeometry>
        </mxCell>
        <mxCell id="cTDz7JanEmP634jY1mnS-0" value="องค์กร" style="whiteSpace=wrap;html=1;aspect=fixed;align=center;" parent="9A_8ETiAixyMr5YRdV_Q-1" vertex="1">
          <mxGeometry x="-2182.5" y="-630" width="145" height="145" as="geometry" />
        </mxCell>
        <mxCell id="c-JGbBYjdkLv8DS3dFdu-5" style="edgeStyle=orthogonalEdgeStyle;rounded=0;orthogonalLoop=1;jettySize=auto;html=1;exitX=0.75;exitY=0;exitDx=0;exitDy=0;entryX=0.394;entryY=0.992;entryDx=0;entryDy=0;entryPerimeter=0;fontSize=14;" parent="9A_8ETiAixyMr5YRdV_Q-1" source="c-JGbBYjdkLv8DS3dFdu-0" target="rsrurL2O80JzM8v2Z7GX-0" edge="1">
          <mxGeometry relative="1" as="geometry" />
        </mxCell>
        <mxCell id="c-JGbBYjdkLv8DS3dFdu-6" value="รายละเอียดผู้รับฝาก" style="edgeLabel;html=1;align=center;verticalAlign=middle;resizable=0;points=[];fontSize=14;" parent="c-JGbBYjdkLv8DS3dFdu-5" connectable="0" vertex="1">
          <mxGeometry x="-0.1559" y="4" relative="1" as="geometry">
            <mxPoint as="offset" />
          </mxGeometry>
        </mxCell>
        <mxCell id="c-JGbBYjdkLv8DS3dFdu-0" value="4" style="swimlane;childLayout=stackLayout;horizontal=1;startSize=30;horizontalStack=0;rounded=1;fontSize=14;fontStyle=0;strokeWidth=2;resizeParent=0;resizeLast=1;shadow=0;dashed=0;align=center;labelPosition=center;verticalLabelPosition=middle;verticalAlign=middle;" parent="9A_8ETiAixyMr5YRdV_Q-1" vertex="1">
          <mxGeometry x="-1940" y="-1090" width="160" height="120" as="geometry" />
        </mxCell>
        <mxCell id="c-JGbBYjdkLv8DS3dFdu-1" value="ค้นหาผู้รับฝาก" style="text;html=1;align=center;verticalAlign=middle;resizable=0;points=[];autosize=1;" parent="c-JGbBYjdkLv8DS3dFdu-0" vertex="1">
          <mxGeometry y="30" width="160" height="90" as="geometry" />
        </mxCell>
        <mxCell id="c-JGbBYjdkLv8DS3dFdu-4" style="edgeStyle=orthogonalEdgeStyle;rounded=0;orthogonalLoop=1;jettySize=auto;html=1;exitX=0.5;exitY=0;exitDx=0;exitDy=0;entryX=0.498;entryY=1.017;entryDx=0;entryDy=0;entryPerimeter=0;fontSize=14;" parent="9A_8ETiAixyMr5YRdV_Q-1" source="c-JGbBYjdkLv8DS3dFdu-2" target="c-JGbBYjdkLv8DS3dFdu-1" edge="1">
          <mxGeometry relative="1" as="geometry" />
        </mxCell>
        <mxCell id="c-JGbBYjdkLv8DS3dFdu-2" value="D4&amp;nbsp; &amp;nbsp; ข้อมูลผู้รับฝาก" style="html=1;dashed=0;whitespace=wrap;shape=mxgraph.dfd.dataStoreID;align=left;spacingLeft=3;points=[[0,0],[0.5,0],[1,0],[0,0.5],[1,0.5],[0,1],[0.5,1],[1,1]];" parent="9A_8ETiAixyMr5YRdV_Q-1" vertex="1">
          <mxGeometry x="-1950" y="-900" width="180" height="30" as="geometry" />
        </mxCell>
        <mxCell id="SuW0Rl8o2qc-Uctly9kb-0" value="Hostdog - DFD Level 0" style="text;html=1;align=center;verticalAlign=middle;resizable=0;points=[];autosize=1;" parent="9A_8ETiAixyMr5YRdV_Q-1" vertex="1">
          <mxGeometry x="-2280" y="-1590" width="140" height="20" as="geometry" />
        </mxCell>
        <mxCell id="J7HFAPNs2h_n7S2CV_qP-1" style="edgeStyle=orthogonalEdgeStyle;rounded=0;orthogonalLoop=1;jettySize=auto;html=1;exitX=0.5;exitY=1;exitDx=0;exitDy=0;entryX=0.5;entryY=0;entryDx=0;entryDy=0;" parent="9A_8ETiAixyMr5YRdV_Q-1" source="J7HFAPNs2h_n7S2CV_qP-0" target="VgS7Dr-dxZbkq41CdY6H-15" edge="1">
          <mxGeometry relative="1" as="geometry" />
        </mxCell>
        <mxCell id="J7HFAPNs2h_n7S2CV_qP-0" value="&amp;nbsp;D7&amp;nbsp; &amp;nbsp; &amp;nbsp; &amp;nbsp;บันทึกการชำระเงิน" style="html=1;dashed=0;whitespace=wrap;shape=mxgraph.dfd.dataStoreID;align=left;spacingLeft=3;points=[[0,0],[0.5,0],[1,0],[0,0.5],[1,0.5],[0,1],[0.5,1],[1,1]];" parent="9A_8ETiAixyMr5YRdV_Q-1" vertex="1">
          <mxGeometry x="-2195" y="-1020" width="170" height="30" as="geometry" />
        </mxCell>
        <mxCell id="J7HFAPNs2h_n7S2CV_qP-2" style="edgeStyle=orthogonalEdgeStyle;rounded=0;orthogonalLoop=1;jettySize=auto;html=1;entryX=0.5;entryY=0;entryDx=0;entryDy=0;" parent="9A_8ETiAixyMr5YRdV_Q-1" source="VgS7Dr-dxZbkq41CdY6H-16" target="cTDz7JanEmP634jY1mnS-0" edge="1">
          <mxGeometry relative="1" as="geometry" />
        </mxCell>
        <mxCell id="lzvk5zXQClIG6rzkLCPY-5" value="1" style="swimlane;childLayout=stackLayout;horizontal=1;startSize=30;horizontalStack=0;rounded=1;fontSize=14;fontStyle=0;strokeWidth=2;resizeParent=0;resizeLast=1;shadow=0;dashed=0;align=center;labelPosition=center;verticalLabelPosition=middle;verticalAlign=middle;" parent="9A_8ETiAixyMr5YRdV_Q-1" vertex="1">
          <mxGeometry x="-1745" y="-860" width="160" height="120" as="geometry" />
        </mxCell>
        <mxCell id="lzvk5zXQClIG6rzkLCPY-6" value="จัดการบัญชี" style="text;html=1;align=center;verticalAlign=middle;resizable=0;points=[];autosize=1;" parent="lzvk5zXQClIG6rzkLCPY-5" vertex="1">
          <mxGeometry y="30" width="160" height="90" as="geometry" />
        </mxCell>
      </root>
    </mxGraphModel>
  </diagram>
  <diagram id="JxEcP0XX5m0sPdlv64Nf" name="process3">
    <mxGraphModel dx="1038" dy="580" grid="1" gridSize="10" guides="1" tooltips="1" connect="1" arrows="1" fold="1" page="1" pageScale="1" pageWidth="827" pageHeight="1169" math="0" shadow="0">
      <root>
        <mxCell id="yMvmDkq9ofPwHUFQc5lE-0" />
        <mxCell id="yMvmDkq9ofPwHUFQc5lE-1" parent="yMvmDkq9ofPwHUFQc5lE-0" />
        <mxCell id="6jNyORdlVsMo4x_f0u5A-1" style="edgeStyle=orthogonalEdgeStyle;rounded=0;orthogonalLoop=1;jettySize=auto;html=1;entryX=0.5;entryY=0;entryDx=0;entryDy=0;exitX=0;exitY=0.5;exitDx=0;exitDy=0;" parent="yMvmDkq9ofPwHUFQc5lE-1" source="6jNyORdlVsMo4x_f0u5A-3" target="bPOcR5ZzPlMp1rxY3D2T-1" edge="1">
          <mxGeometry relative="1" as="geometry">
            <mxPoint x="210" y="190" as="targetPoint" />
            <mxPoint x="260" y="140" as="sourcePoint" />
          </mxGeometry>
        </mxCell>
        <mxCell id="zdeJwanzv3yyuRcMBGau-0" value="คำขอดูข้อมูลผู้ใช้งานทั่วไป" style="edgeLabel;html=1;align=center;verticalAlign=middle;resizable=0;points=[];" parent="6jNyORdlVsMo4x_f0u5A-1" connectable="0" vertex="1">
          <mxGeometry x="-0.2058" relative="1" as="geometry">
            <mxPoint x="33.53" y="-0.04" as="offset" />
          </mxGeometry>
        </mxCell>
        <mxCell id="qFZ84vXc471mHl_9BGm2-14" style="edgeStyle=orthogonalEdgeStyle;rounded=0;orthogonalLoop=1;jettySize=auto;html=1;exitX=0.25;exitY=0;exitDx=0;exitDy=0;entryX=0;entryY=0.25;entryDx=0;entryDy=0;" parent="yMvmDkq9ofPwHUFQc5lE-1" source="bPOcR5ZzPlMp1rxY3D2T-1" target="6jNyORdlVsMo4x_f0u5A-3" edge="1">
          <mxGeometry relative="1" as="geometry" />
        </mxCell>
        <mxCell id="qFZ84vXc471mHl_9BGm2-15" value="ข้อมูลผู้ใช้งานทั่วไป" style="edgeLabel;html=1;align=center;verticalAlign=middle;resizable=0;points=[];" parent="qFZ84vXc471mHl_9BGm2-14" connectable="0" vertex="1">
          <mxGeometry x="0.0034" y="1" relative="1" as="geometry">
            <mxPoint x="29" as="offset" />
          </mxGeometry>
        </mxCell>
        <mxCell id="bPOcR5ZzPlMp1rxY3D2T-1" value="3.1" style="swimlane;childLayout=stackLayout;horizontal=1;startSize=30;horizontalStack=0;rounded=1;fontSize=14;fontStyle=0;strokeWidth=2;resizeParent=0;resizeLast=1;shadow=0;dashed=0;align=center;" parent="yMvmDkq9ofPwHUFQc5lE-1" vertex="1">
          <mxGeometry x="80" y="240" width="160" height="80" as="geometry" />
        </mxCell>
        <mxCell id="bPOcR5ZzPlMp1rxY3D2T-2" value="แสดงข้อมูลผู้ใช้งานทั่วไป" style="align=center;strokeColor=none;fillColor=none;spacingLeft=4;fontSize=12;verticalAlign=top;resizable=0;rotatable=0;part=1;" parent="bPOcR5ZzPlMp1rxY3D2T-1" vertex="1">
          <mxGeometry y="30" width="160" height="50" as="geometry" />
        </mxCell>
        <mxCell id="BKliCoP6E7zFUTaC7z0e-2" value="3.2" style="swimlane;childLayout=stackLayout;horizontal=1;startSize=30;horizontalStack=0;rounded=1;fontSize=14;fontStyle=0;strokeWidth=2;resizeParent=0;resizeLast=1;shadow=0;dashed=0;align=center;" parent="yMvmDkq9ofPwHUFQc5lE-1" vertex="1">
          <mxGeometry x="80" y="400" width="160" height="80" as="geometry" />
        </mxCell>
        <mxCell id="BKliCoP6E7zFUTaC7z0e-3" value="แก้ไขข้อมูลผู้ใช้งานทั่วไป " style="align=center;strokeColor=none;fillColor=none;spacingLeft=4;fontSize=12;verticalAlign=top;resizable=0;rotatable=0;part=1;" parent="BKliCoP6E7zFUTaC7z0e-2" vertex="1">
          <mxGeometry y="30" width="160" height="50" as="geometry" />
        </mxCell>
        <mxCell id="6jNyORdlVsMo4x_f0u5A-4" style="edgeStyle=orthogonalEdgeStyle;rounded=0;orthogonalLoop=1;jettySize=auto;html=1;entryX=0.5;entryY=0;entryDx=0;entryDy=0;" parent="yMvmDkq9ofPwHUFQc5lE-1" source="6jNyORdlVsMo4x_f0u5A-2" target="sH6Cdqs1v3oY6_5c32TA-0" edge="1">
          <mxGeometry relative="1" as="geometry">
            <mxPoint x="710" y="230" as="targetPoint" />
            <Array as="points">
              <mxPoint x="710" y="120" />
            </Array>
          </mxGeometry>
        </mxCell>
        <mxCell id="sH6Cdqs1v3oY6_5c32TA-4" value="คำขอดูข้อมูลผู้รับฝาก" style="edgeLabel;html=1;align=center;verticalAlign=middle;resizable=0;points=[];" parent="6jNyORdlVsMo4x_f0u5A-4" connectable="0" vertex="1">
          <mxGeometry x="-0.1396" relative="1" as="geometry">
            <mxPoint x="-40" y="-0.06" as="offset" />
          </mxGeometry>
        </mxCell>
        <mxCell id="6jNyORdlVsMo4x_f0u5A-2" value="ผู้รับฝาก" style="whiteSpace=wrap;html=1;aspect=fixed;" parent="yMvmDkq9ofPwHUFQc5lE-1" vertex="1">
          <mxGeometry x="470" y="80" width="80" height="80" as="geometry" />
        </mxCell>
        <mxCell id="qFZ84vXc471mHl_9BGm2-13" style="edgeStyle=orthogonalEdgeStyle;rounded=0;orthogonalLoop=1;jettySize=auto;html=1;entryX=0.5;entryY=0;entryDx=0;entryDy=0;" parent="yMvmDkq9ofPwHUFQc5lE-1" target="BKliCoP6E7zFUTaC7z0e-2" edge="1">
          <mxGeometry relative="1" as="geometry">
            <mxPoint x="340" y="340" as="sourcePoint" />
          </mxGeometry>
        </mxCell>
        <mxCell id="6jNyORdlVsMo4x_f0u5A-3" value="ผู้ใช้งานทั่วไป" style="whiteSpace=wrap;html=1;aspect=fixed;" parent="yMvmDkq9ofPwHUFQc5lE-1" vertex="1">
          <mxGeometry x="300" y="80" width="80" height="80" as="geometry" />
        </mxCell>
        <mxCell id="qFZ84vXc471mHl_9BGm2-16" style="edgeStyle=orthogonalEdgeStyle;rounded=0;orthogonalLoop=1;jettySize=auto;html=1;exitX=0.75;exitY=0;exitDx=0;exitDy=0;entryX=1;entryY=0.25;entryDx=0;entryDy=0;" parent="yMvmDkq9ofPwHUFQc5lE-1" source="sH6Cdqs1v3oY6_5c32TA-0" target="6jNyORdlVsMo4x_f0u5A-2" edge="1">
          <mxGeometry relative="1" as="geometry" />
        </mxCell>
        <mxCell id="qFZ84vXc471mHl_9BGm2-17" value="ข้อมูลการให้บริการ" style="edgeLabel;html=1;align=center;verticalAlign=middle;resizable=0;points=[];" parent="qFZ84vXc471mHl_9BGm2-16" connectable="0" vertex="1">
          <mxGeometry x="0.061" y="1" relative="1" as="geometry">
            <mxPoint x="-26" as="offset" />
          </mxGeometry>
        </mxCell>
        <mxCell id="sH6Cdqs1v3oY6_5c32TA-0" value="3.5" style="swimlane;childLayout=stackLayout;horizontal=1;startSize=30;horizontalStack=0;rounded=1;fontSize=14;fontStyle=0;strokeWidth=2;resizeParent=0;resizeLast=1;shadow=0;dashed=0;align=center;" parent="yMvmDkq9ofPwHUFQc5lE-1" vertex="1">
          <mxGeometry x="630" y="240" width="160" height="80" as="geometry" />
        </mxCell>
        <mxCell id="sH6Cdqs1v3oY6_5c32TA-1" value="แสดงข้อมูลผู้รับฝาก " style="align=center;strokeColor=none;fillColor=none;spacingLeft=4;fontSize=12;verticalAlign=top;resizable=0;rotatable=0;part=1;" parent="sH6Cdqs1v3oY6_5c32TA-0" vertex="1">
          <mxGeometry y="30" width="160" height="50" as="geometry" />
        </mxCell>
        <mxCell id="v6b9CHmB9wZCoJ4Pic5r-0" style="edgeStyle=orthogonalEdgeStyle;rounded=0;orthogonalLoop=1;jettySize=auto;html=1;exitX=0.5;exitY=1;exitDx=0;exitDy=0;entryX=0;entryY=0.25;entryDx=0;entryDy=0;" parent="yMvmDkq9ofPwHUFQc5lE-1" source="BKliCoP6E7zFUTaC7z0e-3" target="sI95OVPuTGYbjwMg-s_q-2" edge="1">
          <mxGeometry relative="1" as="geometry">
            <mxPoint x="230" y="550" as="targetPoint" />
          </mxGeometry>
        </mxCell>
        <mxCell id="9--KvB-YLsBry7Mtr_YH-3" style="edgeStyle=orthogonalEdgeStyle;rounded=0;orthogonalLoop=1;jettySize=auto;html=1;exitX=0.5;exitY=1;exitDx=0;exitDy=0;entryX=0;entryY=0.25;entryDx=0;entryDy=0;" parent="yMvmDkq9ofPwHUFQc5lE-1" source="srJEElK41mcEHNCvECNS-0" target="bPOcR5ZzPlMp1rxY3D2T-2" edge="1">
          <mxGeometry relative="1" as="geometry">
            <mxPoint x="120" y="120" as="targetPoint" />
            <Array as="points">
              <mxPoint x="340" y="840" />
              <mxPoint x="30" y="840" />
              <mxPoint x="30" y="283" />
            </Array>
          </mxGeometry>
        </mxCell>
        <mxCell id="srJEElK41mcEHNCvECNS-0" value="&amp;nbsp;D2&amp;nbsp; &amp;nbsp; &amp;nbsp; &amp;nbsp; &amp;nbsp; ข้อมูลผู้ใช้งานทั่วไป" style="html=1;dashed=0;whitespace=wrap;shape=mxgraph.dfd.dataStoreID;align=left;spacingLeft=3;points=[[0,0],[0.5,0],[1,0],[0,0.5],[1,0.5],[0,1],[0.5,1],[1,1]];" parent="yMvmDkq9ofPwHUFQc5lE-1" vertex="1">
          <mxGeometry x="260" y="780" width="160" height="30" as="geometry" />
        </mxCell>
        <mxCell id="srJEElK41mcEHNCvECNS-1" value="3.6" style="swimlane;childLayout=stackLayout;horizontal=1;startSize=30;horizontalStack=0;rounded=1;fontSize=14;fontStyle=0;strokeWidth=2;resizeParent=0;resizeLast=1;shadow=0;dashed=0;align=center;" parent="yMvmDkq9ofPwHUFQc5lE-1" vertex="1">
          <mxGeometry x="575" y="400" width="160" height="80" as="geometry" />
        </mxCell>
        <mxCell id="srJEElK41mcEHNCvECNS-2" value="แก้ไขข้อมูลการผู้รับฝาก" style="align=center;strokeColor=none;fillColor=none;spacingLeft=4;fontSize=12;verticalAlign=top;resizable=0;rotatable=0;part=1;" parent="srJEElK41mcEHNCvECNS-1" vertex="1">
          <mxGeometry y="30" width="160" height="50" as="geometry" />
        </mxCell>
        <mxCell id="9--KvB-YLsBry7Mtr_YH-2" style="edgeStyle=orthogonalEdgeStyle;rounded=0;orthogonalLoop=1;jettySize=auto;html=1;entryX=1;entryY=0.25;entryDx=0;entryDy=0;exitX=0.5;exitY=1;exitDx=0;exitDy=0;" parent="yMvmDkq9ofPwHUFQc5lE-1" source="srJEElK41mcEHNCvECNS-3" target="sH6Cdqs1v3oY6_5c32TA-1" edge="1">
          <mxGeometry relative="1" as="geometry">
            <mxPoint x="780" y="120" as="targetPoint" />
            <mxPoint x="810" y="695" as="sourcePoint" />
            <Array as="points">
              <mxPoint x="510" y="840" />
              <mxPoint x="810" y="840" />
              <mxPoint x="810" y="283" />
            </Array>
          </mxGeometry>
        </mxCell>
        <mxCell id="srJEElK41mcEHNCvECNS-3" value="&amp;nbsp;D4&amp;nbsp; &amp;nbsp; &amp;nbsp; &amp;nbsp;ข้อมูลผู้รับฝาก" style="html=1;dashed=0;whitespace=wrap;shape=mxgraph.dfd.dataStoreID;align=left;spacingLeft=3;points=[[0,0],[0.5,0],[1,0],[0,0.5],[1,0.5],[0,1],[0.5,1],[1,1]];" parent="yMvmDkq9ofPwHUFQc5lE-1" vertex="1">
          <mxGeometry x="445" y="780" width="130" height="30" as="geometry" />
        </mxCell>
        <mxCell id="srJEElK41mcEHNCvECNS-6" style="edgeStyle=orthogonalEdgeStyle;rounded=0;orthogonalLoop=1;jettySize=auto;html=1;exitX=0.5;exitY=1;exitDx=0;exitDy=0;entryX=0.5;entryY=0;entryDx=0;entryDy=0;" parent="yMvmDkq9ofPwHUFQc5lE-1" source="srJEElK41mcEHNCvECNS-2" target="sI95OVPuTGYbjwMg-s_q-4" edge="1">
          <mxGeometry relative="1" as="geometry">
            <mxPoint x="690" y="510" as="targetPoint" />
          </mxGeometry>
        </mxCell>
        <mxCell id="sI95OVPuTGYbjwMg-s_q-7" value="ข้อมูลผู้รับฝากที่แก้ไขแล้ว&amp;nbsp;" style="edgeLabel;html=1;align=center;verticalAlign=middle;resizable=0;points=[];" parent="srJEElK41mcEHNCvECNS-6" connectable="0" vertex="1">
          <mxGeometry x="-0.1967" relative="1" as="geometry">
            <mxPoint y="11.76" as="offset" />
          </mxGeometry>
        </mxCell>
        <mxCell id="qFZ84vXc471mHl_9BGm2-0" value="3.3" style="swimlane;childLayout=stackLayout;horizontal=1;startSize=30;horizontalStack=0;rounded=1;fontSize=14;fontStyle=0;strokeWidth=2;resizeParent=0;resizeLast=1;shadow=0;dashed=0;align=center;" parent="yMvmDkq9ofPwHUFQc5lE-1" vertex="1">
          <mxGeometry x="260" y="400" width="160" height="80" as="geometry" />
        </mxCell>
        <mxCell id="qFZ84vXc471mHl_9BGm2-1" value="เพิ่มข้อมูลสัตว์เลี้ยง" style="align=center;strokeColor=none;fillColor=none;spacingLeft=4;fontSize=12;verticalAlign=top;resizable=0;rotatable=0;part=1;" parent="qFZ84vXc471mHl_9BGm2-0" vertex="1">
          <mxGeometry y="30" width="160" height="50" as="geometry" />
        </mxCell>
        <mxCell id="qFZ84vXc471mHl_9BGm2-2" style="edgeStyle=orthogonalEdgeStyle;rounded=0;orthogonalLoop=1;jettySize=auto;html=1;entryX=0.5;entryY=0;entryDx=0;entryDy=0;" parent="yMvmDkq9ofPwHUFQc5lE-1" source="qFZ84vXc471mHl_9BGm2-1" target="sI95OVPuTGYbjwMg-s_q-1" edge="1">
          <mxGeometry relative="1" as="geometry">
            <mxPoint x="340" y="500" as="targetPoint" />
          </mxGeometry>
        </mxCell>
        <mxCell id="sI95OVPuTGYbjwMg-s_q-8" value="ข้อมูลสัตว์เลี้ยงผู้ใช้งาน" style="edgeLabel;html=1;align=center;verticalAlign=middle;resizable=0;points=[];" parent="qFZ84vXc471mHl_9BGm2-2" connectable="0" vertex="1">
          <mxGeometry x="-0.2697" y="-1" relative="1" as="geometry">
            <mxPoint y="16" as="offset" />
          </mxGeometry>
        </mxCell>
        <mxCell id="qFZ84vXc471mHl_9BGm2-3" style="edgeStyle=orthogonalEdgeStyle;rounded=0;orthogonalLoop=1;jettySize=auto;html=1;exitX=0.5;exitY=1;exitDx=0;exitDy=0;entryX=0.5;entryY=0;entryDx=0;entryDy=0;" parent="yMvmDkq9ofPwHUFQc5lE-1" source="6jNyORdlVsMo4x_f0u5A-3" target="qFZ84vXc471mHl_9BGm2-0" edge="1">
          <mxGeometry relative="1" as="geometry" />
        </mxCell>
        <mxCell id="qFZ84vXc471mHl_9BGm2-4" style="edgeStyle=orthogonalEdgeStyle;rounded=0;orthogonalLoop=1;jettySize=auto;html=1;entryX=0.5;entryY=0;entryDx=0;entryDy=0;" parent="yMvmDkq9ofPwHUFQc5lE-1" source="6jNyORdlVsMo4x_f0u5A-2" target="srJEElK41mcEHNCvECNS-1" edge="1">
          <mxGeometry relative="1" as="geometry">
            <mxPoint x="510" y="400" as="targetPoint" />
            <Array as="points">
              <mxPoint x="510" y="350" />
              <mxPoint x="655" y="350" />
            </Array>
          </mxGeometry>
        </mxCell>
        <mxCell id="qFZ84vXc471mHl_9BGm2-5" value="ข้อมูลผู้รับฝาก" style="edgeLabel;html=1;align=center;verticalAlign=middle;resizable=0;points=[];" parent="qFZ84vXc471mHl_9BGm2-4" connectable="0" vertex="1">
          <mxGeometry x="0.2989" y="-1" relative="1" as="geometry">
            <mxPoint x="1" y="-40.290000000000006" as="offset" />
          </mxGeometry>
        </mxCell>
        <mxCell id="qFZ84vXc471mHl_9BGm2-6" value="&lt;span style=&quot;color: rgb(0 , 0 , 0) ; font-family: &amp;#34;helvetica&amp;#34; ; font-size: 11px ; font-style: normal ; font-weight: 400 ; letter-spacing: normal ; text-align: center ; text-indent: 0px ; text-transform: none ; word-spacing: 0px ; background-color: rgb(255 , 255 , 255) ; display: inline ; float: none&quot;&gt;ข้อมูลผู้ใช้งานทั่วไป&lt;/span&gt;" style="text;whiteSpace=wrap;html=1;" parent="yMvmDkq9ofPwHUFQc5lE-1" vertex="1">
          <mxGeometry x="280" y="260" width="130" height="30" as="geometry" />
        </mxCell>
        <mxCell id="sI95OVPuTGYbjwMg-s_q-1" value="3.4" style="swimlane;childLayout=stackLayout;horizontal=1;startSize=30;horizontalStack=0;rounded=1;fontSize=14;fontStyle=0;strokeWidth=2;resizeParent=0;resizeLast=1;shadow=0;dashed=0;align=center;" parent="yMvmDkq9ofPwHUFQc5lE-1" vertex="1">
          <mxGeometry x="260" y="600" width="160" height="80" as="geometry" />
        </mxCell>
        <mxCell id="sI95OVPuTGYbjwMg-s_q-2" value="บันทึกข้อมูลผู้ใช้งานทั่วไป" style="align=center;strokeColor=none;fillColor=none;spacingLeft=4;fontSize=12;verticalAlign=top;resizable=0;rotatable=0;part=1;" parent="sI95OVPuTGYbjwMg-s_q-1" vertex="1">
          <mxGeometry y="30" width="160" height="50" as="geometry" />
        </mxCell>
        <mxCell id="sI95OVPuTGYbjwMg-s_q-3" style="edgeStyle=orthogonalEdgeStyle;rounded=0;orthogonalLoop=1;jettySize=auto;html=1;entryX=0.5;entryY=0;entryDx=0;entryDy=0;" parent="yMvmDkq9ofPwHUFQc5lE-1" source="sI95OVPuTGYbjwMg-s_q-2" target="srJEElK41mcEHNCvECNS-0" edge="1">
          <mxGeometry relative="1" as="geometry" />
        </mxCell>
        <mxCell id="sI95OVPuTGYbjwMg-s_q-4" value="3.7" style="swimlane;childLayout=stackLayout;horizontal=1;startSize=30;horizontalStack=0;rounded=1;fontSize=14;fontStyle=0;strokeWidth=2;resizeParent=0;resizeLast=1;shadow=0;dashed=0;align=center;" parent="yMvmDkq9ofPwHUFQc5lE-1" vertex="1">
          <mxGeometry x="430" y="600" width="160" height="80" as="geometry" />
        </mxCell>
        <mxCell id="sI95OVPuTGYbjwMg-s_q-5" value="บันทึกข้อมูลผู้รับฝาก" style="align=center;strokeColor=none;fillColor=none;spacingLeft=4;fontSize=12;verticalAlign=top;resizable=0;rotatable=0;part=1;" parent="sI95OVPuTGYbjwMg-s_q-4" vertex="1">
          <mxGeometry y="30" width="160" height="50" as="geometry" />
        </mxCell>
        <mxCell id="sI95OVPuTGYbjwMg-s_q-6" style="edgeStyle=orthogonalEdgeStyle;rounded=0;orthogonalLoop=1;jettySize=auto;html=1;entryX=0.5;entryY=0;entryDx=0;entryDy=0;" parent="yMvmDkq9ofPwHUFQc5lE-1" source="sI95OVPuTGYbjwMg-s_q-5" target="srJEElK41mcEHNCvECNS-3" edge="1">
          <mxGeometry relative="1" as="geometry" />
        </mxCell>
        <mxCell id="sI95OVPuTGYbjwMg-s_q-9" value="ข้อมูลผู้ใช้งานทั่วไปที่แก้แล้ว&amp;nbsp;" style="edgeLabel;html=1;align=center;verticalAlign=middle;resizable=0;points=[];" parent="yMvmDkq9ofPwHUFQc5lE-1" connectable="0" vertex="1">
          <mxGeometry x="160" y="539.9966666666668" as="geometry" />
        </mxCell>
        <mxCell id="bhhOHZfyOgENTc5OTm-9-0" value="&amp;nbsp;D3&amp;nbsp; &amp;nbsp; &amp;nbsp; &amp;nbsp; &amp;nbsp;ข้อมูลสัตว์เลี้ยง" style="html=1;dashed=0;whitespace=wrap;shape=mxgraph.dfd.dataStoreID;align=left;spacingLeft=3;points=[[0,0],[0.5,0],[1,0],[0,0.5],[1,0.5],[0,1],[0.5,1],[1,1]];" parent="yMvmDkq9ofPwHUFQc5lE-1" vertex="1">
          <mxGeometry x="410" y="490" width="130" height="30" as="geometry" />
        </mxCell>
        <mxCell id="bhhOHZfyOgENTc5OTm-9-2" style="edgeStyle=orthogonalEdgeStyle;rounded=0;orthogonalLoop=1;jettySize=auto;html=1;exitX=1;exitY=0.25;exitDx=0;exitDy=0;entryX=0.608;entryY=0.067;entryDx=0;entryDy=0;entryPerimeter=0;fontSize=12;" parent="yMvmDkq9ofPwHUFQc5lE-1" source="qFZ84vXc471mHl_9BGm2-1" target="bhhOHZfyOgENTc5OTm-9-0" edge="1">
          <mxGeometry relative="1" as="geometry" />
        </mxCell>
        <mxCell id="V_Z14pWp9sQ2u2ZG2XqW-0" value="Hostdog - DFD Level 1 - Process 3" style="text;html=1;align=center;verticalAlign=middle;resizable=0;points=[];autosize=1;" parent="yMvmDkq9ofPwHUFQc5lE-1" vertex="1">
          <mxGeometry x="40" y="30" width="200" height="20" as="geometry" />
        </mxCell>
      </root>
    </mxGraphModel>
  </diagram>
  <diagram id="g8jJck4AxCuWUS3RBj0e" name="process4">
    <mxGraphModel dx="865" dy="483" grid="1" gridSize="10" guides="1" tooltips="1" connect="1" arrows="1" fold="1" page="1" pageScale="1" pageWidth="827" pageHeight="1169" math="0" shadow="0">
      <root>
        <mxCell id="esC5z1Ls8RRlJ_xrwlSS-0" />
        <mxCell id="esC5z1Ls8RRlJ_xrwlSS-1" parent="esC5z1Ls8RRlJ_xrwlSS-0" />
        <mxCell id="oJquDLEYF5aPnedc0nUm-6" value="4.1" style="swimlane;childLayout=stackLayout;horizontal=1;startSize=30;horizontalStack=0;rounded=1;fontSize=14;fontStyle=0;strokeWidth=2;resizeParent=0;resizeLast=1;shadow=0;dashed=0;align=center;" parent="esC5z1Ls8RRlJ_xrwlSS-1" vertex="1">
          <mxGeometry x="310" y="138" width="160" height="80" as="geometry" />
        </mxCell>
        <mxCell id="oJquDLEYF5aPnedc0nUm-7" value="ค้นหาผู้รับฝากบริเวณใกล้&#xa;ที่อยู่ผู้ฝาก" style="align=center;strokeColor=none;fillColor=none;spacingLeft=4;fontSize=12;verticalAlign=top;resizable=0;rotatable=0;part=1;" parent="oJquDLEYF5aPnedc0nUm-6" vertex="1">
          <mxGeometry y="30" width="160" height="50" as="geometry" />
        </mxCell>
        <mxCell id="oJquDLEYF5aPnedc0nUm-8" value="4.2" style="swimlane;childLayout=stackLayout;horizontal=1;startSize=30;horizontalStack=0;rounded=1;fontSize=14;fontStyle=0;strokeWidth=2;resizeParent=0;resizeLast=1;shadow=0;dashed=0;align=center;" parent="esC5z1Ls8RRlJ_xrwlSS-1" vertex="1">
          <mxGeometry x="310" y="415" width="160" height="90" as="geometry" />
        </mxCell>
        <mxCell id="oJquDLEYF5aPnedc0nUm-9" value="กรองการแสดงผล" style="align=center;strokeColor=none;fillColor=none;spacingLeft=4;fontSize=12;verticalAlign=top;resizable=0;rotatable=0;part=1;" parent="oJquDLEYF5aPnedc0nUm-8" vertex="1">
          <mxGeometry y="30" width="160" height="60" as="geometry" />
        </mxCell>
        <mxCell id="oJquDLEYF5aPnedc0nUm-17" value="" style="endArrow=classic;html=1;exitX=0.5;exitY=1;exitDx=0;exitDy=0;entryX=0.5;entryY=0;entryDx=0;entryDy=0;" parent="esC5z1Ls8RRlJ_xrwlSS-1" source="oJquDLEYF5aPnedc0nUm-7" target="oJquDLEYF5aPnedc0nUm-8" edge="1">
          <mxGeometry width="50" height="50" relative="1" as="geometry">
            <mxPoint x="430" y="305" as="sourcePoint" />
            <mxPoint x="480" y="255" as="targetPoint" />
          </mxGeometry>
        </mxCell>
        <mxCell id="ee-SdpcN8H6hNjmZTXTX-0" value="ข้อมูลผู้รับฝากที่อยู่ใกล้" style="edgeLabel;html=1;align=left;verticalAlign=middle;resizable=0;points=[];" parent="oJquDLEYF5aPnedc0nUm-17" connectable="0" vertex="1">
          <mxGeometry x="-0.2" y="-3" relative="1" as="geometry">
            <mxPoint x="3" y="12.830000000000002" as="offset" />
          </mxGeometry>
        </mxCell>
        <mxCell id="VRMcuW0DwqlgibOdAIcW-0" style="edgeStyle=orthogonalEdgeStyle;rounded=0;orthogonalLoop=1;jettySize=auto;html=1;entryX=0;entryY=0.25;entryDx=0;entryDy=0;" parent="esC5z1Ls8RRlJ_xrwlSS-1" source="oJquDLEYF5aPnedc0nUm-20" target="oJquDLEYF5aPnedc0nUm-7" edge="1">
          <mxGeometry relative="1" as="geometry" />
        </mxCell>
        <mxCell id="VRMcuW0DwqlgibOdAIcW-1" value="&lt;div style=&quot;text-align: left&quot;&gt;พิกัดที่อยู่ของผู้ฝาก&lt;/div&gt;&lt;div style=&quot;text-align: left&quot;&gt;ข้อมูลกรองการแสดงผล&lt;/div&gt;" style="edgeLabel;html=1;align=center;verticalAlign=middle;resizable=0;points=[];" parent="VRMcuW0DwqlgibOdAIcW-0" vertex="1" connectable="0">
          <mxGeometry x="-0.3509" y="1" relative="1" as="geometry">
            <mxPoint x="24.17" y="-19" as="offset" />
          </mxGeometry>
        </mxCell>
        <mxCell id="4CCa4UBFA1cHjtBvgNbx-3" style="edgeStyle=orthogonalEdgeStyle;rounded=0;orthogonalLoop=1;jettySize=auto;html=1;exitX=1;exitY=0.75;exitDx=0;exitDy=0;entryX=-0.019;entryY=0.617;entryDx=0;entryDy=0;entryPerimeter=0;labelPosition=center;verticalLabelPosition=bottom;align=center;verticalAlign=top;" edge="1" parent="esC5z1Ls8RRlJ_xrwlSS-1" source="oJquDLEYF5aPnedc0nUm-20" target="oJquDLEYF5aPnedc0nUm-7">
          <mxGeometry relative="1" as="geometry">
            <mxPoint x="300" y="200.33333333333337" as="targetPoint" />
            <Array as="points">
              <mxPoint x="170" y="199" />
            </Array>
          </mxGeometry>
        </mxCell>
        <mxCell id="4CCa4UBFA1cHjtBvgNbx-5" value="ข้อมูลกรองการแสดงผล" style="edgeLabel;html=1;align=center;verticalAlign=top;resizable=0;points=[];labelPosition=center;verticalLabelPosition=bottom;" vertex="1" connectable="0" parent="4CCa4UBFA1cHjtBvgNbx-3">
          <mxGeometry x="-0.2615" y="2" relative="1" as="geometry">
            <mxPoint x="19.17" as="offset" />
          </mxGeometry>
        </mxCell>
        <mxCell id="oJquDLEYF5aPnedc0nUm-20" value="ผู้ใช้งานทั่วไป" style="whiteSpace=wrap;html=1;aspect=fixed;align=center;" parent="esC5z1Ls8RRlJ_xrwlSS-1" vertex="1">
          <mxGeometry x="90" y="140" width="80" height="80" as="geometry" />
        </mxCell>
        <mxCell id="QAVM6trYeAkvuEjkNN9b-0" style="edgeStyle=orthogonalEdgeStyle;rounded=0;orthogonalLoop=1;jettySize=auto;html=1;entryX=0.25;entryY=1;entryDx=0;entryDy=0;" parent="esC5z1Ls8RRlJ_xrwlSS-1" source="oJquDLEYF5aPnedc0nUm-9" target="oJquDLEYF5aPnedc0nUm-20" edge="1">
          <mxGeometry relative="1" as="geometry" />
        </mxCell>
        <mxCell id="QAVM6trYeAkvuEjkNN9b-1" value="&lt;span style=&quot;font-size: 12px ; background-color: rgb(248 , 249 , 250)&quot;&gt;รายละเอียดผู้รับฝากที่พร้อมให้บริการ&lt;/span&gt;" style="edgeLabel;html=1;align=center;verticalAlign=middle;resizable=0;points=[];" parent="QAVM6trYeAkvuEjkNN9b-0" connectable="0" vertex="1">
          <mxGeometry x="-0.6738" y="-4" relative="1" as="geometry">
            <mxPoint x="-40.83" y="19" as="offset" />
          </mxGeometry>
        </mxCell>
        <mxCell id="1_-pvJ0Qlop7RylowgsV-1" style="edgeStyle=orthogonalEdgeStyle;rounded=0;orthogonalLoop=1;jettySize=auto;html=1;entryX=1;entryY=0.5;entryDx=0;entryDy=0;exitX=0;exitY=0.5;exitDx=0;exitDy=0;" parent="esC5z1Ls8RRlJ_xrwlSS-1" source="1_-pvJ0Qlop7RylowgsV-0" target="oJquDLEYF5aPnedc0nUm-7" edge="1">
          <mxGeometry relative="1" as="geometry">
            <mxPoint x="610" y="360" as="sourcePoint" />
          </mxGeometry>
        </mxCell>
        <mxCell id="kaxqUYHbZuf7LMRiiayh-2" value="รหัสผู้รับฝาก&lt;br&gt;" style="edgeLabel;html=1;align=left;verticalAlign=middle;resizable=0;points=[];" connectable="0" vertex="1" parent="1_-pvJ0Qlop7RylowgsV-1">
          <mxGeometry x="0.2261" y="-2" relative="1" as="geometry">
            <mxPoint x="-14.169999999999998" y="-11" as="offset" />
          </mxGeometry>
        </mxCell>
        <mxCell id="kaxqUYHbZuf7LMRiiayh-1" style="edgeStyle=orthogonalEdgeStyle;rounded=0;orthogonalLoop=1;jettySize=auto;html=1;entryX=1;entryY=0.25;entryDx=0;entryDy=0;" edge="1" parent="esC5z1Ls8RRlJ_xrwlSS-1" source="1_-pvJ0Qlop7RylowgsV-0" target="oJquDLEYF5aPnedc0nUm-9">
          <mxGeometry relative="1" as="geometry">
            <Array as="points">
              <mxPoint x="700" y="460" />
            </Array>
          </mxGeometry>
        </mxCell>
        <mxCell id="4CCa4UBFA1cHjtBvgNbx-6" style="edgeStyle=orthogonalEdgeStyle;rounded=0;orthogonalLoop=1;jettySize=auto;html=1;exitX=0;exitY=1;exitDx=0;exitDy=0;entryX=0.75;entryY=1;entryDx=0;entryDy=0;" edge="1" parent="esC5z1Ls8RRlJ_xrwlSS-1" source="1_-pvJ0Qlop7RylowgsV-0" target="oJquDLEYF5aPnedc0nUm-7">
          <mxGeometry relative="1" as="geometry" />
        </mxCell>
        <mxCell id="4CCa4UBFA1cHjtBvgNbx-7" value="พิกัดที่อยู่ของผู้รับฝาก" style="edgeLabel;html=1;align=center;verticalAlign=middle;resizable=0;points=[];" vertex="1" connectable="0" parent="4CCa4UBFA1cHjtBvgNbx-6">
          <mxGeometry x="0.2304" y="-2" relative="1" as="geometry">
            <mxPoint x="11.67" y="14" as="offset" />
          </mxGeometry>
        </mxCell>
        <mxCell id="1_-pvJ0Qlop7RylowgsV-0" value="&amp;nbsp;D4&amp;nbsp; &amp;nbsp;ข้อมูลผู้รับฝาก" style="html=1;dashed=0;whitespace=wrap;shape=mxgraph.dfd.dataStoreID;align=left;spacingLeft=3;points=[[0,0],[0.5,0],[1,0],[0,0.5],[1,0.5],[0,1],[0.5,1],[1,1]];" parent="esC5z1Ls8RRlJ_xrwlSS-1" vertex="1">
          <mxGeometry x="610" y="178" width="180" height="30" as="geometry" />
        </mxCell>
        <mxCell id="SI3-DryRRri8GaoNeFM2-0" value="Hostdog - DFD Level 1 - Process 4" style="text;html=1;align=center;verticalAlign=middle;resizable=0;points=[];autosize=1;" parent="esC5z1Ls8RRlJ_xrwlSS-1" vertex="1">
          <mxGeometry x="40" y="40" width="200" height="20" as="geometry" />
        </mxCell>
        <mxCell id="hE7yuWvogH3wBuJDVsrs-0" style="edgeStyle=orthogonalEdgeStyle;rounded=0;orthogonalLoop=1;jettySize=auto;html=1;exitX=0.25;exitY=1;exitDx=0;exitDy=0;entryX=0.25;entryY=0;entryDx=0;entryDy=0;" edge="1" parent="esC5z1Ls8RRlJ_xrwlSS-1" source="oJquDLEYF5aPnedc0nUm-7" target="oJquDLEYF5aPnedc0nUm-8">
          <mxGeometry relative="1" as="geometry" />
        </mxCell>
        <mxCell id="hE7yuWvogH3wBuJDVsrs-1" value="ข้อมูลกรองการแสดงผล" style="edgeLabel;html=1;align=center;verticalAlign=middle;resizable=0;points=[];" vertex="1" connectable="0" parent="hE7yuWvogH3wBuJDVsrs-0">
          <mxGeometry x="-0.1455" y="2" relative="1" as="geometry">
            <mxPoint x="-62" y="7.83" as="offset" />
          </mxGeometry>
        </mxCell>
      </root>
    </mxGraphModel>
  </diagram>
  <diagram id="KWEEKfmG_bE-ej3HmOvo" name="process5">
    <mxGraphModel grid="1" gridSize="10" guides="1" tooltips="1" connect="1" arrows="1" page="1" fold="1" pageScale="1" pageWidth="827" pageHeight="1169" math="0" shadow="0">
      <root>
        <mxCell id="3QWlzXrFfL8tTj5AN-8l-0" />
        <mxCell id="3QWlzXrFfL8tTj5AN-8l-1" parent="3QWlzXrFfL8tTj5AN-8l-0" />
        <mxCell id="WHYKahnTicLhl7j8voLV-0" value="5.1" style="swimlane;childLayout=stackLayout;horizontal=1;startSize=30;horizontalStack=0;rounded=1;fontSize=14;fontStyle=0;strokeWidth=2;resizeParent=0;resizeLast=1;shadow=0;dashed=0;align=center;" parent="3QWlzXrFfL8tTj5AN-8l-1" vertex="1">
          <mxGeometry x="240" y="130" width="140" height="90" as="geometry" />
        </mxCell>
        <mxCell id="WHYKahnTicLhl7j8voLV-1" value="แสดงข้อความ" style="align=center;strokeColor=none;fillColor=none;spacingLeft=4;fontSize=12;verticalAlign=top;resizable=0;rotatable=0;part=1;" parent="WHYKahnTicLhl7j8voLV-0" vertex="1">
          <mxGeometry y="30" width="140" height="60" as="geometry" />
        </mxCell>
        <mxCell id="VOzDeTPEgK6Z1M2UL1N2-11" style="edgeStyle=orthogonalEdgeStyle;rounded=0;orthogonalLoop=1;jettySize=auto;html=1;entryX=0;entryY=0.5;entryDx=0;entryDy=0;" parent="3QWlzXrFfL8tTj5AN-8l-1" source="VOzDeTPEgK6Z1M2UL1N2-0" target="VOzDeTPEgK6Z1M2UL1N2-8" edge="1">
          <mxGeometry relative="1" as="geometry">
            <Array as="points">
              <mxPoint x="80" y="485" />
            </Array>
          </mxGeometry>
        </mxCell>
        <mxCell id="VOzDeTPEgK6Z1M2UL1N2-12" value="ข้อความจากผู้ใช้งานทั่วไป" style="edgeLabel;html=1;align=center;verticalAlign=middle;resizable=0;points=[];" parent="VOzDeTPEgK6Z1M2UL1N2-11" connectable="0" vertex="1">
          <mxGeometry x="-0.0212" y="2" relative="1" as="geometry">
            <mxPoint x="-2" y="-76" as="offset" />
          </mxGeometry>
        </mxCell>
        <mxCell id="VOzDeTPEgK6Z1M2UL1N2-0" value="ผู้ใช้งานทั่วไป" style="whiteSpace=wrap;html=1;aspect=fixed;align=center;" parent="3QWlzXrFfL8tTj5AN-8l-1" vertex="1">
          <mxGeometry x="40" y="135" width="80" height="80" as="geometry" />
        </mxCell>
        <mxCell id="VOzDeTPEgK6Z1M2UL1N2-1" value="&amp;nbsp;D5&amp;nbsp; &amp;nbsp; &amp;nbsp;ประวัติการแชท" style="html=1;dashed=0;whitespace=wrap;shape=mxgraph.dfd.dataStoreID;align=left;spacingLeft=3;points=[[0,0],[0.5,0],[1,0],[0,0.5],[1,0.5],[0,1],[0.5,1],[1,1]];" parent="3QWlzXrFfL8tTj5AN-8l-1" vertex="1">
          <mxGeometry x="349" y="300" width="130" height="30" as="geometry" />
        </mxCell>
        <mxCell id="VOzDeTPEgK6Z1M2UL1N2-8" value="5.2" style="swimlane;childLayout=stackLayout;horizontal=1;startSize=30;horizontalStack=0;rounded=1;fontSize=14;fontStyle=0;strokeWidth=2;resizeParent=0;resizeLast=1;shadow=0;dashed=0;align=center;" parent="3QWlzXrFfL8tTj5AN-8l-1" vertex="1">
          <mxGeometry x="240" y="440" width="140" height="90" as="geometry" />
        </mxCell>
        <mxCell id="VOzDeTPEgK6Z1M2UL1N2-9" value="บันทึกข้อความ" style="align=center;strokeColor=none;fillColor=none;spacingLeft=4;fontSize=12;verticalAlign=top;resizable=0;rotatable=0;part=1;" parent="VOzDeTPEgK6Z1M2UL1N2-8" vertex="1">
          <mxGeometry y="30" width="140" height="60" as="geometry" />
        </mxCell>
        <mxCell id="JBxTGlXnQw2sc6xb0VZP-6" style="edgeStyle=orthogonalEdgeStyle;rounded=0;orthogonalLoop=1;jettySize=auto;html=1;entryX=1;entryY=0.25;entryDx=0;entryDy=0;exitX=0.5;exitY=1;exitDx=0;exitDy=0;" parent="3QWlzXrFfL8tTj5AN-8l-1" source="JBxTGlXnQw2sc6xb0VZP-0" target="O3YReOEYEMmPAlac04NS-5" edge="1">
          <mxGeometry relative="1" as="geometry">
            <Array as="points">
              <mxPoint x="758" y="485" />
            </Array>
            <mxPoint x="650" y="485" as="targetPoint" />
          </mxGeometry>
        </mxCell>
        <mxCell id="JBxTGlXnQw2sc6xb0VZP-7" value="ข้อความจากผู้รับฝาก" style="edgeLabel;html=1;align=center;verticalAlign=middle;resizable=0;points=[];" parent="JBxTGlXnQw2sc6xb0VZP-6" connectable="0" vertex="1">
          <mxGeometry x="0.0027" relative="1" as="geometry">
            <mxPoint y="-93.5" as="offset" />
          </mxGeometry>
        </mxCell>
        <mxCell id="JBxTGlXnQw2sc6xb0VZP-0" value="ผู้รับฝาก" style="whiteSpace=wrap;html=1;aspect=fixed;align=center;" parent="3QWlzXrFfL8tTj5AN-8l-1" vertex="1">
          <mxGeometry x="710" y="127.5" width="95" height="95" as="geometry" />
        </mxCell>
        <mxCell id="JBxTGlXnQw2sc6xb0VZP-4" style="edgeStyle=orthogonalEdgeStyle;rounded=0;orthogonalLoop=1;jettySize=auto;html=1;entryX=0;entryY=0.5;entryDx=0;entryDy=0;exitX=1;exitY=0.25;exitDx=0;exitDy=0;" parent="3QWlzXrFfL8tTj5AN-8l-1" source="O3YReOEYEMmPAlac04NS-3" target="JBxTGlXnQw2sc6xb0VZP-0" edge="1">
          <mxGeometry relative="1" as="geometry">
            <mxPoint x="620" y="175" as="sourcePoint" />
          </mxGeometry>
        </mxCell>
        <mxCell id="JBxTGlXnQw2sc6xb0VZP-5" value="ข้อความจากผู้ใช้งานทั่วไป" style="edgeLabel;html=1;align=center;verticalAlign=middle;resizable=0;points=[];" parent="JBxTGlXnQw2sc6xb0VZP-4" connectable="0" vertex="1">
          <mxGeometry x="-0.1556" y="4" relative="1" as="geometry">
            <mxPoint x="7" y="4" as="offset" />
          </mxGeometry>
        </mxCell>
        <mxCell id="XUZLqRQfz_ldSWKPh33g-0" value="Hostdog - DFD Level 1 - Process 5" style="text;html=1;align=center;verticalAlign=middle;resizable=0;points=[];autosize=1;" parent="3QWlzXrFfL8tTj5AN-8l-1" vertex="1">
          <mxGeometry x="40" y="40" width="200" height="20" as="geometry" />
        </mxCell>
        <mxCell id="O3YReOEYEMmPAlac04NS-2" value="5.1" style="swimlane;childLayout=stackLayout;horizontal=1;startSize=30;horizontalStack=0;rounded=1;fontSize=14;fontStyle=0;strokeWidth=2;resizeParent=0;resizeLast=1;shadow=0;dashed=0;align=center;" vertex="1" parent="3QWlzXrFfL8tTj5AN-8l-1">
          <mxGeometry x="420" y="130" width="140" height="90" as="geometry" />
        </mxCell>
        <mxCell id="O3YReOEYEMmPAlac04NS-3" value="แสดงข้อความ" style="align=center;strokeColor=none;fillColor=none;spacingLeft=4;fontSize=12;verticalAlign=top;resizable=0;rotatable=0;part=1;" vertex="1" parent="O3YReOEYEMmPAlac04NS-2">
          <mxGeometry y="30" width="140" height="60" as="geometry" />
        </mxCell>
        <mxCell id="O3YReOEYEMmPAlac04NS-4" value="5.2" style="swimlane;childLayout=stackLayout;horizontal=1;startSize=30;horizontalStack=0;rounded=1;fontSize=14;fontStyle=0;strokeWidth=2;resizeParent=0;resizeLast=1;shadow=0;dashed=0;align=center;" vertex="1" parent="3QWlzXrFfL8tTj5AN-8l-1">
          <mxGeometry x="440" y="440" width="140" height="90" as="geometry" />
        </mxCell>
        <mxCell id="O3YReOEYEMmPAlac04NS-5" value="บันทึกข้อความ" style="align=center;strokeColor=none;fillColor=none;spacingLeft=4;fontSize=12;verticalAlign=top;resizable=0;rotatable=0;part=1;" vertex="1" parent="O3YReOEYEMmPAlac04NS-4">
          <mxGeometry y="30" width="140" height="60" as="geometry" />
        </mxCell>
        <mxCell id="O3YReOEYEMmPAlac04NS-6" style="edgeStyle=orthogonalEdgeStyle;rounded=0;orthogonalLoop=1;jettySize=auto;html=1;entryX=1;entryY=0.5;entryDx=0;entryDy=0;exitX=0;exitY=0.25;exitDx=0;exitDy=0;" edge="1" parent="3QWlzXrFfL8tTj5AN-8l-1" source="WHYKahnTicLhl7j8voLV-1" target="VOzDeTPEgK6Z1M2UL1N2-0">
          <mxGeometry relative="1" as="geometry" />
        </mxCell>
        <mxCell id="O3YReOEYEMmPAlac04NS-7" value="ข้อความจากผู้รับฝาก" style="edgeLabel;html=1;align=center;verticalAlign=middle;resizable=0;points=[];" connectable="0" vertex="1" parent="O3YReOEYEMmPAlac04NS-6">
          <mxGeometry x="-0.2742" y="4" relative="1" as="geometry">
            <mxPoint x="-16" y="-4" as="offset" />
          </mxGeometry>
        </mxCell>
      </root>
    </mxGraphModel>
  </diagram>
  <diagram id="O_w84E53wj0DwOc1WPPf" name="process6">
    <mxGraphModel dx="1038" dy="580" grid="1" gridSize="10" guides="1" tooltips="1" connect="1" arrows="1" fold="1" page="1" pageScale="1" pageWidth="827" pageHeight="1169" math="0" shadow="0">
      <root>
        <mxCell id="U2cUjku3HCILFNbWFttd-0" />
        <mxCell id="U2cUjku3HCILFNbWFttd-1" parent="U2cUjku3HCILFNbWFttd-0" />
        <mxCell id="djobZy1fqBRoiYXk4cpW-8" value="6.4" style="swimlane;childLayout=stackLayout;horizontal=1;startSize=30;horizontalStack=0;rounded=1;fontSize=14;fontStyle=0;strokeWidth=2;resizeParent=0;resizeLast=1;shadow=0;dashed=0;align=center;" parent="U2cUjku3HCILFNbWFttd-1" vertex="1">
          <mxGeometry x="334" y="450" width="160" height="90" as="geometry" />
        </mxCell>
        <mxCell id="djobZy1fqBRoiYXk4cpW-9" value="บันทึกข้อมูลการเลือกบริการ" style="align=center;strokeColor=none;fillColor=none;spacingLeft=4;fontSize=12;verticalAlign=top;resizable=0;rotatable=0;part=1;" parent="djobZy1fqBRoiYXk4cpW-8" vertex="1">
          <mxGeometry y="30" width="160" height="60" as="geometry" />
        </mxCell>
        <mxCell id="djobZy1fqBRoiYXk4cpW-10" value="6.5" style="swimlane;childLayout=stackLayout;horizontal=1;startSize=30;horizontalStack=0;rounded=1;fontSize=14;fontStyle=0;strokeWidth=2;resizeParent=0;resizeLast=1;shadow=0;dashed=0;align=center;" parent="U2cUjku3HCILFNbWFttd-1" vertex="1">
          <mxGeometry x="330" y="760" width="160" height="90" as="geometry" />
        </mxCell>
        <mxCell id="djobZy1fqBRoiYXk4cpW-11" value="แสดงรายละเอียด&#xa;สถานะการฝาก" style="align=center;strokeColor=none;fillColor=none;spacingLeft=4;fontSize=13;verticalAlign=top;resizable=0;rotatable=0;part=1;" parent="djobZy1fqBRoiYXk4cpW-10" vertex="1">
          <mxGeometry y="30" width="160" height="60" as="geometry" />
        </mxCell>
        <mxCell id="t-tHMITLuK-In85EX5He-1" style="edgeStyle=orthogonalEdgeStyle;rounded=0;orthogonalLoop=1;jettySize=auto;html=1;fontSize=13;entryX=0;entryY=0.25;entryDx=0;entryDy=0;" parent="U2cUjku3HCILFNbWFttd-1" source="djobZy1fqBRoiYXk4cpW-17" target="r4mbu0SgfHMdnYsDPOwI-1" edge="1">
          <mxGeometry relative="1" as="geometry">
            <mxPoint x="338.24" y="860" as="targetPoint" />
            <Array as="points">
              <mxPoint x="58" y="150" />
              <mxPoint x="58" y="955" />
            </Array>
          </mxGeometry>
        </mxCell>
        <mxCell id="t-tHMITLuK-In85EX5He-2" value="คะแนนผู้รับฝาก" style="edgeLabel;html=1;align=center;verticalAlign=middle;resizable=0;points=[];fontSize=13;" parent="t-tHMITLuK-In85EX5He-1" connectable="0" vertex="1">
          <mxGeometry x="0.0099" y="-6" relative="1" as="geometry">
            <mxPoint x="-2.0300000000000002" y="-6.06" as="offset" />
          </mxGeometry>
        </mxCell>
        <mxCell id="6fVXkhK7sHT3OCJ3KCVC-0" style="edgeStyle=orthogonalEdgeStyle;rounded=0;orthogonalLoop=1;jettySize=auto;html=1;entryX=0;entryY=0.5;entryDx=0;entryDy=0;fontSize=12;" parent="U2cUjku3HCILFNbWFttd-1" source="djobZy1fqBRoiYXk4cpW-17" edge="1">
          <mxGeometry relative="1" as="geometry">
            <mxPoint x="330" y="150" as="targetPoint" />
          </mxGeometry>
        </mxCell>
        <mxCell id="6fVXkhK7sHT3OCJ3KCVC-1" value="ข้อมูลการเลือกบริการ" style="edgeLabel;html=1;align=center;verticalAlign=middle;resizable=0;points=[];fontSize=12;" parent="6fVXkhK7sHT3OCJ3KCVC-0" connectable="0" vertex="1">
          <mxGeometry x="-0.2062" y="2" relative="1" as="geometry">
            <mxPoint y="-8" as="offset" />
          </mxGeometry>
        </mxCell>
        <mxCell id="djobZy1fqBRoiYXk4cpW-17" value="ผู้ใช้งานทั่วไป" style="whiteSpace=wrap;html=1;aspect=fixed;align=center;" parent="U2cUjku3HCILFNbWFttd-1" vertex="1">
          <mxGeometry x="98.24000000000001" y="110" width="80" height="80" as="geometry" />
        </mxCell>
        <mxCell id="aEuKO5O_z8x9gai6Jv-I-0" value="6. ฝากสุนัข" style="text;html=1;align=center;verticalAlign=middle;resizable=0;points=[];autosize=1;" parent="U2cUjku3HCILFNbWFttd-1" vertex="1">
          <mxGeometry x="98.24000000000001" y="70" width="70" height="20" as="geometry" />
        </mxCell>
        <mxCell id="6zDkXT1Yc2IaD1GWjxfj-0" value="D6&amp;nbsp; &amp;nbsp; &amp;nbsp; การบริการ" style="html=1;dashed=0;whitespace=wrap;shape=mxgraph.dfd.dataStoreID;align=left;spacingLeft=3;points=[[0,0],[0.5,0],[1,0],[0,0.5],[1,0.5],[0,1],[0.5,1],[1,1]];" parent="U2cUjku3HCILFNbWFttd-1" vertex="1">
          <mxGeometry x="600" y="490" width="170" height="30" as="geometry" />
        </mxCell>
        <mxCell id="6zDkXT1Yc2IaD1GWjxfj-1" style="edgeStyle=orthogonalEdgeStyle;rounded=0;orthogonalLoop=1;jettySize=auto;html=1;entryX=0.25;entryY=1;entryDx=0;entryDy=0;" parent="U2cUjku3HCILFNbWFttd-1" source="djobZy1fqBRoiYXk4cpW-11" target="djobZy1fqBRoiYXk4cpW-17" edge="1">
          <mxGeometry relative="1" as="geometry" />
        </mxCell>
        <mxCell id="6zDkXT1Yc2IaD1GWjxfj-3" value="&lt;span style=&quot;font-size: 12px ; background-color: rgb(248 , 249 , 250)&quot;&gt;รายละเอียด&lt;/span&gt;&lt;span style=&quot;font-size: 12px ; background-color: rgb(248 , 249 , 250)&quot;&gt;สถานะการฝาก&lt;/span&gt;" style="edgeLabel;html=1;align=center;verticalAlign=middle;resizable=0;points=[];" parent="6zDkXT1Yc2IaD1GWjxfj-1" connectable="0" vertex="1">
          <mxGeometry x="-0.6557" y="-1" relative="1" as="geometry">
            <mxPoint x="24.76" y="-9" as="offset" />
          </mxGeometry>
        </mxCell>
        <mxCell id="6zDkXT1Yc2IaD1GWjxfj-4" style="edgeStyle=orthogonalEdgeStyle;rounded=0;orthogonalLoop=1;jettySize=auto;html=1;entryX=0;entryY=0.5;entryDx=0;entryDy=0;" parent="U2cUjku3HCILFNbWFttd-1" source="djobZy1fqBRoiYXk4cpW-9" target="6zDkXT1Yc2IaD1GWjxfj-0" edge="1">
          <mxGeometry relative="1" as="geometry">
            <mxPoint x="575" y="640" as="targetPoint" />
          </mxGeometry>
        </mxCell>
        <mxCell id="r4mbu0SgfHMdnYsDPOwI-0" value="6.6" style="swimlane;childLayout=stackLayout;horizontal=1;startSize=30;horizontalStack=0;rounded=1;fontSize=14;fontStyle=0;strokeWidth=2;resizeParent=0;resizeLast=1;shadow=0;dashed=0;align=center;" parent="U2cUjku3HCILFNbWFttd-1" vertex="1">
          <mxGeometry x="330" y="910" width="160" height="90" as="geometry" />
        </mxCell>
        <mxCell id="r4mbu0SgfHMdnYsDPOwI-1" value="บันทึกคะแนนผู้รับฝาก" style="align=center;strokeColor=none;fillColor=none;spacingLeft=4;fontSize=12;verticalAlign=top;resizable=0;rotatable=0;part=1;" parent="r4mbu0SgfHMdnYsDPOwI-0" vertex="1">
          <mxGeometry y="30" width="160" height="60" as="geometry" />
        </mxCell>
        <mxCell id="t-tHMITLuK-In85EX5He-4" value="&lt;font style=&quot;font-size: 14px&quot;&gt;D4&amp;nbsp; &amp;nbsp; &amp;nbsp; ข้อมูลผู้รับฝาก&lt;/font&gt;" style="html=1;dashed=0;whitespace=wrap;shape=mxgraph.dfd.dataStoreID;align=left;spacingLeft=3;points=[[0,0],[0.5,0],[1,0],[0,0.5],[1,0.5],[0,1],[0.5,1],[1,1]];" parent="U2cUjku3HCILFNbWFttd-1" vertex="1">
          <mxGeometry x="325" y="1060" width="170" height="30" as="geometry" />
        </mxCell>
        <mxCell id="t-tHMITLuK-In85EX5He-5" style="edgeStyle=orthogonalEdgeStyle;rounded=0;orthogonalLoop=1;jettySize=auto;html=1;entryX=0.5;entryY=0;entryDx=0;entryDy=0;fontSize=13;" parent="U2cUjku3HCILFNbWFttd-1" source="r4mbu0SgfHMdnYsDPOwI-1" target="t-tHMITLuK-In85EX5He-4" edge="1">
          <mxGeometry relative="1" as="geometry" />
        </mxCell>
        <mxCell id="t8HZlFefgsMyxiUOSy_p-0" style="edgeStyle=orthogonalEdgeStyle;rounded=0;orthogonalLoop=1;jettySize=auto;html=1;fontSize=12;" parent="U2cUjku3HCILFNbWFttd-1" source="kplfIHS7Zj5u5t1rQ_hE-0" edge="1">
          <mxGeometry relative="1" as="geometry">
            <mxPoint x="695" y="450" as="targetPoint" />
            <Array as="points">
              <mxPoint x="695" y="450" />
            </Array>
          </mxGeometry>
        </mxCell>
        <mxCell id="8qKQ5uqRrDS9dGgDBjtB-0" value="การตอบกลับคำขอบริการ" style="edgeLabel;html=1;align=center;verticalAlign=middle;resizable=0;points=[];fontSize=12;" parent="t8HZlFefgsMyxiUOSy_p-0" connectable="0" vertex="1">
          <mxGeometry x="0.4057" relative="1" as="geometry">
            <mxPoint x="-6.6" y="-13" as="offset" />
          </mxGeometry>
        </mxCell>
        <mxCell id="kplfIHS7Zj5u5t1rQ_hE-0" value="ผู้รับฝาก" style="whiteSpace=wrap;html=1;aspect=fixed;align=center;" parent="U2cUjku3HCILFNbWFttd-1" vertex="1">
          <mxGeometry x="650" y="120" width="90" height="90" as="geometry" />
        </mxCell>
        <mxCell id="7STjfaAX0fKIV-J-m2Md-0" value="6.2" style="swimlane;childLayout=stackLayout;horizontal=1;startSize=30;horizontalStack=0;rounded=1;fontSize=14;fontStyle=0;strokeWidth=2;resizeParent=0;resizeLast=1;shadow=0;dashed=0;align=center;" parent="U2cUjku3HCILFNbWFttd-1" vertex="1">
          <mxGeometry x="340" y="120" width="160" height="80" as="geometry" />
        </mxCell>
        <mxCell id="7STjfaAX0fKIV-J-m2Md-1" value="ส่งข้อมูลการบริการไปยัง&#xa;ผู้รับฝาก" style="align=center;strokeColor=none;fillColor=none;spacingLeft=4;fontSize=12;verticalAlign=top;resizable=0;rotatable=0;part=1;" parent="7STjfaAX0fKIV-J-m2Md-0" vertex="1">
          <mxGeometry y="30" width="160" height="50" as="geometry" />
        </mxCell>
        <mxCell id="dC50z9-Pnq2aBkUxWYt6-0" value="Hostdog - DFD Level 1 - Process 6" style="text;html=1;align=center;verticalAlign=middle;resizable=0;points=[];autosize=1;" parent="U2cUjku3HCILFNbWFttd-1" vertex="1">
          <mxGeometry x="40" y="40" width="200" height="20" as="geometry" />
        </mxCell>
        <mxCell id="MOfoUYO6QOaeuiUR6zv_-2" style="edgeStyle=orthogonalEdgeStyle;rounded=0;orthogonalLoop=1;jettySize=auto;html=1;entryX=0.004;entryY=0.443;entryDx=0;entryDy=0;entryPerimeter=0;" parent="U2cUjku3HCILFNbWFttd-1" source="7STjfaAX0fKIV-J-m2Md-1" target="kplfIHS7Zj5u5t1rQ_hE-0" edge="1">
          <mxGeometry relative="1" as="geometry">
            <Array as="points">
              <mxPoint x="540" y="160" />
              <mxPoint x="540" y="160" />
            </Array>
          </mxGeometry>
        </mxCell>
      </root>
    </mxGraphModel>
  </diagram>
  <diagram id="uMXGmR4BjEOZttt4Zt60" name="process7">
    <mxGraphModel dx="1038" dy="580" grid="1" gridSize="10" guides="1" tooltips="1" connect="1" arrows="1" fold="1" page="1" pageScale="1" pageWidth="827" pageHeight="1169" math="0" shadow="0">
      <root>
        <mxCell id="TMGpo8OqaFI08jTDgh2Z-0" />
        <mxCell id="TMGpo8OqaFI08jTDgh2Z-1" parent="TMGpo8OqaFI08jTDgh2Z-0" />
        <mxCell id="7sq8Zqh4vX7ZL-CTDV0M-4" value="7.1" style="swimlane;childLayout=stackLayout;horizontal=1;startSize=30;horizontalStack=0;rounded=1;fontSize=14;fontStyle=0;strokeWidth=2;resizeParent=0;resizeLast=1;shadow=0;dashed=0;align=center;" parent="TMGpo8OqaFI08jTDgh2Z-1" vertex="1">
          <mxGeometry x="340" y="170" width="160" height="90" as="geometry">
            <mxRectangle x="310" y="300" width="50" height="30" as="alternateBounds" />
          </mxGeometry>
        </mxCell>
        <mxCell id="7sq8Zqh4vX7ZL-CTDV0M-5" value="กรอกข้อมูลการชำระเงิน" style="align=center;strokeColor=none;fillColor=none;spacingLeft=4;fontSize=12;verticalAlign=top;resizable=0;rotatable=0;part=1;" parent="7sq8Zqh4vX7ZL-CTDV0M-4" vertex="1">
          <mxGeometry y="30" width="160" height="60" as="geometry" />
        </mxCell>
        <mxCell id="7sq8Zqh4vX7ZL-CTDV0M-6" value="7.2" style="swimlane;childLayout=stackLayout;horizontal=1;startSize=30;horizontalStack=0;rounded=1;fontSize=14;fontStyle=0;strokeWidth=2;resizeParent=0;resizeLast=1;shadow=0;dashed=0;align=center;" parent="TMGpo8OqaFI08jTDgh2Z-1" vertex="1">
          <mxGeometry x="340" y="360" width="160" height="80" as="geometry" />
        </mxCell>
        <mxCell id="7sq8Zqh4vX7ZL-CTDV0M-7" value="ตรวจสอบข้อมูล&#xa;การชำระเงิน" style="align=center;strokeColor=none;fillColor=none;spacingLeft=4;fontSize=12;verticalAlign=top;resizable=0;rotatable=0;part=1;" parent="7sq8Zqh4vX7ZL-CTDV0M-6" vertex="1">
          <mxGeometry y="30" width="160" height="50" as="geometry" />
        </mxCell>
        <mxCell id="7sq8Zqh4vX7ZL-CTDV0M-10" value="7.3" style="swimlane;childLayout=stackLayout;horizontal=1;startSize=30;horizontalStack=0;rounded=1;fontSize=14;fontStyle=0;strokeWidth=2;resizeParent=0;resizeLast=1;shadow=0;dashed=0;align=center;" parent="TMGpo8OqaFI08jTDgh2Z-1" vertex="1">
          <mxGeometry x="340" y="500" width="160" height="90" as="geometry" />
        </mxCell>
        <mxCell id="7sq8Zqh4vX7ZL-CTDV0M-11" value="บันทึกการชำระเงิน" style="align=center;strokeColor=none;fillColor=none;spacingLeft=4;fontSize=12;verticalAlign=top;resizable=0;rotatable=0;part=1;" parent="7sq8Zqh4vX7ZL-CTDV0M-10" vertex="1">
          <mxGeometry y="30" width="160" height="60" as="geometry" />
        </mxCell>
        <mxCell id="7sq8Zqh4vX7ZL-CTDV0M-12" value="7.4" style="swimlane;childLayout=stackLayout;horizontal=1;startSize=30;horizontalStack=0;rounded=1;fontSize=14;fontStyle=0;strokeWidth=2;resizeParent=0;resizeLast=1;shadow=0;dashed=0;align=center;" parent="TMGpo8OqaFI08jTDgh2Z-1" vertex="1">
          <mxGeometry x="340" y="680" width="160" height="90" as="geometry" />
        </mxCell>
        <mxCell id="7sq8Zqh4vX7ZL-CTDV0M-13" value="แสดงผลการชำระเงิน" style="align=center;strokeColor=none;fillColor=none;spacingLeft=4;fontSize=12;verticalAlign=top;resizable=0;rotatable=0;part=1;" parent="7sq8Zqh4vX7ZL-CTDV0M-12" vertex="1">
          <mxGeometry y="30" width="160" height="60" as="geometry" />
        </mxCell>
        <mxCell id="7sq8Zqh4vX7ZL-CTDV0M-16" value="" style="endArrow=classic;html=1;exitX=0.5;exitY=1;exitDx=0;exitDy=0;entryX=0.5;entryY=0;entryDx=0;entryDy=0;" parent="TMGpo8OqaFI08jTDgh2Z-1" source="7sq8Zqh4vX7ZL-CTDV0M-5" target="7sq8Zqh4vX7ZL-CTDV0M-6" edge="1">
          <mxGeometry width="50" height="50" relative="1" as="geometry">
            <mxPoint x="420" y="410" as="sourcePoint" />
            <mxPoint x="470" y="360" as="targetPoint" />
            <Array as="points">
              <mxPoint x="420" y="300" />
            </Array>
          </mxGeometry>
        </mxCell>
        <mxCell id="pTs1Nb8PQQTOIjIQDed4-13" value="ข้อมูลการชำระเงิน" style="edgeLabel;html=1;align=center;verticalAlign=middle;resizable=0;points=[];fontSize=12;" parent="7sq8Zqh4vX7ZL-CTDV0M-16" connectable="0" vertex="1">
          <mxGeometry x="0.06" y="1" relative="1" as="geometry">
            <mxPoint as="offset" />
          </mxGeometry>
        </mxCell>
        <mxCell id="7sq8Zqh4vX7ZL-CTDV0M-17" value="" style="endArrow=classic;html=1;exitX=0.5;exitY=1;exitDx=0;exitDy=0;entryX=0.5;entryY=0;entryDx=0;entryDy=0;" parent="TMGpo8OqaFI08jTDgh2Z-1" source="7sq8Zqh4vX7ZL-CTDV0M-7" target="7sq8Zqh4vX7ZL-CTDV0M-10" edge="1">
          <mxGeometry width="50" height="50" relative="1" as="geometry">
            <mxPoint x="420" y="470" as="sourcePoint" />
            <mxPoint x="420" y="440" as="targetPoint" />
          </mxGeometry>
        </mxCell>
        <mxCell id="pTs1Nb8PQQTOIjIQDed4-14" value="ข้อมูลการชำระเงิน" style="edgeLabel;html=1;align=center;verticalAlign=middle;resizable=0;points=[];fontSize=12;" parent="7sq8Zqh4vX7ZL-CTDV0M-17" connectable="0" vertex="1">
          <mxGeometry x="-0.2133" y="2" relative="1" as="geometry">
            <mxPoint as="offset" />
          </mxGeometry>
        </mxCell>
        <mxCell id="7sq8Zqh4vX7ZL-CTDV0M-19" value="" style="endArrow=classic;html=1;entryX=0.5;entryY=0;entryDx=0;entryDy=0;exitX=0.5;exitY=1;exitDx=0;exitDy=0;" parent="TMGpo8OqaFI08jTDgh2Z-1" source="7sq8Zqh4vX7ZL-CTDV0M-11" target="7sq8Zqh4vX7ZL-CTDV0M-12" edge="1">
          <mxGeometry width="50" height="50" relative="1" as="geometry">
            <mxPoint x="420" y="700" as="sourcePoint" />
            <mxPoint x="470" y="620" as="targetPoint" />
          </mxGeometry>
        </mxCell>
        <mxCell id="pTs1Nb8PQQTOIjIQDed4-16" value="รายละเอียดการชำระเงิน" style="edgeLabel;html=1;align=center;verticalAlign=middle;resizable=0;points=[];fontSize=12;" parent="7sq8Zqh4vX7ZL-CTDV0M-19" connectable="0" vertex="1">
          <mxGeometry x="-0.2571" y="3" relative="1" as="geometry">
            <mxPoint x="-3" y="6.67" as="offset" />
          </mxGeometry>
        </mxCell>
        <mxCell id="pTs1Nb8PQQTOIjIQDed4-4" style="edgeStyle=orthogonalEdgeStyle;rounded=0;orthogonalLoop=1;jettySize=auto;html=1;entryX=0;entryY=0.5;entryDx=0;entryDy=0;" parent="TMGpo8OqaFI08jTDgh2Z-1" source="7sq8Zqh4vX7ZL-CTDV0M-20" target="7sq8Zqh4vX7ZL-CTDV0M-5" edge="1">
          <mxGeometry relative="1" as="geometry">
            <Array as="points">
              <mxPoint x="120" y="230" />
              <mxPoint x="330" y="230" />
            </Array>
          </mxGeometry>
        </mxCell>
        <mxCell id="pTs1Nb8PQQTOIjIQDed4-5" value="&lt;span style=&quot;font-size: 12px ; background-color: rgb(248 , 249 , 250)&quot;&gt;ข้อมูลการชำระเงิน&lt;/span&gt;" style="edgeLabel;html=1;align=center;verticalAlign=middle;resizable=0;points=[];" parent="pTs1Nb8PQQTOIjIQDed4-4" connectable="0" vertex="1">
          <mxGeometry x="0.2059" y="-2" relative="1" as="geometry">
            <mxPoint as="offset" />
          </mxGeometry>
        </mxCell>
        <mxCell id="7sq8Zqh4vX7ZL-CTDV0M-20" value="ผู้ใช้งานทั่วไป" style="whiteSpace=wrap;html=1;aspect=fixed;align=center;" parent="TMGpo8OqaFI08jTDgh2Z-1" vertex="1">
          <mxGeometry x="70" y="90" width="80" height="80" as="geometry" />
        </mxCell>
        <mxCell id="HcYrOF011Ez-ZXzDCOe0-3" style="edgeStyle=orthogonalEdgeStyle;rounded=0;orthogonalLoop=1;jettySize=auto;html=1;entryX=0.5;entryY=1;entryDx=0;entryDy=0;" parent="TMGpo8OqaFI08jTDgh2Z-1" source="pTs1Nb8PQQTOIjIQDed4-1" target="HcYrOF011Ez-ZXzDCOe0-1" edge="1">
          <mxGeometry relative="1" as="geometry" />
        </mxCell>
        <mxCell id="pTs1Nb8PQQTOIjIQDed4-1" value="D7&amp;nbsp; &amp;nbsp; &amp;nbsp;ประวัติการชำระเงิน" style="html=1;dashed=0;whitespace=wrap;shape=mxgraph.dfd.dataStoreID;align=left;spacingLeft=3;points=[[0,0],[0.5,0],[1,0],[0,0.5],[1,0.5],[0,1],[0.5,1],[1,1]];" parent="TMGpo8OqaFI08jTDgh2Z-1" vertex="1">
          <mxGeometry x="610" y="530" width="150" height="30" as="geometry" />
        </mxCell>
        <mxCell id="pTs1Nb8PQQTOIjIQDed4-6" style="edgeStyle=orthogonalEdgeStyle;rounded=0;orthogonalLoop=1;jettySize=auto;html=1;entryX=0.25;entryY=1;entryDx=0;entryDy=0;" parent="TMGpo8OqaFI08jTDgh2Z-1" source="7sq8Zqh4vX7ZL-CTDV0M-13" target="7sq8Zqh4vX7ZL-CTDV0M-20" edge="1">
          <mxGeometry relative="1" as="geometry" />
        </mxCell>
        <mxCell id="pTs1Nb8PQQTOIjIQDed4-7" value="&lt;span style=&quot;font-size: 12px ; background-color: rgb(248 , 249 , 250)&quot;&gt;รายละเอียดการชำระเงิน&lt;/span&gt;" style="edgeLabel;html=1;align=center;verticalAlign=middle;resizable=0;points=[];" parent="pTs1Nb8PQQTOIjIQDed4-6" connectable="0" vertex="1">
          <mxGeometry x="-0.6472" y="4" relative="1" as="geometry">
            <mxPoint as="offset" />
          </mxGeometry>
        </mxCell>
        <mxCell id="IfY3myfbmdEpObOrWO0i-0" style="edgeStyle=orthogonalEdgeStyle;rounded=0;orthogonalLoop=1;jettySize=auto;html=1;exitX=1;exitY=0.25;exitDx=0;exitDy=0;entryX=0;entryY=0.5;entryDx=0;entryDy=0;" parent="TMGpo8OqaFI08jTDgh2Z-1" source="7sq8Zqh4vX7ZL-CTDV0M-11" target="pTs1Nb8PQQTOIjIQDed4-1" edge="1">
          <mxGeometry relative="1" as="geometry" />
        </mxCell>
        <mxCell id="2bco-GesvVvo0GZEwBue-1" style="edgeStyle=orthogonalEdgeStyle;rounded=0;orthogonalLoop=1;jettySize=auto;html=1;entryX=0.461;entryY=1.009;entryDx=0;entryDy=0;entryPerimeter=0;exitX=0.5;exitY=0;exitDx=0;exitDy=0;" parent="TMGpo8OqaFI08jTDgh2Z-1" source="HcYrOF011Ez-ZXzDCOe0-0" target="2bco-GesvVvo0GZEwBue-0" edge="1">
          <mxGeometry relative="1" as="geometry">
            <mxPoint x="726" y="350" as="sourcePoint" />
          </mxGeometry>
        </mxCell>
        <mxCell id="AC7LfdH-K8UrkpZ0ffao-0" value="บันทึกการชำระเงิน" style="edgeLabel;html=1;align=center;verticalAlign=middle;resizable=0;points=[];fontSize=12;" parent="2bco-GesvVvo0GZEwBue-1" connectable="0" vertex="1">
          <mxGeometry x="0.2837" y="1" relative="1" as="geometry">
            <mxPoint as="offset" />
          </mxGeometry>
        </mxCell>
        <mxCell id="2bco-GesvVvo0GZEwBue-0" value="องค์กร" style="whiteSpace=wrap;html=1;aspect=fixed;align=center;" parent="TMGpo8OqaFI08jTDgh2Z-1" vertex="1">
          <mxGeometry x="648" y="90" width="80" height="80" as="geometry" />
        </mxCell>
        <mxCell id="HcYrOF011Ez-ZXzDCOe0-0" value="7.5" style="swimlane;childLayout=stackLayout;horizontal=1;startSize=30;horizontalStack=0;rounded=1;fontSize=14;fontStyle=0;strokeWidth=2;resizeParent=0;resizeLast=1;shadow=0;dashed=0;align=center;" parent="TMGpo8OqaFI08jTDgh2Z-1" vertex="1">
          <mxGeometry x="605" y="310" width="160" height="90" as="geometry" />
        </mxCell>
        <mxCell id="HcYrOF011Ez-ZXzDCOe0-1" value="ส่งบันทึกการชำระเงิน" style="align=center;strokeColor=none;fillColor=none;spacingLeft=4;fontSize=12;verticalAlign=top;resizable=0;rotatable=0;part=1;" parent="HcYrOF011Ez-ZXzDCOe0-0" vertex="1">
          <mxGeometry y="30" width="160" height="60" as="geometry" />
        </mxCell>
        <mxCell id="ETzudwcP_vuyWbaYWFzk-1" value="Hostdog - DFD Level 1 - Process 7" style="text;html=1;align=center;verticalAlign=middle;resizable=0;points=[];autosize=1;" parent="TMGpo8OqaFI08jTDgh2Z-1" vertex="1">
          <mxGeometry x="70" y="40" width="200" height="20" as="geometry" />
        </mxCell>
      </root>
    </mxGraphModel>
  </diagram>
  <diagram id="qIg7EFORs-AHQ0p_7vGr" name="process8">
    <mxGraphModel dx="1038" dy="580" grid="1" gridSize="10" guides="1" tooltips="1" connect="1" arrows="1" fold="1" page="1" pageScale="1" pageWidth="827" pageHeight="1169" math="0" shadow="0">
      <root>
        <mxCell id="SVfyath5o8N_kU9xz8Oc-0" />
        <mxCell id="SVfyath5o8N_kU9xz8Oc-1" parent="SVfyath5o8N_kU9xz8Oc-0" />
        <mxCell id="qhtl3kM32GavAqgzx33N-2" value="8.1" style="swimlane;childLayout=stackLayout;horizontal=1;startSize=30;horizontalStack=0;rounded=1;fontSize=14;fontStyle=0;strokeWidth=2;resizeParent=0;resizeLast=1;shadow=0;dashed=0;align=center;" parent="SVfyath5o8N_kU9xz8Oc-1" vertex="1">
          <mxGeometry x="340" y="120" width="160" height="90" as="geometry" />
        </mxCell>
        <mxCell id="qhtl3kM32GavAqgzx33N-3" value="รับข้อมูลการลงทะเบียน&#xa;เป็นผู้รับฝาก" style="align=center;strokeColor=none;fillColor=none;spacingLeft=4;fontSize=12;verticalAlign=top;resizable=0;rotatable=0;part=1;" parent="qhtl3kM32GavAqgzx33N-2" vertex="1">
          <mxGeometry y="30" width="160" height="60" as="geometry" />
        </mxCell>
        <mxCell id="qhtl3kM32GavAqgzx33N-4" value="8.2" style="swimlane;childLayout=stackLayout;horizontal=1;startSize=30;horizontalStack=0;rounded=1;fontSize=14;fontStyle=0;strokeWidth=2;resizeParent=0;resizeLast=1;shadow=0;dashed=0;align=center;" parent="SVfyath5o8N_kU9xz8Oc-1" vertex="1">
          <mxGeometry x="340" y="300" width="160" height="90" as="geometry">
            <mxRectangle x="310" y="300" width="50" height="30" as="alternateBounds" />
          </mxGeometry>
        </mxCell>
        <mxCell id="qhtl3kM32GavAqgzx33N-5" value="ตรวจสอบคุณสมบัติผู้สมัคร" style="align=center;strokeColor=none;fillColor=none;spacingLeft=4;fontSize=12;verticalAlign=top;resizable=0;rotatable=0;part=1;" parent="qhtl3kM32GavAqgzx33N-4" vertex="1">
          <mxGeometry y="30" width="160" height="60" as="geometry" />
        </mxCell>
        <mxCell id="g0KxgY1nJFX2yg78L_8H-0" style="edgeStyle=orthogonalEdgeStyle;rounded=0;orthogonalLoop=1;jettySize=auto;html=1;entryX=0;entryY=0.25;entryDx=0;entryDy=0;" parent="SVfyath5o8N_kU9xz8Oc-1" source="qhtl3kM32GavAqgzx33N-20" target="qhtl3kM32GavAqgzx33N-3" edge="1">
          <mxGeometry relative="1" as="geometry" />
        </mxCell>
        <mxCell id="g0KxgY1nJFX2yg78L_8H-1" value="&lt;font style=&quot;font-size: 12px&quot;&gt;ข้อมูลการลงทะเบียน&lt;br&gt;เป็นผู้รับฝาก&lt;/font&gt;" style="edgeLabel;html=1;align=center;verticalAlign=middle;resizable=0;points=[];" parent="g0KxgY1nJFX2yg78L_8H-0" vertex="1" connectable="0">
          <mxGeometry x="-0.2889" y="-1" relative="1" as="geometry">
            <mxPoint x="16" y="-1" as="offset" />
          </mxGeometry>
        </mxCell>
        <mxCell id="qhtl3kM32GavAqgzx33N-20" value="ผู้ใช้งานทั่วไป" style="whiteSpace=wrap;html=1;aspect=fixed;align=center;" parent="SVfyath5o8N_kU9xz8Oc-1" vertex="1">
          <mxGeometry x="80" y="125" width="80" height="80" as="geometry" />
        </mxCell>
        <mxCell id="g0KxgY1nJFX2yg78L_8H-2" value="8.3" style="swimlane;childLayout=stackLayout;horizontal=1;startSize=30;horizontalStack=0;rounded=1;fontSize=14;fontStyle=0;strokeWidth=2;resizeParent=0;resizeLast=1;shadow=0;dashed=0;align=center;" parent="SVfyath5o8N_kU9xz8Oc-1" vertex="1">
          <mxGeometry x="340" y="430" width="160" height="90" as="geometry">
            <mxRectangle x="310" y="300" width="50" height="30" as="alternateBounds" />
          </mxGeometry>
        </mxCell>
        <mxCell id="g0KxgY1nJFX2yg78L_8H-3" value="อนุมัติการเป็นผู้รับฝาก" style="align=center;strokeColor=none;fillColor=none;spacingLeft=4;fontSize=12;verticalAlign=top;resizable=0;rotatable=0;part=1;" parent="g0KxgY1nJFX2yg78L_8H-2" vertex="1">
          <mxGeometry y="30" width="160" height="60" as="geometry" />
        </mxCell>
        <mxCell id="HTK1gIagGyFQzoKogwve-0" style="edgeStyle=orthogonalEdgeStyle;rounded=0;orthogonalLoop=1;jettySize=auto;html=1;entryX=0.5;entryY=0;entryDx=0;entryDy=0;" parent="SVfyath5o8N_kU9xz8Oc-1" source="qhtl3kM32GavAqgzx33N-3" target="qhtl3kM32GavAqgzx33N-4" edge="1">
          <mxGeometry relative="1" as="geometry" />
        </mxCell>
        <mxCell id="HTK1gIagGyFQzoKogwve-1" value="&lt;font style=&quot;font-size: 12px&quot;&gt;ข้อมูลการลงทะเบียน&lt;br&gt;เป็นผู้รับฝาก&lt;/font&gt;" style="edgeLabel;html=1;align=center;verticalAlign=middle;resizable=0;points=[];" parent="HTK1gIagGyFQzoKogwve-0" vertex="1" connectable="0">
          <mxGeometry x="-0.2667" y="-2" relative="1" as="geometry">
            <mxPoint as="offset" />
          </mxGeometry>
        </mxCell>
        <mxCell id="4hDoBZ3_HyO2HrDzarm1-2" style="edgeStyle=orthogonalEdgeStyle;rounded=0;orthogonalLoop=1;jettySize=auto;html=1;entryX=1;entryY=0.5;entryDx=0;entryDy=0;" parent="SVfyath5o8N_kU9xz8Oc-1" target="g0KxgY1nJFX2yg78L_8H-3" edge="1">
          <mxGeometry relative="1" as="geometry">
            <mxPoint x="680" y="360" as="sourcePoint" />
            <Array as="points">
              <mxPoint x="680" y="490" />
            </Array>
          </mxGeometry>
        </mxCell>
        <mxCell id="4hDoBZ3_HyO2HrDzarm1-4" value="&lt;font style=&quot;font-size: 12px&quot;&gt;การอนุมัติการเป็นผู้รับฝาก&lt;/font&gt;" style="edgeLabel;html=1;align=center;verticalAlign=middle;resizable=0;points=[];" parent="4hDoBZ3_HyO2HrDzarm1-2" vertex="1" connectable="0">
          <mxGeometry x="0.1548" y="4" relative="1" as="geometry">
            <mxPoint x="-31" y="-4" as="offset" />
          </mxGeometry>
        </mxCell>
        <mxCell id="4hDoBZ3_HyO2HrDzarm1-0" value="ผู้ดูแล" style="whiteSpace=wrap;html=1;aspect=fixed;align=center;" parent="SVfyath5o8N_kU9xz8Oc-1" vertex="1">
          <mxGeometry x="640" y="300" width="80" height="80" as="geometry" />
        </mxCell>
        <mxCell id="4hDoBZ3_HyO2HrDzarm1-1" style="edgeStyle=orthogonalEdgeStyle;rounded=0;orthogonalLoop=1;jettySize=auto;html=1;entryX=0;entryY=0.5;entryDx=0;entryDy=0;" parent="SVfyath5o8N_kU9xz8Oc-1" target="4hDoBZ3_HyO2HrDzarm1-0" edge="1">
          <mxGeometry relative="1" as="geometry">
            <mxPoint x="500" y="340" as="sourcePoint" />
            <Array as="points">
              <mxPoint x="500" y="340" />
            </Array>
          </mxGeometry>
        </mxCell>
        <mxCell id="4hDoBZ3_HyO2HrDzarm1-3" value="&lt;span style=&quot;font-size: 12px&quot;&gt;ข้อมูลการลงทะเบียน&lt;br&gt;เป็นผู้รับฝาก&lt;/span&gt;" style="edgeLabel;html=1;align=center;verticalAlign=middle;resizable=0;points=[];" parent="4hDoBZ3_HyO2HrDzarm1-1" vertex="1" connectable="0">
          <mxGeometry x="-0.1857" y="3" relative="1" as="geometry">
            <mxPoint x="3" y="8" as="offset" />
          </mxGeometry>
        </mxCell>
        <mxCell id="4hDoBZ3_HyO2HrDzarm1-5" style="edgeStyle=orthogonalEdgeStyle;rounded=0;orthogonalLoop=1;jettySize=auto;html=1;entryX=0.5;entryY=1;entryDx=0;entryDy=0;" parent="SVfyath5o8N_kU9xz8Oc-1" source="g0KxgY1nJFX2yg78L_8H-3" target="qhtl3kM32GavAqgzx33N-20" edge="1">
          <mxGeometry relative="1" as="geometry" />
        </mxCell>
        <mxCell id="QSDPMwZcE12abdcFU3wA-0" value="&lt;span style=&quot;font-size: 12px&quot;&gt;คำตอบกลับการเป็น&lt;br&gt;ผู้รับฝาก&lt;br&gt;&lt;/span&gt;" style="edgeLabel;html=1;align=center;verticalAlign=middle;resizable=0;points=[];" parent="4hDoBZ3_HyO2HrDzarm1-5" vertex="1" connectable="0">
          <mxGeometry x="-0.3743" y="2" relative="1" as="geometry">
            <mxPoint as="offset" />
          </mxGeometry>
        </mxCell>
        <mxCell id="vWb9mTsEZ-GxsSBfdIqN-0" value="Hostdog - DFD Level 1 - Process 8" style="text;html=1;align=center;verticalAlign=middle;resizable=0;points=[];autosize=1;" parent="SVfyath5o8N_kU9xz8Oc-1" vertex="1">
          <mxGeometry x="80" y="40" width="200" height="20" as="geometry" />
        </mxCell>
      </root>
    </mxGraphModel>
  </diagram>
  <diagram id="edFvlV8DTjo2jMg_KZdZ" name="process9">
    <mxGraphModel dx="1038" dy="580" grid="1" gridSize="10" guides="1" tooltips="1" connect="1" arrows="1" fold="1" page="1" pageScale="1" pageWidth="1169" pageHeight="1654" math="0" shadow="0">
      <root>
        <mxCell id="oH1qJ22LSW8pNRVhZk7p-0" />
        <mxCell id="oH1qJ22LSW8pNRVhZk7p-1" parent="oH1qJ22LSW8pNRVhZk7p-0" />
        <mxCell id="u_OB02-fmLzHfxV-Rmya-0" value="9.1" style="swimlane;childLayout=stackLayout;horizontal=1;startSize=30;horizontalStack=0;rounded=1;fontSize=14;fontStyle=0;strokeWidth=2;resizeParent=0;resizeLast=1;shadow=0;dashed=0;align=center;" parent="oH1qJ22LSW8pNRVhZk7p-1" vertex="1">
          <mxGeometry x="270" y="282.5" width="220" height="70" as="geometry" />
        </mxCell>
        <mxCell id="u_OB02-fmLzHfxV-Rmya-1" value="ข้อมูลรายงานจากผู้ใช้งานทั่วไป" style="align=center;strokeColor=none;fillColor=none;spacingLeft=4;fontSize=13;verticalAlign=top;resizable=0;rotatable=0;part=1;" parent="u_OB02-fmLzHfxV-Rmya-0" vertex="1">
          <mxGeometry y="30" width="220" height="40" as="geometry" />
        </mxCell>
        <mxCell id="DtuIKqo1lbAGDypSx8zz-0" value="9.2" style="swimlane;childLayout=stackLayout;horizontal=1;startSize=30;horizontalStack=0;rounded=1;fontSize=14;fontStyle=0;strokeWidth=2;resizeParent=0;resizeLast=1;shadow=0;dashed=0;align=center;" parent="oH1qJ22LSW8pNRVhZk7p-1" vertex="1">
          <mxGeometry x="620" y="282.5" width="210" height="70" as="geometry" />
        </mxCell>
        <mxCell id="DtuIKqo1lbAGDypSx8zz-1" value="ข้อมูลรายงานจากผู้รับฝาก" style="align=center;strokeColor=none;fillColor=none;spacingLeft=4;fontSize=13;verticalAlign=top;resizable=0;rotatable=0;part=1;" parent="DtuIKqo1lbAGDypSx8zz-0" vertex="1">
          <mxGeometry y="30" width="210" height="40" as="geometry" />
        </mxCell>
        <mxCell id="hhSEQHSeIq2iK6HXYZdR-1" style="edgeStyle=orthogonalEdgeStyle;rounded=0;orthogonalLoop=1;jettySize=auto;html=1;entryX=0.5;entryY=0;entryDx=0;entryDy=0;" parent="oH1qJ22LSW8pNRVhZk7p-1" source="Tr7ULuzej3zG4acVS04e-0" target="u_OB02-fmLzHfxV-Rmya-0" edge="1">
          <mxGeometry relative="1" as="geometry" />
        </mxCell>
        <mxCell id="hhSEQHSeIq2iK6HXYZdR-2" value="&lt;font style=&quot;font-size: 13px&quot;&gt;รายงานจากผู้ใช้งานทั่วไป&lt;/font&gt;" style="edgeLabel;html=1;align=center;verticalAlign=middle;resizable=0;points=[];" parent="hhSEQHSeIq2iK6HXYZdR-1" vertex="1" connectable="0">
          <mxGeometry x="-0.2461" y="-4" relative="1" as="geometry">
            <mxPoint x="-23.45" y="-9.03" as="offset" />
          </mxGeometry>
        </mxCell>
        <mxCell id="Tr7ULuzej3zG4acVS04e-0" value="ผู้ใช้งานทั่วไป" style="whiteSpace=wrap;html=1;aspect=fixed;align=center;" parent="oH1qJ22LSW8pNRVhZk7p-1" vertex="1">
          <mxGeometry x="140" y="127.5" width="80" height="80" as="geometry" />
        </mxCell>
        <mxCell id="zI4NQIMNIJQeTg-lcyDN-0" style="edgeStyle=orthogonalEdgeStyle;rounded=0;orthogonalLoop=1;jettySize=auto;html=1;entryX=0.5;entryY=0;entryDx=0;entryDy=0;" parent="oH1qJ22LSW8pNRVhZk7p-1" source="zaVLYH2ar4Qy6EBXbomB-0" target="DtuIKqo1lbAGDypSx8zz-0" edge="1">
          <mxGeometry relative="1" as="geometry" />
        </mxCell>
        <mxCell id="zI4NQIMNIJQeTg-lcyDN-1" value="&lt;span style=&quot;color: rgb(0 , 0 , 0) ; font-family: &amp;#34;helvetica&amp;#34; ; font-size: 13px ; font-style: normal ; font-weight: 400 ; letter-spacing: normal ; text-align: center ; text-indent: 0px ; text-transform: none ; word-spacing: 0px ; background-color: rgb(255 , 255 , 255) ; display: inline ; float: none&quot;&gt;รายงานจากผู้รับฝาก&lt;/span&gt;" style="edgeLabel;html=1;align=center;verticalAlign=middle;resizable=0;points=[];" parent="zI4NQIMNIJQeTg-lcyDN-0" vertex="1" connectable="0">
          <mxGeometry x="-0.2154" relative="1" as="geometry">
            <mxPoint x="1" as="offset" />
          </mxGeometry>
        </mxCell>
        <mxCell id="zaVLYH2ar4Qy6EBXbomB-0" value="ผู้รับฝาก" style="whiteSpace=wrap;html=1;aspect=fixed;align=center;" parent="oH1qJ22LSW8pNRVhZk7p-1" vertex="1">
          <mxGeometry x="910" y="120" width="95" height="95" as="geometry" />
        </mxCell>
        <mxCell id="zI4NQIMNIJQeTg-lcyDN-24" style="edgeStyle=orthogonalEdgeStyle;rounded=0;orthogonalLoop=1;jettySize=auto;html=1;entryX=0.5;entryY=1;entryDx=0;entryDy=0;fontSize=13;" parent="oH1qJ22LSW8pNRVhZk7p-1" source="hhSEQHSeIq2iK6HXYZdR-0" target="zI4NQIMNIJQeTg-lcyDN-23" edge="1">
          <mxGeometry relative="1" as="geometry" />
        </mxCell>
        <mxCell id="zI4NQIMNIJQeTg-lcyDN-28" value="รายงานความประพฤติผู้ใช้งาน" style="edgeLabel;html=1;align=center;verticalAlign=middle;resizable=0;points=[];fontSize=13;" parent="zI4NQIMNIJQeTg-lcyDN-24" connectable="0" vertex="1">
          <mxGeometry x="0.1085" y="1" relative="1" as="geometry">
            <mxPoint x="52.94" y="-1" as="offset" />
          </mxGeometry>
        </mxCell>
        <mxCell id="zI4NQIMNIJQeTg-lcyDN-26" style="edgeStyle=orthogonalEdgeStyle;rounded=0;orthogonalLoop=1;jettySize=auto;html=1;entryX=0.5;entryY=1;entryDx=0;entryDy=0;fontSize=13;" parent="oH1qJ22LSW8pNRVhZk7p-1" source="hhSEQHSeIq2iK6HXYZdR-0" target="zI4NQIMNIJQeTg-lcyDN-21" edge="1">
          <mxGeometry relative="1" as="geometry" />
        </mxCell>
        <mxCell id="zI4NQIMNIJQeTg-lcyDN-29" value="รายงานความประพฤติผู้ใช้งาน" style="edgeLabel;html=1;align=center;verticalAlign=middle;resizable=0;points=[];fontSize=13;" parent="zI4NQIMNIJQeTg-lcyDN-26" connectable="0" vertex="1">
          <mxGeometry x="0.0491" y="3" relative="1" as="geometry">
            <mxPoint x="-37.06" y="3" as="offset" />
          </mxGeometry>
        </mxCell>
        <mxCell id="hhSEQHSeIq2iK6HXYZdR-0" value="ผู้ดูแล" style="whiteSpace=wrap;html=1;aspect=fixed;align=center;" parent="oH1qJ22LSW8pNRVhZk7p-1" vertex="1">
          <mxGeometry x="530" y="792.5" width="90" height="90" as="geometry" />
        </mxCell>
        <mxCell id="zI4NQIMNIJQeTg-lcyDN-8" style="edgeStyle=orthogonalEdgeStyle;rounded=0;orthogonalLoop=1;jettySize=auto;html=1;entryX=0.5;entryY=0;entryDx=0;entryDy=0;" parent="oH1qJ22LSW8pNRVhZk7p-1" source="zI4NQIMNIJQeTg-lcyDN-2" target="zI4NQIMNIJQeTg-lcyDN-6" edge="1">
          <mxGeometry relative="1" as="geometry" />
        </mxCell>
        <mxCell id="zI4NQIMNIJQeTg-lcyDN-2" value="&amp;nbsp;D8&amp;nbsp; &amp;nbsp; &amp;nbsp;รายงานการบริการ" style="html=1;dashed=0;whitespace=wrap;shape=mxgraph.dfd.dataStoreID;align=left;spacingLeft=3;points=[[0,0],[0.5,0],[1,0],[0,0.5],[1,0.5],[0,1],[0.5,1],[1,1]];" parent="oH1qJ22LSW8pNRVhZk7p-1" vertex="1">
          <mxGeometry x="510" y="512.5" width="130" height="30" as="geometry" />
        </mxCell>
        <mxCell id="zI4NQIMNIJQeTg-lcyDN-3" style="edgeStyle=orthogonalEdgeStyle;rounded=0;orthogonalLoop=1;jettySize=auto;html=1;entryX=0.273;entryY=0.053;entryDx=0;entryDy=0;entryPerimeter=0;" parent="oH1qJ22LSW8pNRVhZk7p-1" source="u_OB02-fmLzHfxV-Rmya-1" target="zI4NQIMNIJQeTg-lcyDN-2" edge="1">
          <mxGeometry relative="1" as="geometry">
            <mxPoint x="555" y="542.5" as="targetPoint" />
            <Array as="points">
              <mxPoint x="410" y="442.5" />
              <mxPoint x="545" y="442.5" />
            </Array>
          </mxGeometry>
        </mxCell>
        <mxCell id="zI4NQIMNIJQeTg-lcyDN-15" value="รายงานจากผู้ใช้งานทั่วไป" style="edgeLabel;html=1;align=center;verticalAlign=middle;resizable=0;points=[];fontSize=13;" parent="zI4NQIMNIJQeTg-lcyDN-3" connectable="0" vertex="1">
          <mxGeometry x="-0.2845" y="-2" relative="1" as="geometry">
            <mxPoint as="offset" />
          </mxGeometry>
        </mxCell>
        <mxCell id="zI4NQIMNIJQeTg-lcyDN-4" style="edgeStyle=orthogonalEdgeStyle;rounded=0;orthogonalLoop=1;jettySize=auto;html=1;entryX=0.769;entryY=0;entryDx=0;entryDy=0;entryPerimeter=0;" parent="oH1qJ22LSW8pNRVhZk7p-1" source="DtuIKqo1lbAGDypSx8zz-1" target="zI4NQIMNIJQeTg-lcyDN-2" edge="1">
          <mxGeometry relative="1" as="geometry" />
        </mxCell>
        <mxCell id="zI4NQIMNIJQeTg-lcyDN-16" value="&lt;span style=&quot;font-family: &amp;#34;helvetica&amp;#34;&quot;&gt;รายงานจากผู้รับฝาก&lt;/span&gt;" style="edgeLabel;html=1;align=center;verticalAlign=middle;resizable=0;points=[];fontSize=13;" parent="zI4NQIMNIJQeTg-lcyDN-4" connectable="0" vertex="1">
          <mxGeometry x="-0.3547" y="2" relative="1" as="geometry">
            <mxPoint x="-26.03" y="8" as="offset" />
          </mxGeometry>
        </mxCell>
        <mxCell id="zI4NQIMNIJQeTg-lcyDN-6" value="9.3" style="swimlane;childLayout=stackLayout;horizontal=1;startSize=30;horizontalStack=0;rounded=1;fontSize=14;fontStyle=0;strokeWidth=2;resizeParent=0;resizeLast=1;shadow=0;dashed=0;align=center;" parent="oH1qJ22LSW8pNRVhZk7p-1" vertex="1">
          <mxGeometry x="495" y="642.5" width="160" height="70" as="geometry" />
        </mxCell>
        <mxCell id="zI4NQIMNIJQeTg-lcyDN-7" value="ตรวจสอบรายงาน" style="align=center;strokeColor=none;fillColor=none;spacingLeft=4;fontSize=12;verticalAlign=top;resizable=0;rotatable=0;part=1;" parent="zI4NQIMNIJQeTg-lcyDN-6" vertex="1">
          <mxGeometry y="30" width="160" height="40" as="geometry" />
        </mxCell>
        <mxCell id="zI4NQIMNIJQeTg-lcyDN-9" style="edgeStyle=orthogonalEdgeStyle;rounded=0;orthogonalLoop=1;jettySize=auto;html=1;" parent="oH1qJ22LSW8pNRVhZk7p-1" source="zI4NQIMNIJQeTg-lcyDN-7" target="hhSEQHSeIq2iK6HXYZdR-0" edge="1">
          <mxGeometry relative="1" as="geometry" />
        </mxCell>
        <mxCell id="aglFkXMO3OKV_3KLINEu-0" value="รายงานการบริการ" style="edgeLabel;html=1;align=center;verticalAlign=middle;resizable=0;points=[];fontSize=12;" parent="zI4NQIMNIJQeTg-lcyDN-9" connectable="0" vertex="1">
          <mxGeometry x="-0.1845" y="-1" relative="1" as="geometry">
            <mxPoint x="1" as="offset" />
          </mxGeometry>
        </mxCell>
        <mxCell id="zI4NQIMNIJQeTg-lcyDN-27" style="edgeStyle=orthogonalEdgeStyle;rounded=0;orthogonalLoop=1;jettySize=auto;html=1;fontSize=13;" parent="oH1qJ22LSW8pNRVhZk7p-1" source="zI4NQIMNIJQeTg-lcyDN-20" target="zaVLYH2ar4Qy6EBXbomB-0" edge="1">
          <mxGeometry relative="1" as="geometry" />
        </mxCell>
        <mxCell id="zI4NQIMNIJQeTg-lcyDN-31" value="รายงานความประพฤติ" style="edgeLabel;html=1;align=center;verticalAlign=middle;resizable=0;points=[];fontSize=13;" parent="zI4NQIMNIJQeTg-lcyDN-27" connectable="0" vertex="1">
          <mxGeometry x="-0.443" y="1" relative="1" as="geometry">
            <mxPoint as="offset" />
          </mxGeometry>
        </mxCell>
        <mxCell id="zI4NQIMNIJQeTg-lcyDN-20" value="9.5" style="swimlane;childLayout=stackLayout;horizontal=1;startSize=30;horizontalStack=0;rounded=1;fontSize=14;fontStyle=0;strokeWidth=2;resizeParent=0;resizeLast=1;shadow=0;dashed=0;align=center;" parent="oH1qJ22LSW8pNRVhZk7p-1" vertex="1">
          <mxGeometry x="810" y="652.5" width="180" height="70" as="geometry" />
        </mxCell>
        <mxCell id="zI4NQIMNIJQeTg-lcyDN-21" value="แจ้งเตือนผู้รับฝาก" style="align=center;strokeColor=none;fillColor=none;spacingLeft=4;fontSize=12;verticalAlign=top;resizable=0;rotatable=0;part=1;" parent="zI4NQIMNIJQeTg-lcyDN-20" vertex="1">
          <mxGeometry y="30" width="180" height="40" as="geometry" />
        </mxCell>
        <mxCell id="zI4NQIMNIJQeTg-lcyDN-25" style="edgeStyle=orthogonalEdgeStyle;rounded=0;orthogonalLoop=1;jettySize=auto;html=1;fontSize=13;" parent="oH1qJ22LSW8pNRVhZk7p-1" source="zI4NQIMNIJQeTg-lcyDN-22" target="Tr7ULuzej3zG4acVS04e-0" edge="1">
          <mxGeometry relative="1" as="geometry" />
        </mxCell>
        <mxCell id="zI4NQIMNIJQeTg-lcyDN-30" value="รายงานความประพฤติ" style="edgeLabel;html=1;align=center;verticalAlign=middle;resizable=0;points=[];fontSize=13;" parent="zI4NQIMNIJQeTg-lcyDN-25" connectable="0" vertex="1">
          <mxGeometry x="-0.4212" y="2" relative="1" as="geometry">
            <mxPoint as="offset" />
          </mxGeometry>
        </mxCell>
        <mxCell id="zI4NQIMNIJQeTg-lcyDN-22" value="9.4" style="swimlane;childLayout=stackLayout;horizontal=1;startSize=30;horizontalStack=0;rounded=1;fontSize=14;fontStyle=0;strokeWidth=2;resizeParent=0;resizeLast=1;shadow=0;dashed=0;align=center;" parent="oH1qJ22LSW8pNRVhZk7p-1" vertex="1">
          <mxGeometry x="160" y="652.5" width="160" height="70" as="geometry" />
        </mxCell>
        <mxCell id="zI4NQIMNIJQeTg-lcyDN-23" value="แจ้งเตือนผู้ใช้งานทั่วไป" style="align=center;strokeColor=none;fillColor=none;spacingLeft=4;fontSize=12;verticalAlign=top;resizable=0;rotatable=0;part=1;" parent="zI4NQIMNIJQeTg-lcyDN-22" vertex="1">
          <mxGeometry y="30" width="160" height="40" as="geometry" />
        </mxCell>
        <mxCell id="OJ6MCe3TFEuc1gh8XlQ2-0" value="Hostdog - DFD Level 1 - Process 9" style="text;html=1;align=center;verticalAlign=middle;resizable=0;points=[];autosize=1;" parent="oH1qJ22LSW8pNRVhZk7p-1" vertex="1">
          <mxGeometry x="80" y="40" width="200" height="20" as="geometry" />
        </mxCell>
      </root>
    </mxGraphModel>
  </diagram>
  <diagram id="Dyxn42VSioboeUbO2JQI" name="Context_backup">
    <mxGraphModel dx="1038" dy="580" grid="1" gridSize="10" guides="1" tooltips="1" connect="1" arrows="1" fold="1" page="1" pageScale="1" pageWidth="1654" pageHeight="1169" math="0" shadow="0">
      <root>
        <mxCell id="w7AUqxoH5JowRiSnDnMO-0" />
        <mxCell id="w7AUqxoH5JowRiSnDnMO-1" parent="w7AUqxoH5JowRiSnDnMO-0" />
        <mxCell id="w7AUqxoH5JowRiSnDnMO-2" value="ผู้ใช้งานทั่วไป" style="whiteSpace=wrap;html=1;aspect=fixed;align=center;" parent="w7AUqxoH5JowRiSnDnMO-1" vertex="1">
          <mxGeometry x="20" y="10" width="160" height="160" as="geometry" />
        </mxCell>
        <mxCell id="w7AUqxoH5JowRiSnDnMO-3" style="edgeStyle=orthogonalEdgeStyle;rounded=0;orthogonalLoop=1;jettySize=auto;html=1;entryX=0.697;entryY=1.02;entryDx=0;entryDy=0;entryPerimeter=0;" parent="w7AUqxoH5JowRiSnDnMO-1" source="w7AUqxoH5JowRiSnDnMO-6" target="w7AUqxoH5JowRiSnDnMO-10" edge="1">
          <mxGeometry relative="1" as="geometry">
            <Array as="points">
              <mxPoint x="654" y="750" />
            </Array>
          </mxGeometry>
        </mxCell>
        <mxCell id="w7AUqxoH5JowRiSnDnMO-4" style="edgeStyle=orthogonalEdgeStyle;rounded=0;orthogonalLoop=1;jettySize=auto;html=1;entryX=0.617;entryY=1.027;entryDx=0;entryDy=0;entryPerimeter=0;" parent="w7AUqxoH5JowRiSnDnMO-1" source="w7AUqxoH5JowRiSnDnMO-6" target="w7AUqxoH5JowRiSnDnMO-10" edge="1">
          <mxGeometry relative="1" as="geometry">
            <Array as="points">
              <mxPoint x="626" y="780" />
            </Array>
          </mxGeometry>
        </mxCell>
        <mxCell id="w7AUqxoH5JowRiSnDnMO-5" style="edgeStyle=orthogonalEdgeStyle;rounded=0;orthogonalLoop=1;jettySize=auto;html=1;entryX=0.75;entryY=1;entryDx=0;entryDy=0;" parent="w7AUqxoH5JowRiSnDnMO-1" source="w7AUqxoH5JowRiSnDnMO-6" target="w7AUqxoH5JowRiSnDnMO-10" edge="1">
          <mxGeometry relative="1" as="geometry" />
        </mxCell>
        <mxCell id="w7AUqxoH5JowRiSnDnMO-6" value="ผู้รับฝาก" style="whiteSpace=wrap;html=1;aspect=fixed;align=center;" parent="w7AUqxoH5JowRiSnDnMO-1" vertex="1">
          <mxGeometry x="970" y="640" width="170" height="170" as="geometry" />
        </mxCell>
        <mxCell id="w7AUqxoH5JowRiSnDnMO-7" style="edgeStyle=orthogonalEdgeStyle;rounded=0;orthogonalLoop=1;jettySize=auto;html=1;entryX=0.993;entryY=0.2;entryDx=0;entryDy=0;entryPerimeter=0;" parent="w7AUqxoH5JowRiSnDnMO-1" source="w7AUqxoH5JowRiSnDnMO-9" target="w7AUqxoH5JowRiSnDnMO-44" edge="1">
          <mxGeometry relative="1" as="geometry">
            <Array as="points">
              <mxPoint x="500" y="660" />
            </Array>
          </mxGeometry>
        </mxCell>
        <mxCell id="w7AUqxoH5JowRiSnDnMO-8" value="&lt;font style=&quot;font-size: 12px&quot;&gt;บันทึกการชำระเงิน&lt;/font&gt;" style="edgeLabel;html=1;align=center;verticalAlign=middle;resizable=0;points=[];" parent="w7AUqxoH5JowRiSnDnMO-7" connectable="0" vertex="1">
          <mxGeometry x="0.4587" relative="1" as="geometry">
            <mxPoint x="11.16" y="-10.01" as="offset" />
          </mxGeometry>
        </mxCell>
        <mxCell id="w7AUqxoH5JowRiSnDnMO-9" value="0" style="swimlane;childLayout=stackLayout;horizontal=1;startSize=30;horizontalStack=0;rounded=1;fontSize=14;fontStyle=0;strokeWidth=2;resizeParent=0;resizeLast=1;shadow=0;dashed=0;align=center;" parent="w7AUqxoH5JowRiSnDnMO-1" vertex="1">
          <mxGeometry x="410" y="324" width="350" height="180" as="geometry" />
        </mxCell>
        <mxCell id="w7AUqxoH5JowRiSnDnMO-10" value="ระบบ HostDog" style="align=center;strokeColor=none;fillColor=none;spacingLeft=4;fontSize=12;verticalAlign=middle;resizable=0;rotatable=0;part=1;" parent="w7AUqxoH5JowRiSnDnMO-9" vertex="1">
          <mxGeometry y="30" width="350" height="150" as="geometry" />
        </mxCell>
        <mxCell id="w7AUqxoH5JowRiSnDnMO-11" value="" style="endArrow=classic;html=1;exitX=0;exitY=0.25;exitDx=0;exitDy=0;entryX=0.94;entryY=0.993;entryDx=0;entryDy=0;entryPerimeter=0;" parent="w7AUqxoH5JowRiSnDnMO-1" source="w7AUqxoH5JowRiSnDnMO-9" target="w7AUqxoH5JowRiSnDnMO-2" edge="1">
          <mxGeometry width="50" height="50" relative="1" as="geometry">
            <mxPoint x="240" y="260" as="sourcePoint" />
            <mxPoint x="180" y="180" as="targetPoint" />
            <Array as="points">
              <mxPoint x="170" y="369" />
            </Array>
          </mxGeometry>
        </mxCell>
        <mxCell id="w7AUqxoH5JowRiSnDnMO-12" value="รายละเอียดการสมัครสมาชิก" style="text;html=1;strokeColor=none;fillColor=none;align=center;verticalAlign=middle;whiteSpace=wrap;rounded=0;" parent="w7AUqxoH5JowRiSnDnMO-1" vertex="1">
          <mxGeometry x="250" y="350" width="150" height="20" as="geometry" />
        </mxCell>
        <mxCell id="w7AUqxoH5JowRiSnDnMO-13" value="" style="endArrow=classic;html=1;exitX=0;exitY=0.25;exitDx=0;exitDy=0;entryX=0.825;entryY=1.002;entryDx=0;entryDy=0;entryPerimeter=0;" parent="w7AUqxoH5JowRiSnDnMO-1" source="w7AUqxoH5JowRiSnDnMO-10" target="w7AUqxoH5JowRiSnDnMO-2" edge="1">
          <mxGeometry width="50" height="50" relative="1" as="geometry">
            <mxPoint x="170" y="440" as="sourcePoint" />
            <mxPoint x="151" y="174" as="targetPoint" />
            <Array as="points">
              <mxPoint x="152" y="392" />
            </Array>
          </mxGeometry>
        </mxCell>
        <mxCell id="w7AUqxoH5JowRiSnDnMO-14" value="รายละเอียดการเข้าสู่ระบบ" style="text;html=1;strokeColor=none;fillColor=none;align=center;verticalAlign=middle;whiteSpace=wrap;rounded=0;" parent="w7AUqxoH5JowRiSnDnMO-1" vertex="1">
          <mxGeometry x="250" y="370" width="140" height="20" as="geometry" />
        </mxCell>
        <mxCell id="w7AUqxoH5JowRiSnDnMO-15" value="" style="endArrow=classic;html=1;exitX=0.999;exitY=0.944;exitDx=0;exitDy=0;exitPerimeter=0;entryX=0.176;entryY=-0.002;entryDx=0;entryDy=0;entryPerimeter=0;" parent="w7AUqxoH5JowRiSnDnMO-1" source="w7AUqxoH5JowRiSnDnMO-2" target="w7AUqxoH5JowRiSnDnMO-9" edge="1">
          <mxGeometry width="50" height="50" relative="1" as="geometry">
            <mxPoint x="450" y="220" as="sourcePoint" />
            <mxPoint x="472" y="320" as="targetPoint" />
            <Array as="points">
              <mxPoint x="472" y="161" />
            </Array>
          </mxGeometry>
        </mxCell>
        <mxCell id="w7AUqxoH5JowRiSnDnMO-16" value="&lt;span style=&quot;background-color: rgb(255 , 255 , 255)&quot;&gt;&lt;font style=&quot;font-size: 12px&quot;&gt;ข้อมูลการสมัครสมาชิก&lt;/font&gt;&lt;/span&gt;" style="text;html=1;strokeColor=none;fillColor=none;align=center;verticalAlign=middle;whiteSpace=wrap;rounded=0;" parent="w7AUqxoH5JowRiSnDnMO-1" vertex="1">
          <mxGeometry x="200" y="140" width="140" height="20" as="geometry" />
        </mxCell>
        <mxCell id="w7AUqxoH5JowRiSnDnMO-17" value="" style="endArrow=classic;html=1;" parent="w7AUqxoH5JowRiSnDnMO-1" edge="1">
          <mxGeometry width="50" height="50" relative="1" as="geometry">
            <mxPoint x="180" y="142" as="sourcePoint" />
            <mxPoint x="491" y="324" as="targetPoint" />
            <Array as="points">
              <mxPoint x="491" y="142" />
            </Array>
          </mxGeometry>
        </mxCell>
        <mxCell id="w7AUqxoH5JowRiSnDnMO-18" value="อีเมลและรหัสผ่าน" style="text;html=1;strokeColor=none;fillColor=none;align=center;verticalAlign=middle;whiteSpace=wrap;rounded=0;" parent="w7AUqxoH5JowRiSnDnMO-1" vertex="1">
          <mxGeometry x="200" y="120" width="90" height="20" as="geometry" />
        </mxCell>
        <mxCell id="w7AUqxoH5JowRiSnDnMO-19" value="" style="endArrow=classic;html=1;entryX=0.829;entryY=1.009;entryDx=0;entryDy=0;entryPerimeter=0;" parent="w7AUqxoH5JowRiSnDnMO-1" target="w7AUqxoH5JowRiSnDnMO-10" edge="1">
          <mxGeometry width="50" height="50" relative="1" as="geometry">
            <mxPoint x="967" y="700.0000000000002" as="sourcePoint" />
            <mxPoint x="750" y="530" as="targetPoint" />
            <Array as="points">
              <mxPoint x="700" y="700" />
            </Array>
          </mxGeometry>
        </mxCell>
        <mxCell id="w7AUqxoH5JowRiSnDnMO-20" value="" style="endArrow=classic;html=1;exitX=1;exitY=0.573;exitDx=0;exitDy=0;exitPerimeter=0;entryX=0.34;entryY=0.007;entryDx=0;entryDy=0;entryPerimeter=0;" parent="w7AUqxoH5JowRiSnDnMO-1" edge="1">
          <mxGeometry width="50" height="50" relative="1" as="geometry">
            <mxPoint x="759" y="439.95000000000005" as="sourcePoint" />
            <mxPoint x="1026.8000000000002" y="641.19" as="targetPoint" />
            <Array as="points">
              <mxPoint x="1027" y="440" />
            </Array>
          </mxGeometry>
        </mxCell>
        <mxCell id="w7AUqxoH5JowRiSnDnMO-21" value="รายละเอียดการใช้บริการ" style="text;html=1;strokeColor=none;fillColor=none;align=center;verticalAlign=middle;whiteSpace=wrap;rounded=0;" parent="w7AUqxoH5JowRiSnDnMO-1" vertex="1">
          <mxGeometry x="730" y="430.68" width="350" as="geometry" />
        </mxCell>
        <mxCell id="w7AUqxoH5JowRiSnDnMO-22" value="การตอบกลับคำขอบริการ" style="text;html=1;strokeColor=none;fillColor=none;align=center;verticalAlign=middle;whiteSpace=wrap;rounded=0;" parent="w7AUqxoH5JowRiSnDnMO-1" vertex="1">
          <mxGeometry x="765.35" y="680" width="129.3" height="20" as="geometry" />
        </mxCell>
        <mxCell id="w7AUqxoH5JowRiSnDnMO-23" value="" style="endArrow=classic;html=1;entryX=0.28;entryY=0;entryDx=0;entryDy=0;entryPerimeter=0;" parent="w7AUqxoH5JowRiSnDnMO-1" target="w7AUqxoH5JowRiSnDnMO-9" edge="1">
          <mxGeometry width="50" height="50" relative="1" as="geometry">
            <mxPoint x="180" y="122" as="sourcePoint" />
            <mxPoint x="491" y="304" as="targetPoint" />
            <Array as="points">
              <mxPoint x="510" y="122" />
            </Array>
          </mxGeometry>
        </mxCell>
        <mxCell id="w7AUqxoH5JowRiSnDnMO-24" value="ข้อมูลการสมัครเป็นผู้รับฝาก" style="text;html=1;strokeColor=none;fillColor=none;align=center;verticalAlign=middle;whiteSpace=wrap;rounded=0;" parent="w7AUqxoH5JowRiSnDnMO-1" vertex="1">
          <mxGeometry x="200" y="100" width="140" height="20" as="geometry" />
        </mxCell>
        <mxCell id="w7AUqxoH5JowRiSnDnMO-25" value="" style="endArrow=classic;html=1;exitX=0;exitY=0.25;exitDx=0;exitDy=0;" parent="w7AUqxoH5JowRiSnDnMO-1" edge="1">
          <mxGeometry width="50" height="50" relative="1" as="geometry">
            <mxPoint x="410" y="413.18000000000006" as="sourcePoint" />
            <mxPoint x="132" y="171" as="targetPoint" />
            <Array as="points">
              <mxPoint x="132" y="414" />
            </Array>
          </mxGeometry>
        </mxCell>
        <mxCell id="w7AUqxoH5JowRiSnDnMO-26" value="คำตอบกลับการเป็นผู้รับฝาก" style="text;html=1;strokeColor=none;fillColor=none;align=center;verticalAlign=middle;whiteSpace=wrap;rounded=0;" parent="w7AUqxoH5JowRiSnDnMO-1" vertex="1">
          <mxGeometry x="250" y="391.68" width="140" height="20" as="geometry" />
        </mxCell>
        <mxCell id="w7AUqxoH5JowRiSnDnMO-27" value="" style="endArrow=classic;html=1;exitX=0;exitY=0.25;exitDx=0;exitDy=0;entryX=0.575;entryY=0.999;entryDx=0;entryDy=0;entryPerimeter=0;" parent="w7AUqxoH5JowRiSnDnMO-1" target="w7AUqxoH5JowRiSnDnMO-2" edge="1">
          <mxGeometry width="50" height="50" relative="1" as="geometry">
            <mxPoint x="410" y="432.18000000000006" as="sourcePoint" />
            <mxPoint x="132" y="190" as="targetPoint" />
            <Array as="points">
              <mxPoint x="112" y="433" />
            </Array>
          </mxGeometry>
        </mxCell>
        <mxCell id="w7AUqxoH5JowRiSnDnMO-28" value="รายละเอียดการชำระเงิน" style="text;html=1;strokeColor=none;fillColor=none;align=center;verticalAlign=middle;whiteSpace=wrap;rounded=0;" parent="w7AUqxoH5JowRiSnDnMO-1" vertex="1">
          <mxGeometry x="250" y="410.68" width="140" height="20" as="geometry" />
        </mxCell>
        <mxCell id="w7AUqxoH5JowRiSnDnMO-29" value="" style="endArrow=classic;html=1;entryX=0.34;entryY=0.006;entryDx=0;entryDy=0;entryPerimeter=0;" parent="w7AUqxoH5JowRiSnDnMO-1" target="w7AUqxoH5JowRiSnDnMO-9" edge="1">
          <mxGeometry width="50" height="50" relative="1" as="geometry">
            <mxPoint x="180" y="102" as="sourcePoint" />
            <mxPoint x="508" y="304" as="targetPoint" />
            <Array as="points">
              <mxPoint x="530" y="102" />
            </Array>
          </mxGeometry>
        </mxCell>
        <mxCell id="w7AUqxoH5JowRiSnDnMO-30" value="ข้อมูลการชำระเงิน" style="text;html=1;strokeColor=none;fillColor=none;align=center;verticalAlign=middle;whiteSpace=wrap;rounded=0;" parent="w7AUqxoH5JowRiSnDnMO-1" vertex="1">
          <mxGeometry x="190" y="80" width="140" height="20" as="geometry" />
        </mxCell>
        <mxCell id="w7AUqxoH5JowRiSnDnMO-31" value="" style="endArrow=classic;html=1;entryX=0.4;entryY=0.006;entryDx=0;entryDy=0;entryPerimeter=0;" parent="w7AUqxoH5JowRiSnDnMO-1" target="w7AUqxoH5JowRiSnDnMO-9" edge="1">
          <mxGeometry width="50" height="50" relative="1" as="geometry">
            <mxPoint x="180" y="82" as="sourcePoint" />
            <mxPoint x="529" y="305.0799999999999" as="targetPoint" />
            <Array as="points">
              <mxPoint x="550" y="82" />
            </Array>
          </mxGeometry>
        </mxCell>
        <mxCell id="w7AUqxoH5JowRiSnDnMO-32" value="ข้อมูลการเลือกใช้บริการ" style="text;html=1;strokeColor=none;fillColor=none;align=center;verticalAlign=middle;whiteSpace=wrap;rounded=0;" parent="w7AUqxoH5JowRiSnDnMO-1" vertex="1">
          <mxGeometry x="190" y="60" width="140" height="20" as="geometry" />
        </mxCell>
        <mxCell id="w7AUqxoH5JowRiSnDnMO-33" style="edgeStyle=orthogonalEdgeStyle;rounded=0;orthogonalLoop=1;jettySize=auto;html=1;entryX=0.996;entryY=0.148;entryDx=0;entryDy=0;entryPerimeter=0;" parent="w7AUqxoH5JowRiSnDnMO-1" source="w7AUqxoH5JowRiSnDnMO-35" target="w7AUqxoH5JowRiSnDnMO-9" edge="1">
          <mxGeometry relative="1" as="geometry">
            <mxPoint x="763" y="350" as="targetPoint" />
            <Array as="points">
              <mxPoint x="980" y="351" />
            </Array>
          </mxGeometry>
        </mxCell>
        <mxCell id="w7AUqxoH5JowRiSnDnMO-34" value="&lt;font style=&quot;font-size: 12px&quot;&gt;การอนุมัติการเป็นผู้รับฝาก&lt;/font&gt;" style="edgeLabel;html=1;align=center;verticalAlign=middle;resizable=0;points=[];" parent="w7AUqxoH5JowRiSnDnMO-33" connectable="0" vertex="1">
          <mxGeometry x="-0.7217" y="1" relative="1" as="geometry">
            <mxPoint x="-111" y="97.49999999999999" as="offset" />
          </mxGeometry>
        </mxCell>
        <mxCell id="w7AUqxoH5JowRiSnDnMO-35" value="ผู้ดูแล" style="whiteSpace=wrap;html=1;aspect=fixed;align=center;" parent="w7AUqxoH5JowRiSnDnMO-1" vertex="1">
          <mxGeometry x="960" y="20" width="170" height="170" as="geometry" />
        </mxCell>
        <mxCell id="w7AUqxoH5JowRiSnDnMO-36" value="" style="endArrow=classic;html=1;entryX=-0.004;entryY=0.388;entryDx=0;entryDy=0;entryPerimeter=0;" parent="w7AUqxoH5JowRiSnDnMO-1" target="w7AUqxoH5JowRiSnDnMO-35" edge="1">
          <mxGeometry width="50" height="50" relative="1" as="geometry">
            <mxPoint x="720" y="324" as="sourcePoint" />
            <mxPoint x="956" y="40" as="targetPoint" />
            <Array as="points">
              <mxPoint x="720" y="86" />
            </Array>
          </mxGeometry>
        </mxCell>
        <mxCell id="w7AUqxoH5JowRiSnDnMO-37" value="&lt;span style=&quot;font-size: 12px&quot;&gt;ข้อมูลการลงทะเบียนเป็นผู้รับฝาก&lt;/span&gt;" style="edgeLabel;html=1;align=center;verticalAlign=middle;resizable=0;points=[];" parent="w7AUqxoH5JowRiSnDnMO-36" connectable="0" vertex="1">
          <mxGeometry x="0.4182" y="-6" relative="1" as="geometry">
            <mxPoint y="-18.98" as="offset" />
          </mxGeometry>
        </mxCell>
        <mxCell id="w7AUqxoH5JowRiSnDnMO-38" value="" style="endArrow=classic;html=1;entryX=0;entryY=0.25;entryDx=0;entryDy=0;" parent="w7AUqxoH5JowRiSnDnMO-1" target="w7AUqxoH5JowRiSnDnMO-35" edge="1">
          <mxGeometry width="50" height="50" relative="1" as="geometry">
            <mxPoint x="700" y="324" as="sourcePoint" />
            <mxPoint x="939.3200000000002" y="85.96000000000004" as="targetPoint" />
            <Array as="points">
              <mxPoint x="700" y="60" />
            </Array>
          </mxGeometry>
        </mxCell>
        <mxCell id="w7AUqxoH5JowRiSnDnMO-39" value="&lt;font style=&quot;font-size: 12px&quot;&gt;รายงานการบริการ&lt;/font&gt;" style="edgeLabel;html=1;align=center;verticalAlign=middle;resizable=0;points=[];" parent="w7AUqxoH5JowRiSnDnMO-38" connectable="0" vertex="1">
          <mxGeometry x="0.439" y="-1" relative="1" as="geometry">
            <mxPoint x="-3.13" y="-12.09" as="offset" />
          </mxGeometry>
        </mxCell>
        <mxCell id="w7AUqxoH5JowRiSnDnMO-40" value="" style="endArrow=classic;html=1;entryX=0.45;entryY=0;entryDx=0;entryDy=0;entryPerimeter=0;" parent="w7AUqxoH5JowRiSnDnMO-1" target="w7AUqxoH5JowRiSnDnMO-9" edge="1">
          <mxGeometry width="50" height="50" relative="1" as="geometry">
            <mxPoint x="180" y="62" as="sourcePoint" />
            <mxPoint x="568" y="322" as="targetPoint" />
            <Array as="points">
              <mxPoint x="568" y="62" />
            </Array>
          </mxGeometry>
        </mxCell>
        <mxCell id="w7AUqxoH5JowRiSnDnMO-41" value="&lt;span style=&quot;font-size: 11px ; background-color: rgb(255 , 255 , 255)&quot;&gt;ข้อความจากผู้ใช้งานทั่วไป&lt;/span&gt;" style="text;html=1;strokeColor=none;fillColor=none;align=center;verticalAlign=middle;whiteSpace=wrap;rounded=0;" parent="w7AUqxoH5JowRiSnDnMO-1" vertex="1">
          <mxGeometry x="190" y="40" width="140" height="20" as="geometry" />
        </mxCell>
        <mxCell id="w7AUqxoH5JowRiSnDnMO-42" value="" style="endArrow=classic;html=1;exitX=0;exitY=0.25;exitDx=0;exitDy=0;entryX=0.459;entryY=1.007;entryDx=0;entryDy=0;entryPerimeter=0;" parent="w7AUqxoH5JowRiSnDnMO-1" target="w7AUqxoH5JowRiSnDnMO-2" edge="1">
          <mxGeometry width="50" height="50" relative="1" as="geometry">
            <mxPoint x="410" y="450.10000000000014" as="sourcePoint" />
            <mxPoint x="112.95999999999981" y="190.00000000000003" as="targetPoint" />
            <Array as="points">
              <mxPoint x="94" y="451" />
            </Array>
          </mxGeometry>
        </mxCell>
        <mxCell id="w7AUqxoH5JowRiSnDnMO-43" value="&lt;span style=&quot;font-size: 11px ; text-align: center ; background-color: rgb(255 , 255 , 255)&quot;&gt;ข้อความจากผู้รับฝาก&lt;/span&gt;" style="text;whiteSpace=wrap;html=1;" parent="w7AUqxoH5JowRiSnDnMO-1" vertex="1">
          <mxGeometry x="272.5" y="428.68" width="105" height="30" as="geometry" />
        </mxCell>
        <mxCell id="w7AUqxoH5JowRiSnDnMO-44" value="องค์กร" style="whiteSpace=wrap;html=1;aspect=fixed;align=center;" parent="w7AUqxoH5JowRiSnDnMO-1" vertex="1">
          <mxGeometry x="110" y="630" width="150" height="150" as="geometry" />
        </mxCell>
        <mxCell id="w7AUqxoH5JowRiSnDnMO-45" value="" style="endArrow=classic;html=1;entryX=0.5;entryY=0;entryDx=0;entryDy=0;" parent="w7AUqxoH5JowRiSnDnMO-1" target="w7AUqxoH5JowRiSnDnMO-9" edge="1">
          <mxGeometry width="50" height="50" relative="1" as="geometry">
            <mxPoint x="180" y="42" as="sourcePoint" />
            <mxPoint x="567.5" y="304" as="targetPoint" />
            <Array as="points">
              <mxPoint x="585" y="42" />
            </Array>
          </mxGeometry>
        </mxCell>
        <mxCell id="w7AUqxoH5JowRiSnDnMO-46" value="&lt;span style=&quot;font-size: 11px ; background-color: rgb(255 , 255 , 255)&quot;&gt;ข้อมูลการค้นหาผู้รับฝาก&lt;/span&gt;" style="text;html=1;strokeColor=none;fillColor=none;align=center;verticalAlign=middle;whiteSpace=wrap;rounded=0;" parent="w7AUqxoH5JowRiSnDnMO-1" vertex="1">
          <mxGeometry x="190" y="20" width="140" height="20" as="geometry" />
        </mxCell>
        <mxCell id="w7AUqxoH5JowRiSnDnMO-47" style="edgeStyle=orthogonalEdgeStyle;rounded=0;orthogonalLoop=1;jettySize=auto;html=1;entryX=1.001;entryY=0.105;entryDx=0;entryDy=0;entryPerimeter=0;" parent="w7AUqxoH5JowRiSnDnMO-1" target="w7AUqxoH5JowRiSnDnMO-10" edge="1">
          <mxGeometry relative="1" as="geometry">
            <mxPoint x="1001.4000000000001" y="190" as="sourcePoint" />
            <mxPoint x="761" y="371" as="targetPoint" />
            <Array as="points">
              <mxPoint x="1001" y="370" />
              <mxPoint x="780" y="370" />
            </Array>
          </mxGeometry>
        </mxCell>
        <mxCell id="w7AUqxoH5JowRiSnDnMO-48" value="&lt;span style=&quot;font-size: 12px&quot;&gt;รายงานความประพฤติผู้ใช้งาน&lt;/span&gt;" style="edgeLabel;html=1;align=center;verticalAlign=middle;resizable=0;points=[];" parent="w7AUqxoH5JowRiSnDnMO-47" connectable="0" vertex="1">
          <mxGeometry x="-0.7217" y="1" relative="1" as="geometry">
            <mxPoint x="-132.39" y="111.42999999999998" as="offset" />
          </mxGeometry>
        </mxCell>
        <mxCell id="w7AUqxoH5JowRiSnDnMO-49" value="" style="endArrow=classic;html=1;exitX=0;exitY=0.25;exitDx=0;exitDy=0;entryX=0.374;entryY=1.006;entryDx=0;entryDy=0;entryPerimeter=0;" parent="w7AUqxoH5JowRiSnDnMO-1" target="w7AUqxoH5JowRiSnDnMO-2" edge="1">
          <mxGeometry width="50" height="50" relative="1" as="geometry">
            <mxPoint x="410" y="468.98" as="sourcePoint" />
            <mxPoint x="93.44000000000005" y="190" as="targetPoint" />
            <Array as="points">
              <mxPoint x="81" y="470" />
            </Array>
          </mxGeometry>
        </mxCell>
        <mxCell id="w7AUqxoH5JowRiSnDnMO-50" value="&lt;div style=&quot;text-align: center&quot;&gt;&lt;span style=&quot;font-size: 11px ; background-color: rgb(255 , 255 , 255)&quot;&gt;รายงานความประพฤติ&lt;/span&gt;&lt;/div&gt;" style="text;whiteSpace=wrap;html=1;" parent="w7AUqxoH5JowRiSnDnMO-1" vertex="1">
          <mxGeometry x="272.5" y="447.56" width="105" height="30" as="geometry" />
        </mxCell>
        <mxCell id="w7AUqxoH5JowRiSnDnMO-51" value="" style="endArrow=classic;html=1;exitX=1;exitY=0.573;exitDx=0;exitDy=0;exitPerimeter=0;entryX=0.418;entryY=0.004;entryDx=0;entryDy=0;entryPerimeter=0;" parent="w7AUqxoH5JowRiSnDnMO-1" target="w7AUqxoH5JowRiSnDnMO-6" edge="1">
          <mxGeometry width="50" height="50" relative="1" as="geometry">
            <mxPoint x="759" y="422.27" as="sourcePoint" />
            <mxPoint x="1026.8000000000004" y="623.5100000000001" as="targetPoint" />
            <Array as="points">
              <mxPoint x="1040" y="422" />
            </Array>
          </mxGeometry>
        </mxCell>
        <mxCell id="w7AUqxoH5JowRiSnDnMO-52" value="รายงานความประพฤติ" style="text;html=1;strokeColor=none;fillColor=none;align=center;verticalAlign=middle;whiteSpace=wrap;rounded=0;" parent="w7AUqxoH5JowRiSnDnMO-1" vertex="1">
          <mxGeometry x="730" y="413" width="350" as="geometry" />
        </mxCell>
        <mxCell id="w7AUqxoH5JowRiSnDnMO-53" value="" style="endArrow=classic;html=1;exitX=0;exitY=0.25;exitDx=0;exitDy=0;entryX=0.281;entryY=1.014;entryDx=0;entryDy=0;entryPerimeter=0;" parent="w7AUqxoH5JowRiSnDnMO-1" target="w7AUqxoH5JowRiSnDnMO-2" edge="1">
          <mxGeometry width="50" height="50" relative="1" as="geometry">
            <mxPoint x="410.0799999999999" y="486.5400000000002" as="sourcePoint" />
            <mxPoint x="79.91999999999992" y="188.52000000000004" as="targetPoint" />
            <Array as="points">
              <mxPoint x="65" y="488" />
            </Array>
          </mxGeometry>
        </mxCell>
        <mxCell id="w7AUqxoH5JowRiSnDnMO-54" value="&lt;div style=&quot;text-align: center&quot;&gt;&lt;span style=&quot;font-size: 11px ; background-color: rgb(255 , 255 , 255)&quot;&gt;รายละเอียดสถานะการฝาก&lt;/span&gt;&lt;/div&gt;" style="text;whiteSpace=wrap;html=1;" parent="w7AUqxoH5JowRiSnDnMO-1" vertex="1">
          <mxGeometry x="260" y="464.68" width="127.5" height="30" as="geometry" />
        </mxCell>
        <mxCell id="w7AUqxoH5JowRiSnDnMO-55" style="edgeStyle=orthogonalEdgeStyle;rounded=0;orthogonalLoop=1;jettySize=auto;html=1;entryX=0.25;entryY=0;entryDx=0;entryDy=0;" parent="w7AUqxoH5JowRiSnDnMO-1" source="w7AUqxoH5JowRiSnDnMO-10" target="w7AUqxoH5JowRiSnDnMO-6" edge="1">
          <mxGeometry relative="1" as="geometry">
            <Array as="points">
              <mxPoint x="1013" y="460" />
            </Array>
          </mxGeometry>
        </mxCell>
        <mxCell id="w7AUqxoH5JowRiSnDnMO-56" value="&lt;span style=&quot;background-color: rgb(255 , 255 , 255)&quot;&gt;&lt;font style=&quot;font-size: 13px&quot;&gt;ข้อความจากผู้ใช้งานทั่วไป&lt;/font&gt;&lt;/span&gt;" style="text;html=1;align=center;verticalAlign=middle;resizable=0;points=[];autosize=1;" parent="w7AUqxoH5JowRiSnDnMO-1" vertex="1">
          <mxGeometry x="830" y="438.68" width="150" height="20" as="geometry" />
        </mxCell>
        <mxCell id="w7AUqxoH5JowRiSnDnMO-57" value="&lt;span style=&quot;font-size: 14px ; background-color: rgb(255 , 255 , 255)&quot;&gt;รายงานจากผู้รับฝาก&lt;/span&gt;" style="text;html=1;align=center;verticalAlign=middle;resizable=0;points=[];autosize=1;" parent="w7AUqxoH5JowRiSnDnMO-1" vertex="1">
          <mxGeometry x="720" y="730" width="130" height="20" as="geometry" />
        </mxCell>
        <mxCell id="w7AUqxoH5JowRiSnDnMO-58" value="&lt;span style=&quot;font-size: 14px ; text-align: center ; background-color: rgb(255 , 255 , 255)&quot;&gt;ข้อความจากผู้รับฝาก&lt;/span&gt;" style="text;whiteSpace=wrap;html=1;" parent="w7AUqxoH5JowRiSnDnMO-1" vertex="1">
          <mxGeometry x="715" y="750" width="140" height="30" as="geometry" />
        </mxCell>
        <mxCell id="w7AUqxoH5JowRiSnDnMO-59" value="&lt;span style=&quot;font-size: 14px ; background-color: rgb(255 , 255 , 255)&quot;&gt;ข้อมูลผู้รับฝาก&lt;/span&gt;" style="text;html=1;align=center;verticalAlign=middle;resizable=0;points=[];autosize=1;" parent="w7AUqxoH5JowRiSnDnMO-1" vertex="1">
          <mxGeometry x="755" y="700" width="100" height="20" as="geometry" />
        </mxCell>
        <mxCell id="w7AUqxoH5JowRiSnDnMO-60" style="edgeStyle=orthogonalEdgeStyle;rounded=0;orthogonalLoop=1;jettySize=auto;html=1;entryX=0.571;entryY=-0.006;entryDx=0;entryDy=0;entryPerimeter=0;" parent="w7AUqxoH5JowRiSnDnMO-1" source="w7AUqxoH5JowRiSnDnMO-10" target="w7AUqxoH5JowRiSnDnMO-6" edge="1">
          <mxGeometry relative="1" as="geometry">
            <Array as="points">
              <mxPoint x="1067" y="400" />
            </Array>
          </mxGeometry>
        </mxCell>
        <mxCell id="w7AUqxoH5JowRiSnDnMO-61" value="&lt;span style=&quot;font-size: 14px ; background-color: rgb(255 , 255 , 255)&quot;&gt;ข้อมูลการให้บริการ&lt;/span&gt;" style="text;html=1;align=center;verticalAlign=middle;resizable=0;points=[];autosize=1;" parent="w7AUqxoH5JowRiSnDnMO-1" vertex="1">
          <mxGeometry x="840" y="380" width="120" height="20" as="geometry" />
        </mxCell>
      </root>
    </mxGraphModel>
  </diagram>
</mxfile>
